<?xml version="1.0" encoding="utf-8"?>
<!-- Generator: Adobe Illustrator 16.0.0, SVG Export Plug-In . SVG Version: 6.00 Build 0)  -->
<!DOCTYPE svg PUBLIC "-//W3C//DTD SVG 1.1//EN" "http://www.w3.org/Graphics/SVG/1.1/DTD/svg11.dtd">
<svg version="1.1" id="Layer_1" xmlns="http://www.w3.org/2000/svg" xmlns:xlink="http://www.w3.org/1999/xlink" x="0px" y="0px"
	 width="960px" height="560px" viewBox="0 0 960 560" enable-background="new 0 0 960 560" xml:space="preserve">
<rect x="48" y="5" fill-rule="evenodd" clip-rule="evenodd" width="864" height="551"/>
<g opacity="0.7">
	<g>
		<g>
			<g>
				<g>
					<g>
						<path fill="#FCBA54" d="M584.821,196.345c0.014,0.21,0.241,0.176,0.365-0.342l-0.196-0.467L584.821,196.345z"/>
						<path fill="#FCBA54" d="M586.504,193.145c0.057-0.638-0.052-1.412-0.442-1.104c0.146,0.681-0.049,0.777,0.115,1.522
							c-0.128,0.518-0.388,0.85-0.477,0.727c0.023,0.205-0.322,0.759-0.214,1.098c0.456-0.574,0.738-1.412,0.818-2.343
							C586.436,192.878,586.459,193.084,586.504,193.145z"/>
						<path fill="#FCBA54" d="M585.4,141.545l0.03,0.337C585.434,141.788,585.421,141.672,585.4,141.545z"/>
						<path fill="#FCBA54" d="M575.997,110.615c0.129,0.213,0.208,0.288,0.241,0.285
							C576.106,110.708,575.995,110.553,575.997,110.615z"/>
						<path fill="#FCBA54" d="M573.467,105.627c0.061,0.104,0.111,0.192,0.166,0.287
							C573.588,105.792,573.531,105.678,573.467,105.627z"/>
						<path fill="#FCBA54" d="M585.4,141.545l-0.077-0.866C585.205,140.642,585.336,141.128,585.4,141.545z"/>
						<path fill="#FCBA54" d="M587.363,186.018c-0.016,0.178-0.012,0.33,0.003,0.471c0.015-0.146,0.029-0.288,0.044-0.434
							C587.394,186.044,587.379,186.035,587.363,186.018z"/>
						<path fill="#FCBA54" d="M588.374,155.502l0.045,0.26c0.05,0.07,0.108,0.134,0.17,0.194L588.374,155.502z"/>
						<path fill="#FCBA54" d="M589.767,166.402c-0.008-0.249-0.295-0.313-0.425-0.397c0.127,0.13,0.196,0.309,0.236,0.524
							C589.631,166.529,589.692,166.492,589.767,166.402z"/>
						<path fill="#FCBA54" d="M588.888,183.792l0.003,0.313C588.89,184.023,588.889,183.887,588.888,183.792z"/>
						<path fill="#FCBA54" d="M587.024,147.771c0.037-0.026,0.065-0.072,0.079-0.117
							C587.068,147.661,587.044,147.706,587.024,147.771z"/>
						<path fill="#FCBA54" d="M344.1,100.018c-0.012-0.019-0.029-0.016-0.042-0.028C344.046,100.057,344.051,100.084,344.1,100.018z
							"/>
						<path fill="#FCBA54" d="M336.518,110.124l0.068-0.163c-0.039-0.04-0.077-0.08-0.124-0.103L336.518,110.124z"/>
						<path fill="#FCBA54" d="M567.479,97.271c0.012,0.016,0.017,0.021,0.027,0.037C567.718,97.482,567.607,97.375,567.479,97.271z"
							/>
						<path fill="#FCBA54" d="M487.284,52.332c0.969,0.492-1.743-0.088-0.261,0.556C486.902,52.746,488.527,52.799,487.284,52.332z"
							/>
						<path fill="#FCBA54" d="M587.449,185.75c0.025-0.144,0.051-0.29,0.076-0.436C587.48,185.51,587.457,185.644,587.449,185.75z"
							/>
						<path fill="#FCBA54" d="M487.023,52.888l-0.001,0.002l0.153,0.064C487.113,52.926,487.077,52.911,487.023,52.888z"/>
						<path fill="#FCBA54" d="M550.159,81.498c0.007,0.068,0.056,0.155,0.108,0.244C550.28,81.715,550.26,81.654,550.159,81.498z"/>
						<path fill="#FCBA54" d="M562.845,93.4l-0.287-0.321C562.664,93.214,562.758,93.315,562.845,93.4z"/>
						<path fill="#FCBA54" d="M542.763,76.259c-0.177-0.156-0.219-0.234-0.5-0.392c0.016,0.029,0.034,0.054,0.059,0.085
							C542.438,75.989,542.573,76.065,542.763,76.259z"/>
						<path fill="#FCBA54" d="M534.956,70.974c0.031,0.046,0.077,0.095,0.116,0.143c0.081,0.047,0.176,0.102,0.259,0.15
							L534.956,70.974z"/>
						<path fill="#FCBA54" d="M363.712,80.16c-0.209,0.058-0.362,0.063-0.493,0.053C363.453,80.288,362.406,81.16,363.712,80.16z"/>
						<path fill="#FCBA54" d="M587.52,186.041c-0.06-0.065-0.08-0.149-0.07-0.292c-0.014,0.105-0.026,0.207-0.039,0.305
							C587.446,186.089,587.483,186.102,587.52,186.041z"/>
						<path fill="#FCBA54" d="M541.151,77.828l-1.165-0.901C540.304,77.191,540.727,77.519,541.151,77.828z"/>
						<path fill="#FCBA54" d="M424.635,54.731l-0.329,0.092C424.436,54.806,424.553,54.778,424.635,54.731z"/>
						<path fill="#FCBA54" d="M536.35,74.524c-0.166-0.226-0.367-0.426-0.589-0.615c-0.063-0.015-0.13-0.038-0.182-0.032
							L536.35,74.524z"/>
						<path fill="#FCBA54" d="M363.216,80.211c0.003,0,0.004,0.001,0.004,0.001S363.219,80.211,363.216,80.211z"/>
						<path fill="#FCBA54" d="M356.151,86.84c1.036-0.93,0.244-0.71,0.322-1.068c1.171-1.201,0.747-0.321,1.3-0.548
							c0.739-0.733,1.141-1.502,1.753-1.987c0.083,0.01,0.214-0.068,0.125,0.103c0.648-0.957,2.559-2.041,3.376-3.102
							c0.096-0.031,0.153-0.035,0.189-0.027c-0.277-0.023-0.415-0.155-0.46-0.289c0.502-0.384,0.804-0.893,1.136-0.839
							c-0.315,0.227-0.284,0.325-0.384,0.495l0.469-0.482c0.68-0.075-0.654,0.639-0.502,0.846c0.947-0.884,2.053-1.934,2.918-2.423
							c0.361,0.165-1.843,1.399-0.583,0.903l-1.335,0.756c1.27-0.225-0.782,0.498,0.43,0.355c1.708-1.049,1.75-1.407,3.455-2.454
							c0.274-0.404-0.281-0.155-0.003-0.555c2.235-1.809,2.354-0.474,3.884-1.972c0.348-0.47,0.313-0.943,1.719-1.502l-0.245,0.587
							c1.7-0.945,0.681-1.042,2.578-1.838c-0.245,0.305-1.261,0.88-0.985,0.769c1.29-0.403,0.698-0.663,1.592-1.15l0.35,0.197
							c0.897-0.519,1.819-1.105,2.766-1.706c0.953-0.591,1.946-1.171,2.956-1.726c-0.067,0.148-0.37,0.422,0.156,0.271
							c2.509-1.469,5.576-2.704,8.207-3.682l0.85-0.714c0.228-0.101,0.475-0.073,0.253,0.092c1.038-0.355-0.026-0.193,0.404-0.518
							c0.555-0.285,0.821-0.164,0.494,0.057c1.668-0.931,4.833-2.6,6.84-2.995l-0.343,0.206c1.528-0.383,1.484-1.128,2.961-1.332
							l-0.25,0.138c3.249-1.047,6.863-2.199,9.485-2.46c0.373-0.569,3.346-0.545,3.43-1.179c1.976-0.118,1.443,0.074,4.176-0.273
							c0.729-0.099,1.012-0.55,1.898-0.767l0.077,0.299l1.161-0.531l0.709,0.25l0.827-0.224c-0.337,0.04-0.734-0.013-0.698-0.109
							c1.289-0.384,3.241-0.325,3.299-0.161l3.087-0.708c-0.052,0.133-0.569,0.25-0.972,0.388c1.624-0.552,0.349,0.278,1.836-0.228
							c-0.215-0.04,0.085-0.198,0.111-0.264c0.786,0.064,2.525-0.158,3.806-0.392l-0.221,0.242c2.334-0.237,4.892-0.72,7.517-1.014
							c-0.952,0.011-0.779-0.379-0.014-0.504l0.345,0.288c0.473-0.258-0.817-0.029,0.173-0.393c0.983-0.077,0.701,0.292,0.151,0.462
							l1.177-0.251c0.081,0.089-0.192,0.172-0.25,0.304c0.463-0.253,2.096,0.075,2.752-0.335l0.077,0.09
							c2.594-0.21,3.755-0.514,5.877-0.612c0.025-0.283,0.859-0.258,1.483-0.514c0.783,0.024,1.611,0.05,2.478,0.077
							c0.867,0.064,1.771,0.114,2.713,0.102c1.325-0.14,0.388-0.238,0.986-0.405c0.096,0.255,1.978,0.233,0.998,0.416
							c2.26,0.047,2.885,0.05,5.757,0.009c-0.302-0.133-0.648-0.207-0.461-0.28c0.522,0.003,1.173,0.211,1.089,0.327l-0.139,0.014
							c3.257-0.145,7.293,1.483,9.884,1.37l-0.146,0.002l2.666,0.167c1.198,0.247-0.757,0.068,0.107,0.374
							c1.453,0.006,2.553,0.297,3.595,0.531c1.037,0.26,2.018,0.474,3.194,0.629c0.803,0.586,2.379,0.941,4.039,1.308
							c1.65,0.405,3.393,0.795,4.512,1.356l-0.087-0.211c0.66,0.015,0.71,0.322,1.147,0.497c-0.024-0.152-0.616-0.355-0.21-0.332
							c5.259,1.304,10.548,3.673,15.664,5.801c1.874,0.773,1.415-0.465,3.639,0.888l-0.797,0.036
							c1.974,0.582,3.925,1.353,5.841,2.181c0.96,0.406,1.918,0.811,2.866,1.211c0.927,0.422,1.854,0.819,2.788,1.168
							c-0.247-0.033-0.295,0.054-0.645-0.112c0.654,0.575,2.793,1.333,2.898,1.166c0.548,0.288,0.053,0.21,0.341,0.481
							c0.664,0.538,1.985,0.77,2.261,1.2c0.047,0.071-0.244-0.048-0.387-0.108c0.533,0.168,2.208,1.281,1.89,0.783
							c1.25,0.816,2.523,1.354,3.433,2.15c0.821,0.165,2.063,1.521,2.516,1.292c-0.176,0.165,0.336,0.576,0.972,1.042
							c0.633,0.472,1.419,0.953,1.864,1.146c-0.336-0.076,0.583,0.601,0.171,0.535c0.876,0.631,1.726,1.147,1.713,0.851
							c1.297,1.578,3.424,2.14,3.885,3.364c0.665,0.459,1.316,0.909,1.957,1.351c0.622,0.471,1.233,0.935,1.836,1.392
							c1.199,0.926,2.371,1.822,3.493,2.748c-0.364,0.25-2.46-2.064-2.673-1.629c2.22,1.634,3.64,2.439,5.596,4.355
							c0.483,0.521-0.43-0.126-0.658-0.229c2.179,1.696,3.878,3.655,5.841,5.15c-0.034,0.026-0.259-0.122-0.465-0.269
							c0.363,0.321,0.774,0.819,0.876,0.633l-0.382-0.283c-0.18-0.373,0.277-0.156,0.801,0.147c0.511,0.312,1.067,0.732,1.155,0.706
							c-0.979-0.17,1.564,1.841,0.137,1.427c0.244,0.199,0.588,0.416,0.637,0.269c0.295,0.364,0.338,0.525-0.102,0.292
							c1.249,1.165,1.035,0.543,2.047,1.719c-0.079,0.061-0.302-0.16-0.492-0.205c0.638,0.479,1.281,0.976,2.04,2.052
							c-0.097-0.024-0.062,0.143-0.306-0.163c0.704,0.877,1.449,1.515,2.095,2.27c0.636,0.762,1.269,1.569,1.883,2.651
							c-0.77-0.372,0.353,0.777,0.109,1.083c0,0,0.217,0.255,0.409,0.525c0.186,0.275,0.372,0.55,0.372,0.55l-0.105-0.56
							c0.563,1.019,1.306,1.786,1.69,2.723l-0.559-0.682l1.132,1.874l-0.481-1.147c0.749,0.943,0.354-0.335,1.027,1.079
							c-0.162-0.275,0.516,1.059,0.567,1.714l-0.003-0.003c0.352,0.475,0.718,0.966,0.999,1.793
							c-0.015,0.253-0.453,0.004-0.464,0.169c0.262,0.195,0.572,0.807,0.888,1.438c0.272,0.65,0.554,1.316,0.837,1.595
							c-0.158-0.198-0.345-0.137-0.354-0.048l0.406,0.356c0.117,0.538,0.107,0.625-0.069,0.599c0.534,1.541,0.26-0.651,0.756,1.233
							c-0.073-0.136-0.083-0.055-0.231-0.338c0.147,0.464,0.313,0.913,0.489,1.351c0.154,0.445,0.307,0.885,0.458,1.32
							c0.303,0.87,0.6,1.724,0.8,2.598c-0.208,0.607-0.542-1.469-0.671-0.801c0.203,0.609,0.429,1.225,0.663,1.843
							c0.226,0.621,0.404,1.261,0.608,1.892c0.391,1.268,0.775,2.529,1.004,3.761l-0.059-0.466c0.598,0.231,0.128,1.885,0.634,3.08
							c-0.103-0.297-0.371-0.34-0.297-0.27c0.265,1.706,0.858,3.417,1.561,5.934l-0.2-0.288c0.091,1.017,0.483,2.626,0.649,3.71
							c0.198,0.29,0.302,0.908,0.42,0.495c-0.084,3.457,1.691,6.231,1.554,9.297c-0.062-0.352-0.262-0.818-0.214-0.538l0.556,2.486
							c0.193-0.236,0.081-0.352,0.168-0.908c0.186,0.296,0.427,0.986,0.512,1.613c-0.318-1.111-0.364,0.068-0.42,0.576
							c0.058-0.093,0.16,0.063,0.225,0.011c-0.212,1.377,0.492,0.152,0.484,1.992l-0.134-0.079c0.166,0.664,0.41,1.264,0.455,2
							c-0.23,0.335-0.209-0.704-0.433-0.722c0.136,1.017,0.74,1.958,0.584,2.915c-0.125-0.427-0.199-1.052-0.324-1.477
							c-0.192,1.043-0.101,1.15-0.062,1.902l-0.002-0.074c0,0,0.026,0.435,0.019,0.871c0,0.436,0,0.872,0,0.872l0.049-0.448
							c0.778,1.222,0.385,2.593,0.892,4.301c-0.499-1.663-0.261-0.265-0.568-0.378c-0.066,0.445-0.134,1.119-0.227,0.932
							c0.274,0.806-0.134,1.363,0.261,2.504c-0.099,0.053-0.017,0.872-0.26,0.69c0.069,1.056,0.172-0.25,0.293-0.164
							c0.161,0.816,0.053,1.78-0.04,2.827c-0.09,1.048-0.27,2.172-0.099,3.361c0.048,1.02,0.113,1.629,0.161,2.222
							c0.057,0.594,0.112,1.172,0.083,2.125c-0.229,0.614-0.291-0.565-0.291-0.565c-0.132,0.502-0.213,0.944-0.263,1.384
							c-0.063,0.438-0.116,0.869-0.145,1.355c-0.049-0.207-0.156-0.02-0.316,0.251c-0.113,0.765,0.257,0.574-0.067,1.555
							c-0.075-0.194-0.206-0.449-0.247-0.835c-0.078,0.91-0.032,1.84-0.202,2.773c-0.227,0.205-0.113-0.611-0.141-0.956
							c-0.183,1.042-0.517,2.695-0.337,3.085l0.259-0.639c-0.082,0.38-0.271,0.135-0.25-0.153c0.016-0.933,0.409-1.251,0.518-1.28
							l-0.104,0.669c0.359-0.27,0.512-0.937,0.598-1.699c0.048-0.771,0.044-1.631,0.182-2.296l0.308,0.633l-0.091-1.436
							c0.16-0.274,0.427-0.44,0.367,0.235c0.372-0.935,0.028-0.874,0.348-1.679c0.047-0.087,0.062-0.043,0.067,0.045l-0.01-0.97
							c0.064,0.198,0.31-0.122,0.181,0.458c0.431-1.692,0.041-2.795,0.381-3.414l0.017,0.146c0.003-2.4-0.291-0.258-0.542-2.063
							l0.825-1.167l-0.292-0.247c0.035-0.246,0.056-0.732,0.178-0.639c-0.202-0.923-0.134,0.153-0.327-0.384
							c0.282-1.182-0.099-3.263,0.372-3.538c-0.24-0.42-0.153,1.136-0.346-0.125c0.509-0.374-0.148-1.458,0.049-2.548
							c0.283,0.319,0.181,1.355,0.379,0.258c-0.241-0.317-0.237-0.845-0.189-1.411c0.029-0.563,0.096-1.165,0.016-1.619
							c-0.383-0.013-0.276-1.977-0.595-3.486c0.115,0.086-0.102-2.897-0.214-4.325l0.066,0.033
							c-0.404-0.222-0.551-1.688-0.782-2.736c0.224,0.006,0.337,0.184,0.52,0.744l-0.154-0.997
							c-0.156-0.216-0.271-0.516-0.423-1.153l0.313,0.205c-0.249-1.321-0.761-2.611-0.917-4.336
							c-0.27-0.046-0.443,1.476-0.953-0.279c0.124-0.092,0.344-0.203,0.488,0.255c-0.047-0.15-0.217-0.526-0.218-0.846l0.365,0.671
							c-0.047-0.79-0.269-0.367-0.364-0.987c0.196-0.025,0.051-0.483,0.222-0.425c0.049,0.154,0.022,0.554,0.144,0.775
							c-0.099-0.702-0.143-1.566-0.052-1.873c-0.098,0.083-0.261,0.052-0.39-0.451c-0.282-1.309,0.142-0.496,0.084-1.282
							c-0.199-0.291-0.23-1.157-0.524-1.119c-0.077-0.385,0.044-0.483,0.092-0.648c-0.266-0.653-0.704-3.159-0.849-2.331
							l0.016,0.178c-0.011-0.032-0.022-0.069-0.036-0.108c0.002,0.005,0,0,0.002,0.005l-0.002-0.005
							c-0.753-2.161-0.818-4.646-1.403-6.822l0.097-0.017c-0.392-1.291-0.658-2.914-1.096-3.807
							c-0.091-0.387-0.039-0.955,0.114-0.814c-0.31-0.99-0.443-1.075-0.628-2.566c0.406,0.97,0.066-0.387,0.367,1.007
							c-0.244-1.323-0.1-1.68-0.778-2.992c0.387,0.405,0.012-1.058-0.247-1.65l0.101,0.955c-0.245-0.679-0.406-1.286-0.571-1.904
							l0.418,0.232c-0.104-0.692-0.288-1.325-0.505-1.917c-0.218-0.592-0.533-1.122-0.796-1.646c-0.542-1.042-1.02-2.007-1.08-3.12
							c-0.474-0.594,0.381,1.465-0.104,0.955c-0.371-1.211-0.52-2.591-0.687-2.957c-0.569-1.665-1.126-1.272-1.778-2.976
							c-0.026,0.275-0.155,0.581-0.911-0.547c-0.577-1.118-0.323-1.594,0.153-0.938c0.158,0.261,0.197,0.407,0.155,0.415
							c0.238,0.337,0.548,0.786,0.415,0.286l-0.186-0.089c-0.201-0.607-1.071-2.132-0.7-1.868c-0.57-0.787-0.37-0.263-0.075,0.389
							c-0.677-1.496-1.18-2.269-2.06-3.704c0.094,0.257,0.113,0.536-0.034,0.315c-1.253-2.127-0.794-0.777-1.765-2.128
							c-0.38-0.889,0.543,0.033-0.52-1.273c-0.531-0.884,0.145-0.379,0.439-0.084c-1.099-1.1-1.671-2.348-2.185-3.074l0.586,0.575
							c-0.351-0.345-0.6-0.657-0.854-0.975l0.108,0.514c-0.268-0.398-0.52-0.714-0.439-0.771c-0.426-0.282-0.066,0.546-0.836-0.07
							c-0.283-0.592-1.409-1.315-1.315-1.699c1.302,1.51,0.08-0.374,1.291,0.814c-0.255-0.211-0.529-0.5-0.831-0.874
							c-0.023-0.075,0.095,0.005,0.199,0.087c-1.126-1.579-0.872-0.394-2.237-1.825c0.3,0.056-0.082-0.571-0.334-0.778
							c0.554,0.581,0.057,0.486-0.543,0.058c-0.804-0.978-1.058-0.862-1.52-1.327l0.499,0.56c-0.307-0.045-0.745-0.49-1.418-1.045
							c0.04-0.152,0.641,0.473,0.456,0.215c-0.917-0.435-1.371-1.732-2.497-2.503c-0.375-0.515,0.185-0.288-0.165-0.72
							c-1.278-0.849-1.051-1.282-2.36-2.212c0.181,0.485,0.278,0.496-0.707-0.084l2.051,1.633l-1.477-0.871
							c0.581,0.532,1.334,1.008,1.656,1.355c-0.724-0.394-0.622-0.382-0.477,0.017c-0.558-0.989-1.725-1.282-2.485-2.299
							l0.423-0.414c-1.204-1.474-2.709-1.978-4.456-3.686l0.528,0.589c-0.4-0.035-1.163-0.957-1.823-1.399
							c0.182-0.103-0.145-0.482-0.325-0.793c-0.062,0.139-1.39-1.13-1.812-0.962l-0.688-0.884c-1.489-1.303-2.076-1-3.567-2.163
							c0.591,0.166-0.021-0.455,1.099,0.173c-0.511-0.376-0.95-0.741-1.04-0.638c-0.227-0.318-1.578-0.823-1.938-1.317
							c-0.267-0.087-0.458,0.029-1.021-0.403c-0.039-0.078,0.06-0.078,0.06-0.078c-0.06,0.078-0.975-0.547-0.6-0.003
							c-0.591-0.849-1.756-1.565-2.881-2.275c-1.128-0.708-2.232-1.387-2.807-2.076c-1.225-0.651-2.72-1.397-3.816-2.007
							c0.099-0.012,0.051-0.084,0.248,0.051c-1.433-0.998-1.177-0.063-2.831-1.134c-0.765-0.715,1.024,0.294,0.513-0.082
							c0.047-0.696-2.193-0.94-3.231-1.85l0.308,0.104c-0.836-0.622-2.337-0.88-3.846-1.527c0,0,0.097-0.022,0.048-0.087
							c-1.173-0.123-3.173-0.869-4.684-1.363c0.554-0.051,0.72,0.144,0.538-0.208c-0.674-0.231,0.036,0.462-1.307,0
							c-0.376-0.301-1.28-0.795-1.305-1.102l1.248,0.485c-0.504-0.587-1.614-0.635-2.246-0.956l0.141-0.111
							c-1.935-0.697-2.104-0.332-4.154-1.147l0.171,0.191c-1.262-0.063-0.865-0.572-2.098-0.705l-0.207-0.494
							c-0.785-0.174-2.749-0.594-4.122-0.981c0.863-0.028,2.479,0.412,3.515,0.593c-0.743-0.269-2.536-0.882-2.989-0.831
							c0.314,0.065,0.722,0.114,0.998,0.276c-1.01-0.046-2.272-0.285-3.758-0.793c0.252-0.318-0.705-0.69-1.839-1.094
							c-1.144-0.377-2.462-0.785-2.924-1.236c-1.371-0.286-2.695-0.68-4.071-1.115c-1.373-0.447-2.799-0.926-4.393-1.27
							c0.98,0.849-0.927-0.206-0.875,0.436c-0.743-0.14-1.021-0.217-1.078-0.271c0,0-0.537-0.221-1.074-0.442
							c-0.542-0.205-1.084-0.41-1.084-0.41c-0.496-0.284,0.734,0.013,0.695-0.135c-1.618-0.381-0.628-0.394-1.675-0.775
							c0.177,0.26-0.63,0.19-1.542-0.083l1.252,0.545c-2.334-0.148-1.866-0.927-4.239-0.993l0.765-0.066
							c-1.205-0.091-4.383-0.756-5.623-0.379c-0.202-0.097-0.458-0.299,0.072-0.275c-2.845-0.491-6.409-0.177-8.608-0.644
							l0.227-0.139c-0.54,0.019-0.949,0.238-1.611,0.058c0.037-0.06,0.223-0.139-0.025-0.159c-0.287,0.039-1.435,0.198-2.141,0.079
							l0.613-0.141c-1.398-0.179-2.48-0.08-3.5,0.068c-1.021,0.139-1.979,0.316-3.149,0.367c-0.001-0.457-2.213-0.488-3.32-0.513
							l0.035-0.063c-0.818,0.027-1.575,0.066-2.292,0.148c-0.717,0.101-1.397,0.216-2.068,0.338
							c-1.335,0.247-2.642,0.489-4.126,0.764c-1.903-0.258-6.278,0.521-9.285,0.641c0.464,0.022-0.031,0.35-0.553,0.459
							c-0.709-0.001-1.887,0.544-1.829,0.13l0.25-0.023c-0.577-0.335-1.997-0.033-3.117,0.123l-0.111,0.549
							c-1.514-0.163-3.424,0.16-5.157,0.524c-1.731,0.383-3.291,0.748-4.149,0.548c-0.679,0.257-1.553,0.393-2.222,0.665
							l-0.017-0.286c-1.953,0.347-2.931,0.522-5.314,1.106l0.444-0.303c-1.361,0.269-1.522,1.157-2.742,1.515l-0.474-0.31
							c-2.318,0.658-4.819,0.837-6.956,2.022c0.019-0.071,0.049-0.21,0.416-0.35c-1.083,0.349-4.28,1.125-3.691,1.54
							c-0.075-0.169-0.676,0.006-1.392,0.329c-0.706,0.352-1.533,0.827-2.105,1.151l0.085-0.336
							c-0.888,0.748-0.882,0.851-2.263,1.522c-0.351,0.104-0.383-0.084,0.092-0.202c-1.178,0.329-0.772,0.592-2.182,1.027
							c0,0,0.43-0.377,0.43-0.377c-1.151,0.474-1.012,0.538-1.549,1.007c-0.661,0.428-2.166,0.92-2.439,0.769
							c-0.087,0.21-0.618,0.675-1.306,0.932c-0.13-0.043,0.085-0.212,0.193-0.296c-1.952,0.734-2.639,1.631-4.042,2.012
							c-0.067-0.069-0.171-0.068-0.289-0.039c1.482-0.728,2.69-1.28,2.585-1.211c-0.111-0.231-1.333,0.309-0.532-0.473
							c-0.886,0.634-2.342,1.817-3.549,2.312c-0.067,0.006-0.133,0.013-0.193-0.001l0.106-0.087
							c-0.279,0.114-0.508,0.258-0.713,0.411c-0.389,0.151-0.639,0.244-0.996,0.422c-0.24-0.127-1.414,0.604-2.001,0.921
							c0.181,0.222-0.605,0.598,0.221,0.412c-0.102,0.033,0.095-0.089,0.478-0.311c0.084-0.055,0.186-0.115,0.235-0.161
							c-0.008,0.013-0.018,0.028-0.028,0.043c0.377-0.221,0.883-0.484,1.457-0.782c-0.401,0.367-0.837,0.715-1.553,0.935
							c-0.215,0.322-0.457,0.665-0.601,0.843c-0.983,0.088-2.628,0.742-2.962,0.649c-1.677,1.168-4.117,2.473-4.903,3.632
							c-0.453,0.365-0.642,0.225-0.869,0.27c0.254-0.223,0.595-0.427,0.708-0.588c-0.906,0.734-2.876,1.866-2.899,2.333
							c-1.293,0.683,0.489-0.746-1.13,0.435l0.16-0.247c-1.79,0.875-3.006,1.949-4.186,3.137c-0.599,0.582-1.209,1.166-1.917,1.73
							c-0.704,0.57-1.466,1.169-2.436,1.711c0.264-0.156,0.394-0.236,0.481-0.228c-4.084,2.904-7.484,7.001-11.043,10.408
							c-1.018,0.973-0.917,1.258-1.304,2.041l-0.422,0.048l-0.628,1.363c-1.103,1.739-2.71,2.461-3.825,4.883l0.362-0.166
							c-0.593,0.736-1.458,2.595-1.593,2.328c-0.018,0.102,0.021,0.374-0.26,0.633l-0.15-0.057c0,0-0.241,0.528-0.481,1.057
							c-0.12,0.264-0.24,0.527-0.33,0.725c-0.092,0.196-0.137,0.336-0.137,0.336c-0.93,1.53-0.417-0.555-1.662,1.757
							c-0.4,0.896-0.875,2.665-0.61,2.386c0.188-0.344,0.552-0.842,0.707-0.797l-0.336,0.819c0.343,0.35,0.466,1.143,1.747-0.604
							l0.438-1.451l0.422-0.319l-0.568,1.116c0.518-0.53,0.56-1.015,0.681-1.525c0.161-0.048,0.331-0.193,0.507-0.432
							c0,0,0.061-0.384,0.162-0.747c0.093-0.369,0.186-0.737,0.186-0.737c0.249-0.059-0.026,0.742,0.568-0.045
							c0.176-0.69-0.693,0.356-0.222-0.685c0.552-0.503,0.59-0.233,0.87-1.044c0.163-0.038,0.136,0.155,0.01,0.465
							c0.271-0.706,0.946-1.728,0.977-2.167c0.641-0.466,1.377-2.108,1.697-1.796c0.048-0.25,0.457-1.281,0.844-1.848
							c-0.347,1.297,1.606-1.996,1.849-1.387c0.098-0.508,0.572-1.197,1.121-1.94c0.587-0.711,1.261-1.466,1.704-2.168
							c-0.033,0.094-0.095,0.279-0.208,0.372c0.64-0.664,0.923-0.769,1.379-1.15c-0.229-0.371,0.719-1.452,1.095-2.173
							c1.067-0.54-0.155,0.811,0.356,0.811c-0.269-0.18,1.152-1.615,0.696-1.53c0.773-0.449,0.605-0.45,1.143-0.533
							c-0.242-0.47,0.529-0.608,0.853-1.312c1.091-0.665,0.549,0.122,1.465-0.912C356.936,85.893,356.151,86.84,356.151,86.84z
							 M382.932,68.099l0.002,0.005c-0.25,0.135-0.463,0.25-0.599,0.324C382.46,68.359,382.632,68.265,382.932,68.099z
							 M385.41,66.856c-0.309,0.138-0.689,0.316-1.087,0.515c-0.129-0.042-0.083-0.183,0.172-0.299
							C384.388,67.197,385.002,66.963,385.41,66.856z M379.27,67.777c0.376-0.237,0.534-0.255,0.614-0.232
							c-0.183,0.101-0.398,0.216-0.673,0.385c-0.008,0.015-0.021,0.04-0.029,0.055C379.194,67.918,379.213,67.851,379.27,67.777z"/>
						<path fill="#FCBA54" d="M378.743,68.484c-0.053,0.036-0.079,0.063-0.151,0.105c0.09-0.024,0.176-0.047,0.262-0.07
							c0.033-0.053,0.066-0.105,0.096-0.153C378.88,68.406,378.808,68.447,378.743,68.484z"/>
						<path fill="#FCBA54" d="M585.438,141.94l-0.007-0.059c-0.001,0.05-0.002,0.096-0.014,0.129
							C585.423,141.969,585.432,141.968,585.438,141.94z"/>
						<polygon fill="#FCBA54" points="421.625,55.396 421.608,55.327 421.381,55.43 						"/>
						<path fill="#FCBA54" d="M587.338,157.164c-0.021,0.033-0.037,0.093-0.042,0.209
							C587.313,157.362,587.326,157.272,587.338,157.164z"/>
						<path fill="#FCBA54" d="M588.134,163.706c0,0,0.002,0.234,0.004,0.468c-0.006,0.234-0.012,0.468-0.012,0.468
							C588.154,164.235,588.146,163.941,588.134,163.706z"/>
						<path fill="#FCBA54" d="M588.398,168.757c0.052,0.061,0.089,0.078,0.124,0.092l0.001-0.01L588.398,168.757z"/>
						<path fill="#FCBA54" d="M561.808,95.008c-0.051-0.046-0.103-0.089-0.151-0.125C561.284,94.607,561.526,94.806,561.808,95.008z
							"/>
						<path fill="#FCBA54" d="M576.355,113.68c-0.153-0.208-0.303-0.413-0.442-0.639
							C576.072,113.437,576.206,113.738,576.355,113.68z"/>
						<path fill="#FCBA54" d="M541.278,77.927c0.003,0,0.001-0.002,0.005-0.002c-0.046-0.034-0.086-0.063-0.132-0.097
							L541.278,77.927z"/>
						<path fill="#FCBA54" d="M575.428,112.043c0.17,0.39,0.303,0.72,0.485,0.999C575.777,112.719,575.649,112.323,575.428,112.043z
							"/>
						<path fill="#FCBA54" d="M586.396,190.386l-0.07,0.231c0.019,0.001,0.03,0.019,0.036,0.039L586.396,190.386z"/>
						<path fill="#FCBA54" d="M586.361,190.656l-0.032,0.27C586.358,190.806,586.383,190.702,586.361,190.656z"/>
						<path fill="#FCBA54" d="M586.26,191.493l0.069-0.567C586.28,191.115,586.213,191.347,586.26,191.493z"/>
						<path fill="#FCBA54" d="M587.834,183.894l-0.092-0.09C587.758,183.848,587.787,183.879,587.834,183.894z"/>
						<path fill="#FCBA54" d="M588.042,181.88c-0.08,0.478-0.358,1.175-0.373,1.85l0.073,0.074
							C587.629,183.471,588.158,182.357,588.042,181.88z"/>
						<path fill="#FCBA54" d="M589.759,173.44l-0.094,1.724c0.111-0.299,0.26-0.695,0.28,0.092
							C590.285,173.08,589.699,175.701,589.759,173.44z"/>
						<path fill="#FCBA54" d="M589.762,168.084c0.089,0.925,0.157-0.02,0.221,0.025C589.838,167.528,589.8,167.389,589.762,168.084z
							"/>
						<path fill="#FCBA54" d="M583.137,130.15l0.271,0.035C583.207,129.495,583.31,130.201,583.137,130.15z"/>
						<polygon fill="#FCBA54" points="579.944,123.409 579.992,124.112 580.311,124.355 						"/>
						<polygon fill="#FCBA54" points="580.215,118.701 580.361,118.983 579.848,117.892 						"/>
						<path fill="#FCBA54" d="M536.495,71.679l0.013,0.384C536.943,72.279,537.221,72.037,536.495,71.679z"/>
						<path fill="#FCBA54" d="M510.991,60.107c-0.229-0.253-0.927-0.637-1.438-0.654C510.138,59.687,510.677,60.033,510.991,60.107z
							"/>
						<polygon fill="#FCBA54" points="428.516,51.727 429.058,51.542 428.021,51.781 						"/>
					</g>
				</g>
			</g>
		</g>
	</g>
	<g>
		<g>
			<g>
				<g>
					<g>
						<path fill="#FCBA54" d="M345.842,318.944c0.151-0.013,0.189-0.211-0.132-0.37l-0.392,0.144L345.842,318.944z"/>
						<path fill="#FCBA54" d="M344.191,317.185c-0.457-0.016-0.903,0.108-0.79,0.481c0.41-0.163,0.441-0.054,0.974-0.162
							c0.31,0.131,0.444,0.39,0.33,0.463c0.148-0.004,0.398,0.354,0.67,0.283c-0.226-0.463-0.708-0.792-1.306-0.881
							C343.991,317.261,344.138,317.223,344.191,317.185z"/>
						<path fill="#FCBA54" d="M337.219,291.141l-0.109,0.194C337.15,291.285,337.186,291.219,337.219,291.141z"/>
						<path fill="#FCBA54" d="M324.66,278.436c0.135,0.07,0.206,0.075,0.229,0.053C324.757,278.436,324.647,278.394,324.66,278.436z
							"/>
						<path fill="#FCBA54" d="M322.43,275.979c0.042,0.056,0.077,0.103,0.114,0.154C322.517,276.06,322.479,275.996,322.43,275.979z
							"/>
						<path fill="#FCBA54" d="M337.219,291.141l0.259-0.518C337.384,290.555,337.322,290.883,337.219,291.141z"/>
						<path fill="#FCBA54" d="M339.518,316.399c0.119,0.026,0.223,0.032,0.323,0.027l-0.286-0.069
							C339.543,316.372,339.533,316.385,339.518,316.399z"/>
						<path fill="#FCBA54" d="M334.243,299.862l-0.06,0.155c0.018,0.059,0.044,0.117,0.077,0.175L334.243,299.862z"/>
						<path fill="#FCBA54" d="M332.913,306.453c0.018-0.148-0.261-0.198-0.382-0.258c0.115,0.087,0.16,0.199,0.185,0.331
							C332.771,306.526,332.828,306.506,332.913,306.453z"/>
						<path fill="#FCBA54" d="M338.521,314.706l0.195,0.046C338.666,314.739,338.581,314.72,338.521,314.706z"/>
						<path fill="#FCBA54" d="M336.152,295.194c0.044,0.003,0.087-0.008,0.118-0.025
							C336.237,295.157,336.197,295.169,336.152,295.194z"/>
						<path fill="#FCBA54" d="M331.298,116.353c0.015,0.015,0.03,0.014,0.044,0.024
							C331.337,116.327,331.326,116.306,331.298,116.353z"/>
						<path fill="#FCBA54" d="M336.667,110.003l-0.046,0.105c0.04,0.038,0.078,0.076,0.122,0.103L336.667,110.003z"/>
						<path fill="#FCBA54" d="M320.43,270.521c0,0.012,0,0.016,0,0.026C320.492,270.693,320.469,270.608,320.43,270.521z"/>
						<path fill="#FCBA54" d="M329.945,214.975c0.078,0.714-0.78-0.833-0.574,0.198
							C329.428,215.041,330.176,215.796,329.945,214.975z"/>
						<path fill="#FCBA54" d="M339.357,316.294l-0.274-0.121C339.204,316.237,339.288,316.274,339.357,316.294z"/>
						<path fill="#FCBA54" d="M329.372,215.173l-0.002,0.001l0.023,0.105C329.384,215.236,329.379,215.211,329.372,215.173z"/>
						<path fill="#FCBA54" d="M323.678,256.888c-0.058,0.009-0.116,0.048-0.174,0.091
							C323.532,256.987,323.578,256.969,323.678,256.888z"/>
						<path fill="#FCBA54" d="M319.771,266.988l0.077-0.258C319.806,266.832,319.785,266.915,319.771,266.988z"/>
						<path fill="#FCBA54" d="M325.617,251.389c0.08-0.129,0.135-0.16,0.182-0.363c-0.02,0.012-0.037,0.025-0.056,0.043
							C325.749,251.153,325.726,251.25,325.617,251.389z"/>
						<path fill="#FCBA54" d="M328.169,245.988c-0.033,0.018-0.066,0.047-0.1,0.071c-0.023,0.055-0.049,0.119-0.073,0.175
							L328.169,245.988z"/>
						<path fill="#FCBA54" d="M323.362,133.096c0.124-0.096,0.235-0.142,0.34-0.171C323.481,132.94,323.746,132.079,323.362,133.096
							z"/>
						<path fill="#FCBA54" d="M339.574,316.252c-0.061,0.052-0.124,0.069-0.217,0.042c0.066,0.028,0.132,0.046,0.197,0.063
							C339.587,316.325,339.606,316.29,339.574,316.252z"/>
						<path fill="#FCBA54" d="M323.682,250.278l0.423-0.872C323.973,249.644,323.819,249.961,323.682,250.278z"/>
						<path fill="#FCBA54" d="M319.959,176.238l-0.061-0.212C319.902,176.109,319.92,176.185,319.959,176.238z"/>
						<path fill="#FCBA54" d="M325.284,246.758c0.169-0.113,0.306-0.253,0.428-0.408c-0.001-0.046,0.004-0.095-0.013-0.134
							L325.284,246.758z"/>
						<path fill="#FCBA54" d="M323.706,132.924l-0.003,0L323.706,132.924z"/>
						<path fill="#FCBA54" d="M325.59,126.77c-0.383,0.846,0.152,0.549,0.266,0.817c-0.35,1.051-0.454,0.355-0.779,0.622
							c-0.19,0.672-0.093,1.291-0.313,1.754c-0.071,0.011-0.132,0.094-0.155-0.043c-0.044,0.771-0.798,2.015-0.778,2.934
							c-0.054,0.047-0.094,0.065-0.126,0.07c0.223-0.061,0.406-0.011,0.52,0.063c-0.146,0.386-0.063,0.794-0.346,0.852
							c0.1-0.232,0.016-0.287-0.01-0.424l-0.062,0.439c-0.468,0.239,0.105-0.591-0.134-0.684c-0.22,0.823-0.283,1.846-0.578,2.426
							c-0.365,0.014,0.389-1.47-0.179-0.755c0,0,0.113-0.226,0.226-0.452c0.121-0.223,0.241-0.445,0.241-0.445
							c-0.784,0.525,0.26-0.555-0.536-0.1c-0.553,1.212-0.331,1.459-0.864,2.675c0.082,0.342,0.297-0.003,0.378,0.338
							c-0.297,1.868-1.273,1.144-1.245,2.603c0.116,0.41,0.49,0.66-0.005,1.538l-0.275-0.425c-0.393,1.226,0.304,0.841-0.256,2.081
							c-0.091-0.269,0.111-1.013,0.021-0.835c-0.496,0.772,0.068,0.655-0.087,1.304l-0.362,0.054
							c-0.133,0.673-0.227,1.39-0.323,2.122c-0.085,0.735-0.123,1.497-0.232,2.244c-0.085-0.1-0.144-0.375-0.309-0.044
							c-0.224,1.903-0.626,4.032-1.059,5.856l0.25,0.73c-0.013,0.164-0.149,0.294-0.196,0.112c-0.152,0.713,0.183,0.051,0.279,0.405
							c-0.002,0.409-0.199,0.529-0.272,0.264c0.088,0.644,0.171,1.553,0.184,2.463c0.054,0.913,0.066,1.829-0.09,2.499l-0.089-0.26
							c-0.107,1.047,0.603,1.161,0.353,2.129l-0.062-0.182c0.025,2.26,0.453,4.712,0.31,6.47c0.461,0.26,0.127,2.251,0.721,2.288
							c-0.132,1.297-0.281,0.957-0.256,2.736c0.032,0.471,0.452,0.647,0.586,1.22l-0.304,0.054l0.42,0.747l-0.314,0.462l0.147,0.534
							c-0.009-0.218,0.08-0.475,0.172-0.453c0.245,0.836,0.046,2.094-0.108,2.127c0,0,0.134,0.493,0.223,0.999
							c0.1,0.503,0.199,1.006,0.199,1.006c-0.126-0.035-0.192-0.372-0.289-0.634c0.387,1.059-0.311,0.224,0.045,1.194
							c0.061-0.139,0.188,0.057,0.251,0.075c-0.152,0.511-0.077,1.638,0.059,2.467l-0.223-0.145
							c0.047,1.515,0.323,3.158,0.426,4.872c0.06-0.618,0.436-0.499,0.503-0.001l-0.313,0.22c0.222,0.311,0.09-0.529,0.378,0.118
							c0.003,0.639-0.342,0.452-0.471,0.092l0.163,0.768c-0.094,0.052-0.157-0.126-0.284-0.166c0.223,0.305-0.24,1.359,0.14,1.795
							l-0.094,0.05c0.107,1.707,0.269,2.472,0.374,3.86c0.274,0.004,0.268,0.554,0.544,0.949c0.025,1.028-0.067,2.187,0.096,3.419
							c0.236,0.85,0.265,0.225,0.475,0.594c-0.247,0.094-0.084,1.323-0.339,0.708c0.104,0.738,0.17,1.209,0.262,1.726
							c0.093,0.516,0.183,1.071,0.514,2.038c0.059-0.234,0.056-0.477,0.166-0.373c0.113,0.338,0.06,0.817-0.069,0.799l-0.045-0.087
							c0.862,2.031,1.153,5.036,2.395,6.284l-0.066-0.071l1.028,1.402c0.301,0.719-0.378-0.333-0.266,0.254
							c1.157,1.411,1.203,2.718,2.155,3.942c-0.139,1.417,1.996,3.732,2.215,5.358l0.122-0.158c0.335,0.292,0.124,0.487,0.205,0.774
							c0.108-0.096-0.032-0.466,0.157-0.278c0.815,1.513,1.402,3.18,1.773,4.866c0.326,1.695,0.374,3.386,0.245,4.982
							c-0.093,0.578,0.119,0.765,0.276,0.998c0.137,0.225,0.319,0.523-0.102,1.224l-0.219-0.483
							c-0.061,0.597-0.124,1.215-0.296,1.809c-0.216,0.582-0.417,1.174-0.684,1.74c-0.307,0.551-0.611,1.1-0.891,1.657
							c-0.339,0.53-0.671,1.059-0.954,1.618c0.022-0.167-0.056-0.228,0.082-0.424c-0.255,0.154-0.497,0.507-0.733,0.928
							c-0.226,0.409-0.364,0.789-0.287,0.85c-0.261,0.332-0.201-0.023-0.433,0.134c-0.464,0.391-0.569,1.356-0.907,1.497
							c-0.06,0.024,0.016-0.179,0.054-0.279c-0.092,0.382-0.912,1.481-0.49,1.313c-0.655,0.796-0.795,1.747-1.32,2.375
							c0.024,0.594-0.873,1.471-0.547,1.805c-0.38-0.256-1.067,1.427-1.104,2.083c-0.042-0.246-0.345,0.439-0.421,0.14
							c-0.277,0.655-0.458,1.285-0.195,1.262c-1.008,0.979-0.617,2.578-1.548,2.961c-0.587,2.038-1.286,3.717-1.974,5.592
							c-0.386-0.249,0.839-1.989,0.375-2.087c-0.289,0.828-0.468,1.611-0.663,2.301c-0.203,0.705-0.332,1.429-0.697,2.275
							c-0.215,0.433-0.099-0.313-0.119-0.492c-0.243,0.903-0.398,1.803-0.633,2.651c-0.108,0.879-0.312,1.724-0.191,2.576
							c-0.042-0.007-0.08-0.191-0.107-0.367c0,0.333-0.098,0.772,0.108,0.742l-0.042-0.325c0.321-0.496,0.561,1.32,0.734,1.359
							c-0.628-0.539-0.029,1.624-0.834,0.795c0.055,0.219,0.172,0.484,0.305,0.42c-0.016,0.325-0.086,0.441-0.267,0.126
							c0.233,1.185,0.444,0.718,0.626,1.776c-0.098,0.019-0.178-0.186-0.314-0.273c0.155,0.25,0.285,0.501,0.434,0.791
							c0.162,0.287,0.304,0.62,0.411,1.064c-0.074-0.031-0.112,0.097-0.2-0.163c0.558,1.503,1.545,2.203,2.411,3.636
							c-0.677-0.094,0.287,0.516,0.078,0.837l0.727,0.608l-0.133-0.403c0.567,0.592,1.331,0.77,1.783,1.304l-0.56-0.245
							c0,0,0.077,0.056,0.192,0.139c0.117,0.081,0.263,0.203,0.435,0.284c0.332,0.178,0.665,0.356,0.665,0.356l-0.65-0.553
							c0.792,0.249,0.189-0.437,1.02,0.18c-0.188-0.093,0.636,0.44,0.935,0.759h-0.002c0.408,0.047,0.813,0.086,1.306,0.399
							c0.097,0.171-0.257,0.339-0.195,0.452c0.46-0.135,1.804,0.462,2.344,0.281c-0.172,0.036-0.227,0.221-0.185,0.275
							c-0.001,0.01,0.37-0.181,0.37-0.181c0.336,0.144,0.382,0.191,0.292,0.334c1.067,0.239-0.249-0.525,0.98-0.098
							c-0.103,0.003-0.061,0.049-0.275,0.05c0.643,0.171,1.246,0.235,1.811,0.287c0.567,0.078,1.136,0.17,1.623,0.434
							c0.17,0.451-0.921-0.223-0.672,0.198c0.727,0.201,1.496,0.386,2.149,0.778c0.646,0.386,1.169,0.986,1.369,1.687l-0.056-0.269
							c0.267-0.009,0.345,0.284,0.323,0.65c-0.003,0.365-0.094,0.779,0.062,1.149c-0.059-0.185-0.318-0.217-0.254-0.174
							c-0.014,0.982,0.095,2.088-0.192,3.727l-0.075-0.231c-0.271,0.577-0.578,1.591-0.867,2.233
							c0.061,0.24-0.091,0.612,0.176,0.446c-1.393,1.79-1.078,4.016-2.373,5.585c0.083-0.223,0.093-0.561,0.024-0.392l-0.488,1.607
							c0.264-0.043,0.21-0.156,0.504-0.418c0.053,0.246-0.019,0.717-0.161,1.099c0.123-0.744-0.364-0.126-0.573,0.151
							c0.083-0.029,0.124,0.103,0.2,0.099c-0.656,0.705,0.398,0.281-0.224,1.324l-0.098-0.094c-0.07,0.443,0.011,0.884-0.139,1.336
							c-0.307,0.136-0.013-0.486-0.219-0.568c-0.071,0.333-0.025,0.687-0.01,1.019c0.031,0.337,0.051,0.654-0.127,0.937
							c-0.029-0.292,0.016-0.705,0.003-1c-0.423,0.603-0.344,0.706-0.469,1.196l0.014-0.048c0,0-0.085,0.283-0.144,0.575
							c-0.046,0.296-0.093,0.592-0.093,0.592l0.096-0.299c0.345,0.458,0.321,0.881,0.365,1.354c0.07,0.464,0.008,1.001,0.4,1.504
							c-0.648-1.013-0.296-0.138-0.606-0.16c-0.013,0.313,0.008,0.801-0.106,0.689c0.342,0.497,0.11,1.011,0.754,1.635
							c-0.096,0.088,0.291,0.547,0.009,0.553c0.467,0.619,0.052-0.241,0.196-0.239c0.442,0.412,0.682,1.039,1.127,1.638
							c0.106,0.153,0.215,0.311,0.325,0.469c0.13,0.14,0.268,0.276,0.414,0.408c0.301,0.25,0.604,0.532,1.013,0.652
							c1.231,0.663,1.632,0.459,2.772,0.914c0.303,0.323-0.463,0.163-0.46,0.149c0.526,0.46,1.026,0.612,1.645,0.783
							c-0.151,0.025-0.059,0.146,0.079,0.328c0.488,0.169,0.452-0.207,1.029,0.164c-0.146,0.062-0.348,0.173-0.622,0.188
							c0.606,0.122,1.223,0.182,1.842,0.282c0.105,0.209-0.441,0.14-0.684,0.157c0.691,0.168,1.787,0.4,2.066,0.212l-0.399-0.224
							c0.246,0.063,0.059,0.26-0.136,0.252c-0.637,0.024-0.799-0.344-0.799-0.447l0.441,0.071c-0.261-0.652-1.698-0.484-2.532-0.833
							l0.5-0.257c0,0-0.243-0.001-0.487-0.002c-0.241-0.014-0.482-0.028-0.482-0.028c-0.135-0.18-0.157-0.445,0.262-0.324
							c-0.487-0.445-0.57-0.095-0.963-0.524c-0.038-0.057-0.005-0.063,0.052-0.056c0,0-0.152-0.037-0.304-0.073
							c-0.147-0.048-0.294-0.095-0.294-0.095c0.145-0.019,0.049-0.309,0.345-0.074c-0.417-0.371-0.83-0.513-1.175-0.626
							c-0.341-0.116-0.583-0.242-0.664-0.482l0.088,0.03c-1.299-0.765-0.318,0.212-1.431-0.254c0,0-0.021-0.271-0.041-0.542
							c-0.01-0.262-0.02-0.523-0.02-0.523l-0.325,0.118c-0.1-0.12-0.274-0.373-0.148-0.41c-0.526-0.3-0.035,0.164-0.401,0.036
							c-0.069-0.189-0.192-0.376-0.335-0.559c-0.124-0.196-0.251-0.399-0.37-0.588c-0.117-0.188-0.226-0.362-0.272-0.517
							c-0.029-0.162-0.013-0.294,0.083-0.382c-0.314-0.153,0.11,0.737-0.342,0.063c0.195-0.213,0.091-0.407-0.073-0.652
							c-0.172-0.239-0.307-0.569-0.281-0.925c0.313,0.146,0.317,0.779,0.398,0.081c-0.585-0.286-0.109-1.282-0.242-1.806
							c-0.189-0.006-0.21-0.316-0.205-0.744c0.008-0.213,0.016-0.455,0.025-0.704c0.033-0.249,0.061-0.505,0.065-0.748
							c0.067,0.04,0.146-0.406,0.325-0.954c0.194-0.546,0.368-1.211,0.583-1.616l0.051,0.042c-0.292-0.266,0.033-1.145,0.201-1.809
							c0.204,0.102,0.221,0.241,0.209,0.621c0,0,0.042-0.152,0.1-0.3c0.057-0.148,0.114-0.297,0.114-0.297
							c-0.056-0.181-0.042-0.388,0.068-0.79l0.198,0.249c0.283-0.785,0.33-1.728,0.912-2.695c-0.215-0.15-0.989,0.557-0.714-0.596
							c0.145,0.011,0.381,0.057,0.32,0.363c0.021-0.101,0.026-0.376,0.156-0.543l0.042,0.522c0.283-0.435-0.083-0.318,0.087-0.687
							c0.181,0.079,0.242-0.228,0.367-0.117c-0.021,0.104-0.208,0.299-0.193,0.472c0.203-0.412,0.517-0.885,0.724-1.002
							c-0.121-0.004-0.246-0.094-0.151-0.417c0.271-0.826,0.32-0.198,0.582-0.645c-0.06-0.247,0.256-0.726-0.018-0.837
							c0.084-0.24,0.23-0.239,0.338-0.307c0.024-0.47,0.653-2.005,0.188-1.62l-0.057,0.103c0.003-0.021,0.007-0.046,0.012-0.073
							c-0.001,0.004,0,0-0.001,0.004l0.001-0.004c0.186-1.469,1.012-2.954,0.866-4.524l0.099,0.001
							c-0.104-0.914-0.362-2.079-0.883-2.56c-0.123-0.235-0.172-0.655-0.014-0.621c-0.526-0.541-0.611-0.547-1.349-1.305
							c0.697,0.301-0.09-0.317,0.672,0.379c-0.668-0.701-0.839-0.951-1.859-1.155c0.426-0.102-0.548-0.56-1.001-0.604
							c0.005-0.018,0.565,0.379,0.565,0.379c-0.473-0.141-0.883-0.262-1.302-0.387l0.308-0.266c-0.445-0.233-0.892-0.29-1.323-0.331
							c-0.448-0.035-0.767-0.022-1.144-0.018c-0.72,0.017-1.417,0.005-1.925-0.53c-0.49,0.097,0.83,0.417,0.382,0.568
							c-0.747-0.278-1.375-0.931-1.581-1.032c-0.438-0.292-0.701-0.273-0.985-0.255c-0.275,0.009-0.6,0.068-1.032-0.288
							c0.06,0.174,0.038,0.529-0.756,0.186c-0.67-0.451-0.55-0.904-0.083-0.739c0.163,0.085,0.219,0.162,0.191,0.192
							c0.237,0.091,0.539,0.211,0.347-0.053l-0.146,0.051c-0.125-0.156-0.434-0.333-0.624-0.538
							c-0.192-0.202-0.316-0.359-0.164-0.362c-0.504-0.259-0.31,0.001-0.016,0.316c-0.325-0.372-0.614-0.604-0.916-0.835
							c-0.265-0.266-0.531-0.541-0.826-0.934c0.057,0.155,0.054,0.355-0.054,0.239c-0.233-0.282-0.365-0.459-0.45-0.576
							c-0.094-0.109-0.159-0.143-0.221-0.161c-0.125-0.037-0.235-0.011-0.549-0.414c-0.089-0.285,0.034-0.297,0.088-0.335
							c0.053-0.038,0.029-0.088-0.252-0.502c-0.165-0.601,0.224-0.256,0.411-0.098c-0.292-0.34-0.461-0.724-0.542-1.082
							c-0.049-0.374-0.05-0.705-0.11-0.944l0.237,0.399c-0.14-0.237-0.211-0.45-0.285-0.664l-0.142,0.317
							c-0.048-0.27-0.125-0.487-0.025-0.508c-0.205-0.241-0.338,0.322-0.656-0.195c0.048-0.396-0.362-1.117-0.063-1.291
							c0.115,1.171,0.285-0.169,0.525,0.779c-0.073-0.176-0.117-0.401-0.131-0.676c0.026-0.045,0.072,0.028,0.105,0.098
							c0.146-1.116-0.403-0.456-0.497-1.625c0.186,0.141,0.313-0.274,0.298-0.462c-0.024,0.464-0.306,0.231-0.423-0.211
							c0.17-0.754-0.071-0.833-0.037-1.234l-0.083,0.454c-0.178-0.168-0.139-0.556-0.099-1.101c0.144-0.027,0.022,0.5,0.111,0.315
							c-0.2-0.64,0.465-1.296,0.496-2.134c0.21-0.347,0.333,0.041,0.494-0.265c-0.014-0.96,0.488-0.891,0.624-1.861
							c-0.316,0.184-0.28,0.256-0.271-0.479c0,0-0.093,0.396-0.187,0.793c-0.047,0.197-0.093,0.394-0.128,0.542
							c-0.039,0.146-0.049,0.248-0.049,0.248s-0.01-0.271-0.004-0.542c0.003-0.274,0.007-0.548,0.007-0.548
							c-0.166,0.467-0.209,1.024-0.3,1.301c-0.068-0.535-0.022-0.473-0.27-0.297c0.533-0.542,0.238-1.345,0.718-2.013l0.542,0.238
							c0.703-0.959,0.534-1.987,1.363-3.384l-0.31,0.418c-0.122-0.293,0.388-0.9,0.52-1.404c0.162,0.125,0.361-0.137,0.558-0.287
							c-0.145-0.035,0.476-1.055,0.172-1.344l0.521-0.542c0.599-1.125,0.05-1.552,0.589-2.646c0.054,0.422,0.399-0.033,0.221,0.778
							c0.161-0.374,0.337-0.696,0.214-0.755c0.208-0.167,0.202-1.134,0.522-1.401c-0.012-0.191-0.179-0.326,0.017-0.736
							c0.056-0.029,0.088,0.041,0.088,0.041c-0.091-0.042,0.165-0.705-0.196-0.431c0.542-0.442,0.896-1.231,1.231-2.012
							c0.349-0.771,0.711-1.517,1.186-1.872c0.332-0.813,0.851-1.724,1.229-2.421c0.024,0.075,0.082,0.055-0.011,0.172
							c0.724-0.823-0.104-0.868,0.774-1.784c0.624-0.332-0.239,0.64,0.087,0.386c0.624,0.243,0.775-1.254,1.603-1.783l-0.091,0.198
							c0.57-0.436,0.767-1.472,1.289-2.438c0,0,0.025,0.075,0.083,0.052c0.017-0.421,0.231-0.918,0.353-1.498
							c0.137-0.571,0.312-1.16,0.456-1.659c0.125,0.381-0.045,0.488,0.272,0.382c0.116-0.46-0.392,0.01-0.233-0.911
							c0.206-0.253,0.487-0.884,0.779-0.92l-0.202,0.884c0.442-0.369,0.308-1.142,0.405-1.603l0.147,0.085
							c0.096-1.414-0.221-1.452-0.235-2.919l-0.116,0.154c-0.404-0.777,0.236-0.686-0.158-1.452l0.362-0.285
							c-0.091-0.258-0.209-0.716-0.413-1.198c-0.204-0.483-0.415-1.008-0.554-1.453c0.378,0.443,0.839,1.479,1.066,2.158
							c-0.02-0.543-0.396-1.766-0.626-1.988c0.084,0.197,0.237,0.437,0.224,0.655c-0.226-0.281-0.409-0.618-0.59-1
							c-0.198-0.377-0.371-0.808-0.521-1.298c0.826-0.094-0.75-2.58-0.539-3.48c-1.002-1.548-1.457-3.309-2.45-5.14
							c-0.192,0.929-0.293-0.533-0.779-0.141c-0.256-0.414-0.327-0.583-0.312-0.64l-0.328-1.47c0.009-0.388,0.32,0.351,0.428,0.25
							c-0.421-0.962,0.041-0.509-0.11-1.2c-0.137,0.222-0.438-0.192-0.617-0.763l0.104,0.875c-0.919-1.166-0.084-1.399-1.051-2.617
							l0.39,0.342c-0.456-0.659-1.304-2.541-2.056-2.976c0.004-0.151,0.077-0.38,0.263-0.104c-0.364-0.818-0.871-1.65-1.285-2.477
							c-0.208-0.412-0.357-0.828-0.497-1.22c-0.121-0.395-0.159-0.776-0.158-1.111l0.173,0.098
							c-0.114-0.289-0.387-0.496-0.278-0.947c0.063,0.012,0.163,0.113,0.154-0.044c-0.071-0.17-0.36-0.858-0.324-1.317l0.209,0.358
							c-0.003-1.784-0.71-2.651-0.979-4.127c0.438-0.042,0.424-1.441,0.417-2.137l0.065,0.019c-0.11-2.069-0.599-3.494-0.902-5.405
							c0.402-1.222-0.06-4.054,0.071-6.012c-0.06,0.301-0.346-0.024-0.413-0.365c0.058-0.459-0.39-1.229,0.018-1.188l0.003,0.162
							c0.372-0.37,0.203-1.295,0.164-2.024l-0.534-0.077c0.159-0.491,0.199-1.047,0.18-1.621c-0.031-0.575-0.158-1.169-0.265-1.735
							c-0.223-1.132-0.441-2.148-0.166-2.713c-0.189-0.443-0.259-1.013-0.446-1.449l0.283-0.017
							c-0.093-1.271-0.126-1.967-0.408-3.462l0.243,0.278c-0.101-0.857-0.958-0.962-1.086-1.763l0.385-0.294
							c-0.264-1.504,0.073-3.064-0.439-4.531c0.063,0.021,0.189,0.059,0.224,0.302c-0.083-0.712,0.179-2.755-0.392-2.487
							c0.378-0.025,0.025-1.563-0.148-2.391l0.279,0.133c-0.371-0.699-0.43-0.726-0.485-1.701c0.049-0.229,0.234-0.191,0.146,0.111
							c0.189-0.758-0.23-0.611-0.029-1.533l0.158,0.358c0.066-0.786-0.033-0.729-0.215-1.181c-0.108-0.509,0.231-1.489,0.484-1.577
							c-0.14-0.121-0.293-0.575-0.166-1.03c0.102-0.051,0.141,0.125,0.159,0.213c0.344-1.284-0.104-2,0.346-2.852
							c0.095-0.003,0.15-0.054,0.191-0.124c-0.212,1.027-0.311,1.864-0.321,1.783c0.255,0.034,0.398-0.793,0.671-0.08
							c-0.136-0.695-0.3-1.899-0.049-2.692c0.032-0.035,0.063-0.069,0.106-0.091l0.014,0.089c0.059-0.182,0.065-0.354,0.051-0.519
							c0.088-0.25,0.148-0.408,0.196-0.655c0.212-0.056,0.3-0.923,0.417-1.328c-0.283-0.027-0.11-0.555-0.457-0.102
							c0.035-0.061,0.014,0.085-0.039,0.36c-0.007,0.063-0.02,0.137-0.014,0.181l-0.018-0.033c-0.063,0.27-0.124,0.626-0.188,1.032
							c-0.082-0.356-0.144-0.727,0.125-1.147c-0.126-0.249-0.252-0.523-0.306-0.674c0.518-0.481,0.981-1.512,1.251-1.603
							c0.119-1.296,0.729-2.937,0.433-3.878c0.039-0.374,0.264-0.362,0.382-0.468c-0.009,0.22-0.088,0.459-0.048,0.591
							c0.054-0.751,0.624-2.083,0.33-2.369c0.461-0.824,0.15,0.602,0.511-0.622l0.05,0.2c0.344-0.542,0.543-1.071,0.674-1.6
							c0.148-0.523,0.238-1.042,0.331-1.571c0.197-1.053,0.386-2.163,1.316-3.279c-0.12,0.158-0.179,0.238-0.252,0.25
							c1.559-2.775,2.441-6.101,4.388-8.633c0.509-0.739,0.334-0.94,0.443-1.501l0.359-0.026l0.145-0.982
							c0.422-1.282,1.739-1.647,2.169-3.327l-0.285,0.086c0.335-0.501,0.854-1.709,1.004-1.504
							c-0.001-0.072-0.083-0.278,0.126-0.427l0.145,0.064l0.523-1.408c0.689-0.923,0.446,0.475,1.334-0.939
							c0.268-0.562,0.52-1.753,0.309-1.609c-0.136,0.211-0.415,0.498-0.56,0.432l0.224-0.53c-0.344-0.331-0.523-0.958-1.525,0.076
							l-0.261,0.984l-0.356,0.153l0.413-0.712c-0.423,0.29-0.415,0.641-0.475,0.991c-0.144,0.005-0.286,0.08-0.425,0.223
							l-0.114,1.05c-0.216,0.007-0.089-0.554-0.507-0.052c-0.048,0.495,0.568-0.165,0.312,0.548
							c-0.417,0.297-0.498,0.092-0.618,0.659c-0.142,0.006-0.149-0.133-0.086-0.348c-0.122,0.496-0.598,1.151-0.51,1.493
							c-0.471,0.292-0.772,1.46-1.126,1.204c0.017,0.188-0.116,0.925-0.318,1.328c-0.063-0.976-0.841,1.458-1.232,0.997
							c0.11,0.753-0.859,2.04-1.122,3.121c-0.005-0.071-0.019-0.211,0.047-0.285c-0.315,0.521-0.524,0.612-0.784,0.918
							c0.313,0.248-0.049,1.124-0.045,1.694c-0.663,0.502-0.215-0.611-0.642-0.563c0.3,0.108-0.28,1.309,0.068,1.196
							c-0.458,0.411-0.315,0.393-0.736,0.516c0.398,0.302-0.157,0.515-0.09,1.069c-0.572,0.643-0.521-0.009-0.756,0.883
							C325.42,127.583,325.59,126.77,325.59,126.77z M319.691,147.561l-0.006-0.001c0.026-0.184,0.049-0.341,0.063-0.442
							C319.736,147.21,319.72,147.338,319.691,147.561z M319.374,149.349c0.05-0.216,0.101-0.486,0.15-0.773
							c0.107-0.047,0.193,0.037,0.156,0.215C319.634,148.683,319.503,149.094,319.374,149.349z M321.962,145.971
							c-0.015,0.282-0.083,0.363-0.146,0.389c0.016-0.131,0.035-0.285,0.06-0.487c-0.007-0.011-0.019-0.027-0.026-0.039
							C321.896,145.871,321.938,145.911,321.962,145.971z"/>
						<path fill="#FCBA54" d="M321.719,145.403c0.003-0.041-0.003-0.065,0.007-0.117c-0.038,0.05-0.071,0.099-0.101,0.149
							c0.021,0.04,0.043,0.079,0.063,0.116C321.698,145.501,321.709,145.45,321.719,145.403z"/>
						<path fill="#FCBA54" d="M337.091,291.369l0.019-0.034c-0.021,0.027-0.041,0.051-0.064,0.063
							C337.067,291.379,337.075,291.382,337.091,291.369z"/>
						<polygon fill="#FCBA54" points="319.576,174.294 319.646,174.283 319.565,174.137 						"/>
						<path fill="#FCBA54" d="M332.716,300.329c-0.029,0.011-0.065,0.038-0.108,0.104
							C332.627,300.433,332.669,300.387,332.716,300.329z"/>
						<path fill="#FCBA54" d="M331.635,304.577c0,0.001-0.188,0.612-0.17,0.618C331.523,304.921,331.604,304.734,331.635,304.577z"
							/>
						<path fill="#FCBA54" d="M331.532,308.049c0.059,0.035,0.098,0.041,0.134,0.047l0-0.007L331.532,308.049z"/>
						<path fill="#FCBA54" d="M317.887,267.051c0-0.047-0.001-0.093-0.007-0.136C317.854,266.596,317.848,266.811,317.887,267.051z"
							/>
						<path fill="#FCBA54" d="M325.748,280.267c-0.175-0.028-0.361-0.029-0.526-0.101
							C325.462,280.328,325.674,280.402,325.748,280.267z"/>
						<polygon fill="#FCBA54" points="323.635,250.374 323.639,250.377 323.682,250.278 						"/>
						<path fill="#FCBA54" d="M324.578,279.777c0.219,0.196,0.434,0.31,0.645,0.389
							C325.027,280.029,324.804,279.862,324.578,279.777z"/>
						<path fill="#FCBA54" d="M342.345,317.408l0.151,0.059c0.003-0.019,0.017-0.03,0.032-0.038L342.345,317.408z"/>
						<path fill="#FCBA54" d="M342.527,317.429l0.181,0.021C342.629,317.426,342.561,317.407,342.527,317.429z"/>
						<path fill="#FCBA54" d="M343.088,317.493l-0.38-0.043C342.833,317.489,342.984,317.545,343.088,317.493z"/>
						<path fill="#FCBA54" d="M338.219,315.705l-0.091,0.07C338.163,315.769,338.194,315.746,338.219,315.705z"/>
						<path fill="#FCBA54" d="M336.989,315.094c0.277,0.168,0.613,0.623,1.065,0.737l0.074-0.056
							C337.855,315.842,337.341,315.095,336.989,315.094z"/>
						<path fill="#FCBA54" d="M333.755,310.505c0,0,0.119,0.234,0.237,0.468c0.128,0.229,0.296,0.436,0.296,0.436
							c-0.036-0.211-0.069-0.475,0.252-0.137c-0.295-0.584-0.267-0.513-0.324-0.402
							C334.168,310.977,334.093,311.101,333.755,310.505z"/>
						<path fill="#FCBA54" d="M332.86,307.459c0.099,0.545,0.156-0.03,0.219-0.007C332.95,307.122,332.917,307.033,332.86,307.459z"
							/>
						<path fill="#FCBA54" d="M337.019,283.413l0.248-0.099C336.896,282.903,337.187,283.372,337.019,283.413z"/>
						<path fill="#FCBA54" d="M332.288,282.28c0.006-0.011,0.371,0.251,0.371,0.251l0.25-0.179
							C332.908,282.353,332.292,282.267,332.288,282.28z"/>
						<path fill="#FCBA54" d="M329.902,280.016l0.193-0.002c0,0-0.733-0.028-0.727-0.052
							C329.364,279.978,329.902,280.016,329.902,280.016z"/>
						<path fill="#FCBA54" d="M327.908,247.042l-0.343-0.021C327.476,247.317,327.764,247.531,327.908,247.042z"/>
						<path fill="#FCBA54" d="M334.954,230.447c0.146-0.205,0.269-0.756,0.069-1.068
							C335.048,229.804,334.902,230.234,334.954,230.447z"/>
						<polygon fill="#FCBA54" points="322.632,178.765 322.762,179.119 322.627,178.442 						"/>
					</g>
				</g>
			</g>
		</g>
	</g>
	<g>
		<g>
			<g>
				<g>
					<g>
						<path fill="#FCBA54" d="M346.944,318.476c-0.083-0.067-0.281-0.037-0.246,0.141l0.328,0.136L346.944,318.476z"/>
						<path fill="#FCBA54" d="M346.304,319.645c0.155,0.212,0.432,0.458,0.739,0.332c-0.313-0.214-0.179-0.26-0.553-0.491
							c-0.035-0.179,0.113-0.306,0.234-0.272c-0.083-0.064,0.079-0.271-0.126-0.373c-0.262,0.221-0.278,0.514-0.074,0.823
							C346.45,319.727,346.365,319.661,346.304,319.645z"/>
						<path fill="#FCBA54" d="M346.867,336.964l0.018-0.118C346.869,336.88,346.865,336.92,346.867,336.964z"/>
						<path fill="#FCBA54" d="M349.981,347.335c-0.045-0.07-0.091-0.087-0.12-0.078
							C349.916,347.316,349.963,347.364,349.981,347.335z"/>
						<path fill="#FCBA54" d="M350.514,349.159c-0.011-0.04-0.021-0.073-0.031-0.109
							C350.475,349.102,350.48,349.147,350.514,349.159z"/>
						<path fill="#FCBA54" d="M346.867,336.964l-0.048,0.305C346.929,337.267,346.87,337.106,346.867,336.964z"/>
						<path fill="#FCBA54" d="M347.047,322.039c-0.015-0.061-0.044-0.11-0.083-0.156c0.013,0.049,0.024,0.097,0.032,0.146
							L347.047,322.039z"/>
						<path fill="#FCBA54" d="M345.896,332.282l-0.011-0.087c-0.041-0.021-0.089-0.041-0.142-0.059L345.896,332.282z"/>
						<path fill="#FCBA54" d="M345.551,328.634c-0.007,0.083,0.274,0.096,0.399,0.12c-0.118-0.04-0.177-0.098-0.202-0.169
							C345.694,328.587,345.631,328.602,345.551,328.634z"/>
						<path fill="#FCBA54" d="M345.898,322.84l-0.04-0.103C345.869,322.765,345.885,322.807,345.898,322.84z"/>
						<path fill="#FCBA54" d="M346.14,334.901c-0.041,0.013-0.075,0.031-0.094,0.048C346.081,334.944,346.11,334.927,346.14,334.901
							z"/>
						<path fill="#FCBA54" d="M419.134,378.11c0.008,0.019,0.018,0.027,0.026,0.043C419.162,378.118,419.157,378.099,419.134,378.11
							z"/>
						<path fill="#FCBA54" d="M423.21,376.788l-0.034,0.05c0.031,0.043,0.062,0.086,0.097,0.124L423.21,376.788z"/>
						<path fill="#FCBA54" d="M351.75,352.304c0-0.007-0.001-0.009-0.002-0.016C351.68,352.229,351.708,352.269,351.75,352.304z"/>
						<path fill="#FCBA54" d="M367.484,378.258c-0.232-0.367,0.672-0.072,0.282-0.534
							C367.771,377.849,367.134,377.93,367.484,378.258z"/>
						<path fill="#FCBA54" d="M347.008,322.132c0.002,0.049,0.003,0.099,0,0.147C347.018,322.213,347.019,322.167,347.008,322.132z"
							/>
						<path fill="#FCBA54" d="M367.767,377.724l0.001-0.002l-0.041-0.045C367.743,377.696,367.753,377.707,367.767,377.724z"/>
						<path fill="#FCBA54" d="M354.833,359.122c0.042-0.03,0.068-0.07,0.093-0.111C354.899,359.021,354.871,359.05,354.833,359.122z
							"/>
						<path fill="#FCBA54" d="M353.152,353.741l0.031,0.14C353.181,353.82,353.167,353.777,353.152,353.741z"/>
						<path fill="#FCBA54" d="M356.053,361.813c-0.001,0.079-0.033,0.114,0.029,0.206c0.012-0.014,0.019-0.025,0.025-0.04
							C356.061,361.953,356.031,361.909,356.053,361.813z"/>
						<path fill="#FCBA54" d="M356.818,364.81c0.017-0.022,0.027-0.048,0.041-0.071c-0.013-0.029-0.027-0.064-0.04-0.095
							L356.818,364.81z"/>
						<path fill="#FCBA54" d="M410.735,380.113c0.068,0.079,0.11,0.166,0.143,0.252C410.83,380.166,411.288,380.095,410.735,380.113
							z"/>
						<path fill="#FCBA54" d="M346.889,322.038c0.071,0.02,0.105,0.046,0.119,0.094l-0.013-0.104
							C346.954,322.02,346.915,322.017,346.889,322.038z"/>
						<path fill="#FCBA54" d="M358.227,361.364l0.085,0.5C358.303,361.721,358.271,361.539,358.227,361.364z"/>
						<path fill="#FCBA54" d="M388.512,379.862l0.114-0.027C388.583,379.826,388.543,379.832,388.512,379.862z"/>
						<path fill="#FCBA54" d="M358.722,363.308c-0.075,0.11-0.107,0.215-0.12,0.319c0.026,0.015,0.05,0.034,0.085,0.04
							L358.722,363.308z"/>
						<path fill="#FCBA54" d="M410.879,380.368l-0.001-0.003L410.879,380.368z"/>
						<path fill="#FCBA54" d="M413.939,379.608c-0.412,0.056-0.159,0.384-0.228,0.608c-0.513,0.126-0.261-0.262-0.446-0.442
							c-0.305,0.11-0.545,0.462-0.789,0.459c-0.018-0.06-0.064-0.079-0.009-0.158c-0.363,0.299-1.101,0.015-1.533,0.385
							c-0.032-0.032-0.048-0.063-0.056-0.092c0.069,0.186,0.079,0.373,0.064,0.507c-0.211,0.007-0.393,0.233-0.471-0.008
							c0.129,0.007,0.14-0.09,0.201-0.166l-0.221,0.105c-0.199-0.348,0.302-0.12,0.303-0.377c-0.432,0.112-0.935,0.399-1.266,0.301
							c-0.069-0.339,0.773-0.113,0.333-0.416l0.512,0.13c-0.39-0.535,0.311,0.038-0.047-0.535c-0.674-0.099-0.754,0.173-1.427,0.073
							c-0.151,0.188,0.05,0.279-0.101,0.468c-0.954,0.339-0.754-0.854-1.456-0.402c-0.181,0.228-0.249,0.657-0.749,0.433
							l0.168-0.385c-0.651-0.035-0.37,0.554-1.052,0.299c0.121-0.152,0.511-0.13,0.413-0.175c-0.443-0.302-0.312,0.219-0.651,0.221
							l-0.072-0.34c-0.693,0.057-1.455,0.306-2.223,0.371c0.042-0.102,0.173-0.208-0.006-0.312
							c-0.969,0.178-2.063-0.042-2.994-0.244l-0.356,0.293c-0.083-0.004-0.153-0.133-0.063-0.189
							c-0.362-0.112-0.019,0.186-0.194,0.301c-0.207,0.02-0.272-0.169-0.141-0.257c-0.641,0.244-1.83,0.537-2.5,0.21l0.132-0.085
							c-0.522-0.13-0.599,0.589-1.082,0.305l0.094-0.05c-1.135-0.151-2.401,0.09-3.256-0.371c-0.18,0.427-1.117-0.222-1.212,0.356
							c-0.636-0.326-0.446-0.421-1.347-0.666c-0.241-0.039-0.381,0.349-0.686,0.395l0.009-0.309l-0.427,0.302l-0.196-0.38
							l-0.287,0.064c0.111,0.024,0.23,0.15,0.208,0.238c-0.451,0.116-1.062-0.271-1.062-0.429c0,0-0.265,0.051-0.53,0.103
							c-0.264,0.042-0.528,0.085-0.528,0.085c0.033-0.122,0.209-0.147,0.352-0.213c-0.576,0.26-0.076-0.334-0.604-0.095
							c0.063,0.076-0.051,0.179-0.067,0.24c-0.238-0.21-0.812-0.268-1.244-0.23l0.101-0.203c-0.761-0.128-1.625-0.055-2.487-0.142
							c0.297,0.128,0.185,0.487-0.073,0.498l-0.063-0.333c-0.187,0.185,0.25,0.147-0.115,0.359
							c-0.319-0.068-0.172-0.388,0.024-0.476l-0.405,0.074c-0.011-0.099,0.087-0.141,0.125-0.262
							c-0.186,0.187-0.626-0.424-0.9-0.107l-0.009-0.1c-0.85-0.133-1.251-0.081-1.948-0.171c-0.057,0.276-0.319,0.173-0.563,0.365
							c-0.499-0.166-1.028-0.471-1.647-0.541c-0.453,0.045-0.168,0.207-0.392,0.329c0.016-0.259-0.595-0.37-0.246-0.48
							c-0.736-0.121-0.938-0.156-1.906-0.157c0.077,0.124,0.181,0.194,0.103,0.267c-0.177,0.004-0.359-0.189-0.308-0.305l0.05-0.016
							c-1.128,0.135-2.223-1.229-3.126-0.968l0.051-0.013c0,0-0.225,0.008-0.451,0.016c-0.228,0.011-0.45,0-0.45,0
							c-0.357-0.171,0.283-0.106,0.058-0.352c-1.014,0.117-1.334-0.543-2.133-0.568c-0.122-0.453-0.567-0.674-1.072-0.858
							c-0.487-0.206-1.017-0.416-1.216-0.817l-0.057,0.176c-0.258,0.038-0.145-0.22-0.243-0.333
							c-0.059,0.127,0.092,0.253-0.063,0.266c-1.558-0.741-2.611-2.319-3.491-3.717c-0.343-0.497-0.958,0.273-1.066-0.628
							l0.399-0.001c-1.06-0.816-1.316-2.199-2.07-3.235c0.099,0.042,0.191,0.008,0.235,0.121c0.127-0.334-0.353-0.906-0.527-0.856
							c-0.039-0.196,0.153-0.102,0.211-0.249c0.054-0.295-0.497-0.545-0.312-0.751c0.03-0.034,0.098,0.049,0.13,0.09
							c-0.176-0.127-0.194-0.786-0.417-0.552c0.01-0.501-0.342-0.848-0.283-1.277c-0.367-0.188-0.071-0.885-0.518-0.864
							c0.449-0.07,0.132-0.96-0.153-1.218c0.159,0.07,0.067-0.31,0.282-0.235c-0.098-0.358-0.263-0.665-0.471-0.54
							c0.371-0.815-0.813-1.185-0.261-1.754c-0.592-0.973-1.014-1.897-1.491-2.771c0.455-0.134,0.431,1.004,0.85,0.807
							c-0.455-0.84-1.085-1.175-1.324-2.078c-0.036-0.246,0.233,0.051,0.336,0.097c-0.551-0.786-0.629-1.714-1.251-2.346
							c0.039-0.017,0.122,0.043,0.193,0.104c-0.09-0.14-0.119-0.369-0.294-0.263l0.125,0.118c-0.146,0.359-0.861-0.303-1.014-0.255
							c0.653-0.02-0.25-0.789,0.616-0.74c-0.085-0.078-0.235-0.154-0.345-0.068c-0.039-0.16,0.007-0.243,0.222-0.171
							c-0.375-0.472-0.468-0.182-0.713-0.655c0.088-0.046,0.172,0.03,0.3,0.023c-0.296-0.147-0.591-0.29-0.728-0.729
							c0.064-0.006,0.107-0.091,0.169,0.028c-0.384-0.664-1.035-0.878-1.253-1.702c0.492,0.012-0.002-0.313,0.309-0.523
							l-0.299-0.336l-0.081,0.237c-0.17-0.343-0.571-0.526-0.614-0.874l0.27,0.188l-0.396-0.608l0.06,0.422
							c-0.354-0.265-0.408,0.239-0.552-0.265c0.08,0.079-0.178-0.348-0.035-0.632l0.001,0.001c-0.178-0.131-0.366-0.267-0.385-0.571
							c0.083-0.115,0.402-0.104,0.458-0.18c-0.356-0.056-0.407-0.807-0.804-0.909c0.102,0.047,0.286-0.021,0.314-0.06l-0.294-0.056
							c0.01-0.197,0.038-0.234,0.194-0.264c-0.152-0.517-0.381,0.327-0.423-0.342c0.038,0.04,0.064,0.005,0.139,0.089
							c-0.121-0.637-0.635-1.093-0.651-1.712c0.311-0.281,0.227,0.468,0.475,0.178c-0.292-0.788-0.907-1.56-1.045-2.379l0.001,0.159
							c-0.544,0.023,0.087-0.657-0.269-0.996c0.066,0.089,0.323,0.059,0.258,0.047c-0.095-0.554-0.363-1.095-0.704-1.901
							l0.154,0.078c0.057-0.352-0.096-0.874-0.102-1.238c-0.154-0.08-0.171-0.287-0.342-0.13c0.525-1.203-0.731-2.039-0.212-3.106
							c0.015,0.117,0.151,0.265,0.141,0.172l-0.222-0.818c-0.222,0.091-0.126,0.124-0.285,0.32
							c-0.148-0.091-0.282-0.317-0.306-0.525c0.196,0.361,0.369-0.042,0.478-0.217c-0.067,0.034-0.151-0.014-0.222,0.008
							c0.358-0.477-0.471-0.029-0.265-0.654l0.125,0.021c-0.093-0.218-0.266-0.412-0.243-0.659c0.261-0.121,0.138,0.23,0.358,0.228
							c-0.034-0.338-0.542-0.634-0.294-0.963c0.083,0.14,0.095,0.349,0.177,0.487c0.294-0.358,0.212-0.391,0.248-0.644l-0.005,0.025
							l0.109-0.583l-0.077,0.151c-0.72-0.384-0.176-0.857-0.665-1.41c0.463,0.539,0.255,0.08,0.56,0.11
							c0.075-0.15,0.157-0.376,0.246-0.316c-0.259-0.26,0.166-0.456-0.21-0.825c0.097-0.02,0.006-0.29,0.252-0.235
							c-0.081-0.35-0.169,0.088-0.292,0.062c-0.339-0.536,0.391-1.284-0.074-2.058c-0.195-0.673-0.525-0.798-0.695-1.428
							c0.154-0.212,0.357,0.175,0.357,0.175c0.14-0.342,0.108-0.598,0.008-0.921c0.083,0.065,0.157-0.001,0.269-0.098
							c-0.02-0.259-0.351-0.177-0.199-0.517c0.107,0.061,0.279,0.138,0.386,0.264c-0.083-0.305-0.258-0.608-0.338-0.926
							c0.172-0.08,0.253,0.195,0.361,0.309c-0.068-0.355-0.132-0.92-0.399-1.036l-0.101,0.226c-0.01-0.13,0.232-0.062,0.279,0.035
							c0.204,0.308-0.103,0.436-0.202,0.451l-0.057-0.227c-0.578,0.221,0.071,0.906,0.027,1.356l-0.412-0.194l0.334,0.469
							c-0.11,0.098-0.344,0.163-0.401-0.062c-0.213,0.323,0.14,0.289-0.085,0.567c-0.035,0.03-0.056,0.017-0.072-0.012l0.127,0.318
							c-0.088-0.063-0.293,0.052-0.235-0.144c-0.234,0.573,0.321,0.922,0.008,1.139l-0.026-0.048
							c0.148,0.792,0.306,0.075,0.67,0.664l-0.749,0.41l0.306,0.073c-0.01,0.082-0.032,0.244-0.154,0.217
							c0.212,0.3,0.132-0.055,0.331,0.118c-0.272,0.399,0.138,1.079-0.341,1.183c0.237,0.134,0.165-0.381,0.343,0.033
							c-0.516,0.138,0.117,0.481-0.103,0.85c-0.276-0.099-0.152-0.446-0.373-0.076c0.469,0.197-0.06,0.707,0.045,1.008
							c0.363-0.006,0.188,0.652,0.338,1.154c-0.113-0.024-0.167,0.974-0.226,1.46l-0.063-0.009c0.376,0.059,0.364,0.552,0.481,0.898
							c-0.221,0.009-0.314-0.046-0.435-0.229l0.041,0.335c0.126,0.066,0.2,0.164,0.267,0.376l-0.283-0.054
							c0.067,0.446,0.425,0.859,0.311,1.455c0.257-0.004,0.654-0.546,0.893,0.029c-0.134,0.041-0.366,0.097-0.441-0.054
							c0.024,0.05,0.135,0.168,0.089,0.28l-0.259-0.209c-0.071,0.274,0.209,0.109,0.211,0.319c-0.196,0.024-0.122,0.174-0.28,0.167
							c-0.025-0.051,0.06-0.193-0.026-0.262c-0.007,0.239-0.09,0.54-0.227,0.657c0.108-0.037,0.26-0.039,0.319,0.127
							c0.099,0.438-0.206,0.188-0.256,0.462c0.156,0.085,0.069,0.392,0.362,0.349c0.023,0.13-0.108,0.177-0.177,0.241
							c0.172,0.206,0.241,1.062,0.5,0.745l0.009-0.062l0.02,0.034v-0.002v0.002c0.438,0.685,0.113,1.587,0.417,2.293l-0.096,0.021
							c0.231,0.408,0.337,0.951,0.629,1.205c0.036,0.127-0.089,0.35-0.218,0.326c0.165,0.313,0.282,0.317,0.261,0.843
							c-0.26-0.285-0.114,0.159-0.218-0.307c0.04,0.455-0.083,0.603,0.306,0.987c-0.286-0.083-0.211,0.423-0.081,0.606l0.086-0.359
							c0.106,0.218,0.122,0.433,0.189,0.637l-0.358-0.003c-0.042,1.009,1.252,1.319,0.875,2.218c0.305,0.142-0.03-0.529,0.303-0.425
							c0.111,0.409-0.169,1.005-0.121,1.132c0.049,0.618,0.635,0.32,0.761,0.928c0.072-0.118,0.328-0.312,0.636,0.04
							c0.152,0.391-0.212,0.674-0.421,0.476c-0.056-0.086-0.044-0.146-0.006-0.159c-0.102-0.104-0.231-0.243-0.271-0.039
							l0.133-0.001c-0.013,0.239,0.269,0.757,0.03,0.719c0.251,0.238,0.238,0.037,0.184-0.201c0.098,0.563,0.389,0.762,0.545,1.315
							c0.017-0.11,0.102-0.247,0.142-0.168c0.25,0.802,0.366,0.217,0.667,0.685c-0.013,0.368-0.43,0.109-0.039,0.534
							c0.052,0.366-0.24,0.222-0.388,0.146c0.44,0.354,0.312,0.925,0.402,1.185l-0.202-0.178c0.12,0.106,0.177,0.218,0.235,0.331
							l0.139-0.247c0.034,0.154,0.092,0.268,0.005,0.313c0.208,0.062,0.289-0.3,0.619-0.128c-0.011,0.237,0.403,0.486,0.158,0.697
							c-0.202-0.613-0.247,0.211-0.541-0.238c0.081,0.073,0.139,0.185,0.172,0.338c-0.021,0.037-0.067,0.012-0.103-0.016
							c0.032,0.664,0.444,0.078,0.731,0.639c-0.195,0.011-0.232,0.28-0.151,0.354c-0.114-0.224,0.208-0.24,0.438-0.094
							c0.065,0.418,0.298,0.344,0.383,0.539l-0.055-0.243c0.192-0.001,0.285,0.181,0.444,0.421c-0.114,0.08-0.189-0.196-0.202-0.078
							c0.406,0.16-0.019,0.791,0.342,1.108c-0.032,0.235-0.298,0.152-0.304,0.348c0.4,0.36-0.021,0.581,0.353,0.979
							c0.164-0.225,0.099-0.229,0.456,0.02l-0.483-0.718l0.531,0.37c-0.097-0.239-0.348-0.442-0.37-0.6
							c0.28,0.163,0.215,0.163,0.35-0.028c-0.194,0.463,0.464,0.567,0.398,1.036l-0.555,0.205c-0.006,0.327,0.17,0.546,0.366,0.785
							c0.175,0.247,0.373,0.513,0.426,0.914l0.018-0.276c0.255,0.023,0.184,0.455,0.354,0.669c-0.194,0.04-0.212,0.216-0.295,0.358
							c0.135-0.059,0.167,0.552,0.566,0.502l-0.137,0.413c0.092,0.638,0.784,0.528,0.865,1.153
							c-0.252-0.123-0.318,0.187-0.567-0.171c0.049,0.199,0.06,0.389,0.192,0.354c-0.089,0.149,0.398,0.484,0.264,0.717
							c0.105,0.063,0.313,0.037,0.354,0.267c-0.033,0.035-0.095,0.024-0.095,0.024c0.095-0.024,0.219,0.319,0.38,0.068
							c-0.438,0.776,0.482,1.704,0.112,2.399c0.169,0.442,0.372,0.972,0.524,1.369c-0.064-0.009-0.094,0.027-0.099-0.056
							c0.005,0.618,0.649,0.171,0.656,0.861c-0.197,0.43-0.271-0.278-0.32-0.037c-0.599,0.312,0.367,0.728,0.18,1.286l-0.076-0.088
							c-0.084,0.417,0.557,0.69,0.764,1.215c0,0-0.063,0-0.09,0.04c0.45,0.215,0.915,0.783,1.26,1.198
							c-0.3-0.012-0.238-0.143-0.408,0.08c0.154,0.19,0.317-0.271,0.624,0.099c-0.031,0.202,0.063,0.557-0.138,0.751l-0.273-0.375
							c-0.165,0.392,0.35,0.492,0.435,0.727l-0.145,0.064c0.446,0.568,0.795,0.31,1.235,0.922l0.042-0.136
							c0.548,0.065,0.056,0.408,0.55,0.516l-0.204,0.359c0.256,0.144,0.931,0.432,1.346,0.685c-0.4,0.037-0.932-0.242-1.295-0.396
							c0.177,0.214,0.683,0.645,0.924,0.591c-0.106-0.046-0.276-0.069-0.314-0.187c0.467-0.003,0.871,0.186,1.277,0.523
							c-0.556,0.535,0.972,1.02,0.986,1.699c0.479,0.162,0.87,0.433,1.281,0.725c0.401,0.312,0.831,0.618,1.352,0.841
							c-0.104-0.711,0.304,0.128,0.497-0.458c0.245,0.079,0.334,0.118,0.338,0.164l0.582,0.634c0.107,0.236-0.279,0.031-0.31,0.167
							c0.515,0.262,0.126,0.332,0.425,0.629c0.005-0.23,0.297-0.216,0.58-0.036l-0.336-0.417c0.858-0.042,0.481,0.711,1.351,0.67
							l-0.302,0.101c0.425,0.037,1.474,0.44,1.982,0.076c0.051,0.084,0.102,0.266-0.083,0.271c0.925,0.281,2.208-0.046,2.867,0.41
							l-0.103,0.13c0.185-0.003,0.363-0.207,0.551-0.011c-0.024,0.058-0.102,0.13-0.022,0.156c0.104-0.029,0.518-0.153,0.731-0.017
							l-0.231,0.121c0.879,0.399,1.481-0.085,2.27-0.083c-0.079,0.433,0.625,0.686,0.978,0.812l-0.022,0.06
							c1.072,0.219,1.887-0.081,2.9-0.102c0.559,0.568,2.076,0.411,3.048,0.781c-0.145-0.094,0.058-0.339,0.239-0.365
							c0.226,0.111,0.673-0.242,0.601,0.156l-0.083-0.016c0.142,0.411,0.634,0.354,1.009,0.4l0.103-0.521
							c0.928,0.86,2.59-0.134,3.085,0.591c0.245-0.119,0.538-0.103,0.78-0.222l-0.026,0.282c0.655,0.105,0.983,0.162,1.799,0.133
							l-0.173,0.195c0.459,0.034,0.606-0.802,1.028-0.808l0.114,0.425c0.798,0.011,1.599,0.399,2.396,0.033
							c-0.014,0.062-0.04,0.183-0.169,0.197c0.375,0.02,1.452,0.317,1.322-0.266c0.005,0.381,0.823,0.054,1.254-0.116l-0.069,0.278
							c0.366-0.355,0.378-0.453,0.885-0.55c0.12,0.036,0.104,0.223-0.055,0.151c0.399,0.146,0.313-0.264,0.797-0.113l-0.182,0.177
							c0.412,0.022,0.379-0.072,0.606-0.279c0.259-0.111,0.78,0.071,0.841,0.324c0.056-0.153,0.281-0.358,0.523-0.285
							c0.033,0.095-0.055,0.153-0.1,0.183c0.688,0.19,1.022-0.319,1.496-0.05c0.01,0.093,0.041,0.139,0.08,0.166
							c-0.545-0.003-0.986-0.021-0.945-0.041c0,0.257,0.442,0.303,0.092,0.657c0.355-0.191,0.958-0.617,1.388-0.498
							c0.021,0.025,0.042,0.05,0.057,0.089l-0.044,0.029c0.1,0.024,0.188,0.001,0.271-0.043c0.137,0.042,0.225,0.072,0.356,0.075
							c0.051,0.213,0.506,0.112,0.726,0.122c-0.019-0.281,0.269-0.237-0.001-0.468c0.035,0.02-0.042,0.033-0.188,0.046
							c-0.033,0.009-0.072,0.013-0.094,0.029l0.015-0.024c-0.145,0.006-0.333,0.013-0.546,0.021c0.173-0.144,0.354-0.265,0.598-0.11
							c0.112-0.181,0.236-0.367,0.305-0.455c0.302,0.391,0.883,0.601,0.964,0.842c0.67-0.16,1.582-0.113,2-0.64
							c0.19-0.068,0.22,0.151,0.291,0.234c-0.11,0.053-0.241,0.045-0.3,0.121c0.38-0.136,1.128-0.053,1.219-0.422
							c0.48,0.167-0.27,0.34,0.39,0.28l-0.089,0.112c1.302,0.583,2.098-0.925,3.564-0.198c-0.105-0.042-0.157-0.062-0.178-0.122
							c0.426,0.064,0.864,0.067,1.301,0.041c0.435-0.058,0.866-0.165,1.295-0.255c0.85-0.232,1.675-0.465,2.554-0.538
							c0.491-0.076,0.463-0.296,0.649-0.587l0.216,0.23l0.3-0.534c0.506-0.507,1.439,0.075,1.962-0.81l-0.208-0.111
							c0.307-0.117,0.752-0.675,0.851-0.447c0.005-0.05-0.04-0.232,0.123-0.221l0.102,0.122l0.462-0.68
							c0.529-0.305,0.32,0.552,1.021-0.012c0.217-0.268,0.409-0.961,0.242-0.956c-0.105,0.081-0.321,0.147-0.434,0.035l0.168-0.253
							c-0.272-0.38-0.443-0.861-1.176-0.659l-0.174,0.526l-0.262-0.072l0.293-0.271c-0.31-0.014-0.294,0.222-0.335,0.428
							c-0.105-0.068-0.208-0.09-0.307-0.063l-0.096,0.631c-0.155-0.112-0.053-0.409-0.363-0.307
							c-0.051,0.293,0.417,0.201,0.204,0.525c-0.312-0.034-0.356-0.216-0.466,0.09c-0.099-0.076-0.098-0.172-0.044-0.276
							c-0.106,0.256-0.462,0.422-0.437,0.682c-0.342-0.098-0.648,0.475-0.853,0.083c-0.011,0.121-0.172,0.53-0.366,0.63
							c0.104-0.638-0.738,0.324-0.889-0.23c-0.047,0.58-0.851,0.597-1.239,1.018c0.015-0.046,0.042-0.138,0.092-0.131
							c-0.282,0.059-0.399-0.031-0.601-0.08c0.081,0.384-0.328,0.582-0.511,0.879c-0.432-0.277,0.1-0.501-0.099-0.824
							c0.097,0.303-0.507,0.46-0.338,0.689c-0.311-0.171-0.253-0.072-0.447-0.367c0.04,0.489-0.228,0.117-0.402,0.448
							c-0.418-0.181-0.157-0.44-0.556-0.228C413.596,379.837,413.939,379.608,413.939,379.608z M403.136,380.565v-0.005
							c0.095-0.008,0.175-0.014,0.227-0.018C403.316,380.548,403.25,380.555,403.136,380.565z M402.213,380.574
							c0.112,0.011,0.252,0.012,0.4,0.01c0.033,0.097-0.002,0.196-0.095,0.192C402.569,380.711,402.351,380.656,402.213,380.574z
							 M404.173,382.514c-0.146,0.04-0.195-0.015-0.215-0.072c0.069-0.005,0.149-0.016,0.255-0.035l0.017-0.034
							C404.216,382.426,404.201,382.477,404.173,382.514z"/>
						<path fill="#FCBA54" d="M404.435,382.144c0.021-0.006,0.033-0.019,0.06-0.021c-0.03-0.024-0.059-0.046-0.087-0.063
							l-0.051,0.089L404.435,382.144z"/>
						<path fill="#FCBA54" d="M346.887,336.825l-0.002,0.021c0.008-0.018,0.016-0.035,0.031-0.048
							C346.905,336.813,346.896,336.815,346.887,336.825z"/>
						<polygon fill="#FCBA54" points="389.538,379.778 389.536,379.849 389.619,379.791 						"/>
						<path fill="#FCBA54" d="M347.11,331.662c0.023-0.012,0.047-0.033,0.064-0.072C347.156,331.595,347.134,331.625,347.11,331.662
							z"/>
						<path fill="#FCBA54" d="M346.994,329.486l0.083-0.313C347.027,329.31,347.006,329.408,346.994,329.486z"/>
						<path fill="#FCBA54" d="M347.039,327.807c-0.051-0.019-0.088-0.022-0.122-0.026l-0.002,0.003L347.039,327.807z"/>
						<path fill="#FCBA54" d="M354.795,352.828c0.012,0.02,0.026,0.038,0.043,0.054C354.96,352.997,354.891,352.912,354.795,352.828
							z"/>
						<path fill="#FCBA54" d="M350.542,346.023c0.077,0.058,0.153,0.114,0.213,0.183
							C350.725,346.066,350.69,345.963,350.542,346.023z"/>
						<polygon fill="#FCBA54" points="358.218,361.31 358.213,361.31 358.227,361.364 						"/>
						<path fill="#FCBA54" d="M350.913,346.536c-0.011-0.149-0.085-0.243-0.157-0.33
							C350.777,346.322,350.824,346.45,350.913,346.536z"/>
						<path fill="#FCBA54" d="M347.108,320.542l0.013-0.081c-0.019,0.001-0.033-0.004-0.045-0.011L347.108,320.542z"/>
						<path fill="#FCBA54" d="M347.076,320.45l-0.031-0.09C347.044,320.401,347.046,320.438,347.076,320.45z"/>
						<path fill="#FCBA54" d="M346.979,320.169l0.066,0.191C347.047,320.295,347.058,320.214,346.979,320.169z"/>
						<path fill="#FCBA54" d="M346.932,322.764l0.102,0.025C347.013,322.775,346.98,322.767,346.932,322.764z"/>
						<path fill="#FCBA54" d="M346.969,323.438c0.021-0.16,0.213-0.402,0.147-0.627l-0.082-0.021
							C347.187,322.896,346.795,323.284,346.969,323.438z"/>
						<path fill="#FCBA54" d="M345.738,326.287l0.076-0.574c-0.107,0.103-0.252,0.238-0.281-0.022
							C345.216,326.421,345.774,325.536,345.738,326.287z"/>
						<path fill="#FCBA54" d="M345.661,328.068c-0.068-0.306-0.157,0.012-0.22-0.002
							C345.552,328.258,345.579,328.304,345.661,328.068z"/>
						<path fill="#FCBA54" d="M347.587,340.795l-0.255,0.039C347.433,341.056,347.429,340.81,347.587,340.795z"/>
						<polygon fill="#FCBA54" points="349.539,342.741 349.607,342.48 349.349,342.453 						"/>
						<polygon fill="#FCBA54" points="348.352,344.71 348.279,344.625 348.512,344.968 						"/>
						<path fill="#FCBA54" d="M356.435,364.311l0.29-0.138C356.631,364.033,356.277,364.078,356.435,364.311z"/>
						<path fill="#FCBA54" d="M360.797,372.843c-0.056,0.183,0.041,0.467,0.277,0.482
							C360.935,373.154,360.898,372.901,360.797,372.843z"/>
						<polygon fill="#FCBA54" points="386.928,382.169 386.732,382.256 387.092,382.196 						"/>
					</g>
				</g>
			</g>
		</g>
	</g>
	<g>
		<g>
			<g>
				<g>
					<g>
						<path fill="#FCBA54" d="M586.338,195.79c-0.077-0.041-0.264-0.1-0.238-0.053l0.304,0.136L586.338,195.79z"/>
						<path fill="#FCBA54" d="M585.685,195.814c0.138,0.094,0.388,0.235,0.683,0.311c-0.286-0.146-0.158-0.111-0.501-0.281
							c-0.024-0.047,0.12-0.024,0.233,0.022c-0.076-0.041,0.086-0.029-0.104-0.117c-0.256-0.042-0.284,0.012-0.104,0.142
							C585.818,195.879,585.741,195.838,585.685,195.814z"/>
						<path fill="#FCBA54" d="M584.091,199.006l0.045-0.01C584.113,198.996,584.1,199,584.091,199.006z"/>
						<path fill="#FCBA54" d="M583.232,201.037c-0.003-0.018-0.032-0.035-0.061-0.044
							C583.188,201.014,583.203,201.032,583.232,201.037z"/>
						<path fill="#FCBA54" d="M582.769,201.286c0.012-0.006,0.02-0.01,0.028-0.015C582.766,201.271,582.747,201.274,582.769,201.286
							z"/>
						<path fill="#FCBA54" d="M584.091,199.006l-0.117,0.023C584.075,199.067,584.06,199.026,584.091,199.006z"/>
						<path fill="#FCBA54" d="M586.285,196.542c-0.012-0.017-0.037-0.037-0.072-0.059c0.011,0.014,0.019,0.027,0.023,0.04
							L586.285,196.542z"/>
						<path fill="#FCBA54" d="M584.139,198.002l0.006-0.018c-0.035-0.016-0.076-0.035-0.123-0.057L584.139,198.002z"/>
						<path fill="#FCBA54" d="M584.323,197.279c-0.017,0.012,0.248,0.108,0.362,0.154c-0.107-0.046-0.155-0.076-0.171-0.097
							C584.463,197.32,584.401,197.302,584.323,197.279z"/>
						<path fill="#FCBA54" d="M585.159,196.321l-0.03-0.033L585.159,196.321z"/>
						<path fill="#FCBA54" d="M583.915,198.488c-0.04-0.01-0.076-0.02-0.098-0.025C583.851,198.474,583.884,198.482,583.915,198.488
							z"/>
						<path fill="#FCBA54" d="M579.07,218.833c-0.019-0.008-0.03-0.014-0.046-0.021C579.049,218.829,579.066,218.838,579.07,218.833
							z"/>
						<polygon fill="#FCBA54" points="577.477,219.034 577.468,219.017 577.327,218.946 						"/>
						<path fill="#FCBA54" d="M582.225,201.833l0.006-0.001C582.205,201.805,582.208,201.816,582.225,201.833z"/>
						<path fill="#FCBA54" d="M580.564,207.875c0.263,0.01,0.271,0.208,0.57,0.192C581.027,208.043,580.748,207.842,580.564,207.875
							z"/>
						<path fill="#FCBA54" d="M586.244,196.548c0,0.01-0.001,0.021-0.006,0.029C586.251,196.567,586.253,196.558,586.244,196.548z"
							/>
						<path fill="#FCBA54" d="M581.135,208.067l0.003,0.001l0.028-0.002C581.153,208.066,581.146,208.067,581.135,208.067z"/>
						<path fill="#FCBA54" d="M581.925,203.388c0.048,0.012,0.086,0.017,0.122,0.021
							C582.02,203.401,581.984,203.394,581.925,203.388z"/>
						<path fill="#FCBA54" d="M582.65,202.385l-0.044,0.017C582.634,202.398,582.645,202.392,582.65,202.385z"/>
						<path fill="#FCBA54" d="M582.125,204.087c-0.024,0.009-0.063,0.002-0.033,0.034c0.014,0.001,0.023,0.003,0.034,0.004
							C582.092,204.106,582.077,204.091,582.125,204.087z"/>
						<path fill="#FCBA54" d="M581.941,204.694c0.021,0.002,0.038,0.004,0.058,0.006l-0.009-0.024L581.941,204.694z"/>
						<path fill="#FCBA54" d="M579.71,216.968c-0.078-0.018-0.162-0.044-0.244-0.072
							C579.653,216.965,579.682,217.081,579.71,216.968z"/>
						<path fill="#FCBA54" d="M586.136,196.49c0.066,0.027,0.098,0.044,0.108,0.058c0-0.008-0.004-0.017-0.008-0.025
							C586.198,196.507,586.161,196.494,586.136,196.49z"/>
						<path fill="#FCBA54" d="M584.235,204.771l-0.069,0.084C584.2,204.835,584.225,204.805,584.235,204.771z"/>
						<path fill="#FCBA54" d="M581.389,212.665l0.024,0.033C581.422,212.691,581.417,212.681,581.389,212.665z"/>
						<path fill="#FCBA54" d="M584.118,205.153c-0.1-0.012-0.16-0.011-0.202-0.003c0.02,0.01,0.036,0.018,0.065,0.033
							L584.118,205.153z"/>
						<path fill="#FCBA54" d="M579.463,216.895l0.003,0.001L579.463,216.895z"/>
						<path fill="#FCBA54" d="M579.813,217.786c0.045-0.087-0.313-0.189-0.499-0.294c-0.051-0.15,0.271,0.06,0.458,0.1
							c-0.061-0.107-0.35-0.294-0.315-0.339c0.058,0.021,0.082,0.02,0.146,0.062c-0.239-0.188,0.076-0.217-0.228-0.446
							c0.032,0.007,0.063,0.016,0.088,0.026c-0.175-0.06-0.349-0.133-0.471-0.188c0.012-0.042-0.183-0.167,0.045-0.086
							c-0.017,0.021,0.072,0.062,0.137,0.104l-0.079-0.083c0.335,0.1,0.087,0.105,0.322,0.207c-0.069-0.127-0.293-0.335-0.177-0.359
							c0.318,0.12,0.044,0.192,0.356,0.227l-0.16,0.046c0.523,0.137-0.06,0.044,0.496,0.202c0.145-0.09-0.099-0.212,0.047-0.302
							c-0.161-0.103-0.261-0.1-0.423-0.202c-0.236-0.313,0.848,0.188,0.487-0.122c-0.194-0.123-0.585-0.301-0.335-0.309l0.341,0.18
							c0.087-0.11-0.48-0.283-0.188-0.314c0.13,0.081,0.077,0.146,0.127,0.145c0.315,0.031-0.176-0.143-0.148-0.208l0.319,0.116
							c0.007-0.153-0.159-0.392-0.155-0.561c0.091,0.046,0.179,0.111,0.289,0.115c-0.079-0.249,0.205-0.379,0.468-0.485
							l-0.244-0.176c0.01-0.015,0.136,0.019,0.182,0.057c0.133-0.029-0.172-0.071-0.266-0.146c-0.002-0.047,0.18,0.009,0.251,0.066
							c-0.18-0.214-0.354-0.542-0.005-0.559l0.07,0.056c0.154-0.059-0.515-0.327-0.22-0.323l0.041,0.037
							c0.21-0.174,0.065-0.506,0.531-0.525c-0.386-0.178,0.251-0.156-0.298-0.373c0.317-0.027,0.404,0.045,0.649-0.067
							c0.042-0.039-0.322-0.197-0.36-0.277l0.291,0.103l-0.277-0.19l0.361,0.082l-0.056-0.083c-0.024,0.016-0.146,0-0.229-0.033
							c-0.103-0.134,0.272-0.139,0.423-0.088l-0.177-0.293c0.115,0.046,0.144,0.095,0.209,0.148
							c-0.259-0.215,0.313,0.089,0.075-0.108c-0.07-0.01-0.171-0.069-0.229-0.092c0.192,0.012,0.232-0.102,0.187-0.212l0.195,0.087
							c0.102-0.135,0.012-0.356,0.073-0.526c-0.114,0.029-0.457-0.106-0.474-0.168l0.314,0.087c-0.18-0.099-0.134,0.012-0.345-0.135
							c0.057-0.051,0.364,0.079,0.452,0.15l-0.081-0.115c0.094,0.027,0.137,0.063,0.252,0.108c-0.181-0.098,0.354-0.027,0.037-0.188
							l0.094,0.027c0.06-0.17-0.02-0.285,0.012-0.43c-0.266-0.093-0.188-0.128-0.39-0.243c0.119-0.073,0.367-0.116,0.386-0.247
							c-0.104-0.131-0.217-0.102-0.361-0.194c0.244,0.075,0.263-0.055,0.416,0.067c0.01-0.161,0.015-0.205-0.119-0.458
							c-0.107-0.013-0.157-0.004-0.236-0.044c-0.029-0.047,0.128-0.043,0.242,0l0.022,0.018c-0.294-0.33,0.872-0.251,0.421-0.585
							l0.022,0.018l-0.206-0.26c0.068-0.066,0.167,0.107,0.337,0.097c-0.343-0.319,0.159-0.277-0.061-0.518
							c0.76,0.111,0.092-0.439,0.605-0.455l-0.173-0.044c-0.152-0.094,0.114-0.02,0.164-0.039c-0.134-0.037-0.168-0.003-0.252-0.058
							c-0.084-0.417,0.475-0.65,0.742-0.964c0.086-0.118-0.856-0.35-0.399-0.39l0.301,0.146c-0.296-0.385,0.181-0.542-0.061-0.903
							c0.067,0.038,0.162,0.068,0.153,0.093c0.246,0.016,0.074-0.201-0.113-0.26c0.034-0.034,0.172,0.043,0.275,0.048
							c0.151-0.014-0.25-0.23-0.014-0.188c0.039,0.006,0.07,0.039,0.085,0.054c-0.101-0.071,0.079-0.159-0.195-0.207
							c0.156-0.059-0.061-0.224,0.12-0.253c-0.28-0.143,0.193-0.124-0.22-0.27c0.43,0.142,0.401-0.063,0.217-0.188
							c0.125,0.061,0.152-0.012,0.325,0.068c0.016-0.072-0.044-0.162-0.271-0.219c0.558,0.03-0.335-0.391,0.35-0.259
							c-0.168-0.282-0.265-0.525-0.309-0.746c0.429,0.14-0.021,0.222,0.434,0.354c-0.122-0.234-0.461-0.453-0.302-0.598
							c0.072-0.028,0.179,0.084,0.247,0.123c-0.122-0.234,0.146-0.334-0.04-0.566c0.04,0.013,0.078,0.043,0.106,0.07
							c-0.005-0.036,0.086-0.053-0.111-0.11l0.044,0.047c-0.3-0.038-0.556-0.309-0.704-0.36c0.545,0.227,0.189-0.114,0.873,0.19
							c-0.031-0.032-0.116-0.087-0.249-0.123c0.048-0.019,0.128-0.005,0.268,0.072c-0.072-0.146-0.293-0.17-0.258-0.271
							c0.096,0.03,0.126,0.062,0.233,0.106c-0.169-0.109-0.338-0.218-0.231-0.279c0.056,0.023,0.133,0.036,0.124,0.062
							c0.017-0.157-0.415-0.405-0.187-0.512c0.397,0.175,0.152-0.013,0.512,0.088l-0.079-0.12l-0.185-0.019
							c0.031-0.073-0.207-0.221-0.068-0.25l0.128,0.102l-0.021-0.162l-0.162,0.038c-0.158-0.134-0.453-0.132-0.321-0.202
							c0.03,0.032,0.029-0.075,0.253-0.048v0c-0.101-0.073-0.208-0.149-0.101-0.177c0.118,0.021,0.39,0.135,0.469,0.149
							c-0.285-0.13-0.024-0.203-0.326-0.35c0.069,0.039,0.257,0.099,0.296,0.106l-0.231-0.107c0.089-0.011,0.128-0.004,0.275,0.049
							c0.079-0.091-0.463-0.109-0.228-0.173c0.017,0.016,0.055,0.023,0.084,0.055c0.144-0.093-0.073-0.291,0.084-0.369
							c0.369,0.081,0.055,0.129,0.369,0.187c-0.011-0.187-0.315-0.482-0.179-0.616l-0.049,0.017
							c-0.497-0.185,0.288-0.04,0.077-0.198c0.031,0.032,0.271,0.117,0.218,0.093c0.117-0.083-0.051-0.265-0.154-0.484l0.123,0.063
							c0.137-0.027,0.123-0.149,0.205-0.2c-0.122-0.063-0.088-0.097-0.284-0.134c0.808,0.027-0.259-0.545,0.418-0.533
							c-0.007,0.023,0.095,0.092,0.102,0.075l-0.065-0.204c-0.224-0.061-0.14-0.023-0.322-0.046
							c-0.123-0.064-0.208-0.145-0.194-0.185c0.12,0.123,0.352,0.118,0.484,0.127c-0.069-0.017-0.14-0.053-0.209-0.073
							c0.418,0.045-0.436-0.163-0.135-0.191l0.113,0.045c-0.045-0.063-0.184-0.155-0.135-0.191c0.26,0.066,0.103,0.086,0.311,0.16
							c0.007-0.071-0.438-0.293-0.165-0.268c0.062,0.052,0.049,0.093,0.11,0.145c0.318,0.036,0.245,0.002,0.309-0.03l-0.009,0.002
							l0.172-0.066l-0.09,0.001c-0.633-0.308-0.065-0.21-0.461-0.469c0.373,0.249,0.23,0.099,0.515,0.206
							c0.089-0.001,0.192-0.014,0.269,0.026c-0.214-0.132,0.211-0.025-0.103-0.215c0.094,0.028,0.027-0.053,0.255,0.038
							c-0.05-0.093-0.165-0.039-0.279-0.084c-0.28-0.215,0.464-0.116,0.081-0.417c-0.134-0.193-0.437-0.326-0.551-0.501
							c0.16,0.01,0.324,0.151,0.324,0.151c0.157-0.019,0.148-0.077,0.063-0.177c0.076,0.041,0.148,0.052,0.258,0.069
							c-0.008-0.059-0.323-0.152-0.166-0.17c0.099,0.047,0.258,0.12,0.353,0.18c-0.065-0.089-0.218-0.208-0.28-0.298
							c0.165,0.041,0.23,0.123,0.328,0.181c-0.05-0.094-0.087-0.229-0.333-0.34l-0.105,0.012c-0.004-0.03,0.223,0.064,0.263,0.099
							c0.18,0.129-0.115,0.054-0.209,0.024l-0.045-0.064c-0.554-0.146,0.029,0.206-0.031,0.282l-0.38-0.175l0.296,0.205
							c-0.108-0.017-0.332-0.081-0.377-0.145c-0.214-0.005,0.122,0.104-0.112,0.083c-0.036-0.006-0.054-0.015-0.067-0.026
							l0.097,0.103c-0.079-0.041-0.281-0.087-0.212-0.104c-0.263,0.031,0.236,0.281-0.075,0.219l-0.021-0.018
							c0.082,0.2,0.284,0.116,0.584,0.349l-0.736-0.17l0.283,0.115c-0.016,0.012-0.048,0.036-0.161-0.01
							c0.178,0.127,0.129,0.033,0.304,0.132c-0.287-0.015,0.055,0.252-0.411,0.111c0.21,0.103,0.193-0.015,0.319,0.12
							c-0.503-0.147,0.054,0.123-0.196,0.115c-0.248-0.109-0.092-0.129-0.343-0.137c0.418,0.19-0.139,0.104-0.075,0.191
							c0.343,0.12,0.101,0.177,0.183,0.314c-0.113-0.045-0.25,0.122-0.404,0.171l-0.057-0.022c0.342,0.135,0.245,0.208,0.294,0.301
							c-0.208-0.073-0.285-0.113-0.366-0.182l-0.02,0.065c0.106,0.053,0.158,0.093,0.185,0.148l-0.255-0.104
							c-0.015,0.091,0.249,0.276,0.039,0.33c0.24,0.087,0.705,0.137,0.829,0.308c-0.133-0.039-0.359-0.109-0.403-0.158
							c0.015,0.016,0.098,0.072,0.035,0.074l-0.206-0.12c-0.113,0.018,0.177,0.088,0.143,0.121c-0.188-0.063-0.144-0.014-0.291-0.07
							c-0.015-0.016,0.09-0.009,0.021-0.049c-0.049,0.035-0.179,0.053-0.326,0.024c0.108,0.031,0.252,0.084,0.266,0.125
							c-0.015,0.091-0.235-0.045-0.348-0.026c0.123,0.064-0.03,0.075,0.25,0.168c-0.01,0.025-0.143-0.013-0.222-0.029
							c0.109,0.086-0.033,0.221,0.281,0.269l0.023-0.005l0.01,0.012l0.001,0l-0.001,0c0.231,0.237-0.259,0.252-0.187,0.437
							l-0.094-0.031c0.079,0.122,0,0.214,0.182,0.341c-0.009,0.025-0.191,0.005-0.3-0.042c0.049,0.089,0.152,0.13-0.034,0.177
							c-0.143-0.12-0.153-0.024-0.098-0.107c-0.109,0.06-0.267,0.031-0.04,0.206c-0.23-0.108-0.325-0.032-0.267,0.032l0.192-0.005
							c0.021,0.057-0.015,0.091-0.049,0.125l-0.31-0.124c-0.444,0.055,0.552,0.527-0.139,0.458c0.207,0.117,0.188-0.047,0.434,0.077
							c-0.069,0.068-0.553,0.009-0.562,0.035c-0.213,0.057,0.43,0.25,0.271,0.328c0.118,0.021,0.425,0.101,0.503,0.221
							c-0.068,0.068-0.508-0.048-0.582-0.127c-0.003-0.022,0.036-0.021,0.074-0.008c-0.032-0.039-0.069-0.088-0.203-0.095
							l0.109,0.046c-0.128,0.004-0.153,0.12-0.33,0.036c0.088,0.095,0.177,0.084,0.251,0.057c-0.198,0.054-0.06,0.162-0.202,0.235
							c0.067,0.002,0.206,0.028,0.199,0.044c-0.188,0.114,0.194,0.136,0.211,0.258c-0.191,0.007-0.406-0.149-0.294,0.003
							c-0.138,0.029-0.306-0.079-0.39-0.134c0.188,0.166-0.2,0.138-0.257,0.182l-0.076-0.08c0.045,0.048,0.036,0.072,0.027,0.098
							l0.235,0.041c-0.048,0.018-0.058,0.043-0.151,0.014c0.139,0.077,0.385,0.093,0.568,0.217
							c-0.127,0.005,0.086,0.162-0.219,0.083c0.141-0.096-0.307-0.08-0.322-0.202c0.029,0.032,0.021,0.057-0.028,0.075
							c-0.035-0.006-0.062-0.023-0.076-0.037c-0.306,0.038,0.323,0.161,0.277,0.285c-0.164-0.068-0.33-0.07-0.301-0.039
							c0.02-0.05,0.291,0.063,0.406,0.15c-0.156,0.04,0.071,0.118,0.043,0.156l0.077-0.029c0.164,0.069,0.13,0.102,0.166,0.175
							c-0.134-0.036-0.075-0.08-0.14-0.077c0.279,0.155-0.352,0.045-0.178,0.195c-0.127,0.005-0.319-0.095-0.408-0.083
							c0.189,0.166-0.265,0.034-0.115,0.193c0.237,0.041,0.184,0.019,0.383,0.16l-0.108-0.219l0.298,0.211
							c0.02-0.05-0.11-0.152-0.062-0.17c0.17,0.109,0.115,0.086,0.312,0.121c-0.363-0.037,0.156,0.2-0.099,0.208l-0.563-0.177
							c-0.289,0.043,0.224,0.305,0.033,0.418l0.113-0.021c0.218,0.091,0.002,0.107,0.077,0.186c-0.188-0.063-0.266-0.052-0.39-0.067
							c0.141,0.041-0.048,0.111,0.324,0.243l-0.27-0.007c-0.141,0.096,0.492,0.312,0.391,0.414c-0.193-0.1-0.344-0.086-0.466-0.214
							c-0.014,0.041-0.06,0.066,0.071,0.107c-0.126-0.013,0.219,0.192,0.028,0.174c0.077,0.043,0.273,0.11,0.243,0.151
							c-0.039-0.007-0.093-0.029-0.093-0.029c0.093,0.029,0.104,0.111,0.325,0.136c-0.626-0.058-0.064,0.364-0.603,0.316
							c0.035,0.108,0.063,0.235,0.053,0.32c-0.056-0.023-0.095-0.03-0.07-0.039c-0.209,0.057,0.521,0.237,0.286,0.303
							c-0.324-0.03-0.145-0.119-0.272-0.114c-0.625-0.176,0.038,0.179-0.351,0.152l-0.029-0.032c-0.231,0,0.186,0.232,0.108,0.325
							c0,0-0.053-0.022-0.093-0.03c0.294,0.171,0.355,0.342,0.412,0.472c-0.232-0.107-0.114-0.086-0.366-0.144
							c0.021,0.057,0.399,0.11,0.44,0.224c-0.142-0.012-0.278,0.018-0.544-0.055l0.013-0.091c-0.354-0.062-0.022,0.116-0.096,0.143
							l-0.147-0.052c0.008,0.147,0.382,0.267,0.312,0.401l0.117,0.02c0.348,0.194-0.229,0,0.023,0.164l-0.384-0.094
							c0.075,0.08,0.309,0.294,0.352,0.408c-0.264-0.14-0.373-0.292-0.519-0.411c-0.019,0.05-0.025,0.182,0.152,0.267
							c-0.03-0.032-0.114-0.086-0.05-0.089c0.276,0.155,0.397,0.283,0.359,0.382c-0.724-0.246-0.265,0.208-0.858,0.101
							c0.211,0.262-0.233,0.314-0.259,0.533c0.592,0.108-0.004,0.065,0.583,0.239c0.021,0.06,0.005,0.075-0.034,0.067l-0.396,0.034
							c-0.182-0.02-0.113-0.086-0.245-0.124c-0.08,0.09-0.262-0.036-0.439-0.017c0.213,0.053,0.285,0.133,0.187,0.167l0.296,0.002
							c0.261,0.247-0.53-0.032-0.273,0.215l-0.167-0.106c0.082,0.111-0.098,0.277,0.344,0.505c-0.071-0.009-0.236-0.043-0.267-0.09
							c-0.131,0.158,0.36,0.567,0.026,0.613l-0.138-0.061c0.029,0.047,0.247,0.148,0.09,0.143c-0.058-0.022-0.137-0.061-0.15-0.048
							c0.043,0.034,0.218,0.173,0.12,0.19l-0.146-0.092c-0.245,0.114,0.297,0.401,0.345,0.583c-0.417-0.142-0.6-0.049-0.689-0.002
							l-0.059-0.022c-0.12,0.187,0.228,0.467,0.327,0.714c-0.491-0.039-0.324,0.335-0.641,0.436
							c0.085-0.002,0.322,0.119,0.353,0.167c-0.1,0.015,0.246,0.225-0.132,0.083l0.013-0.013c-0.385-0.099-0.316,0.028-0.351,0.096
							l0.494,0.189c-0.786-0.071,0.101,0.586-0.581,0.456c0.108,0.09,0.088,0.146,0.197,0.235l-0.266-0.099
							c-0.109,0.1-0.164,0.15-0.152,0.328l-0.18-0.101c-0.046,0.081,0.729,0.391,0.718,0.478l-0.404-0.122
							c-0.04,0.158-0.461,0.17-0.16,0.452c-0.057-0.024-0.169-0.072-0.176-0.101c-0.039,0.065-0.38,0.165,0.174,0.346
							c-0.354-0.132-0.099,0.138,0.023,0.277l-0.255-0.112c0.304,0.195,0.394,0.232,0.446,0.362
							c-0.044,0.009-0.217-0.061-0.138-0.065c-0.167,0.021,0.222,0.153,0.046,0.19l-0.152-0.098
							c-0.052,0.068,0.04,0.097,0.215,0.215c0.084,0.089-0.126,0.12-0.365,0.038c0.139,0.067,0.312,0.184,0.226,0.203
							c-0.092-0.029-0.14-0.067-0.163-0.086c-0.229,0.057,0.222,0.31-0.07,0.296c-0.086-0.033-0.131-0.044-0.16-0.047
							c0.049-0.099,0.098-0.174,0.113-0.159c-0.239-0.095-0.315-0.031-0.617-0.227c0.152,0.136,0.496,0.405,0.35,0.44
							c-0.024-0.006-0.048-0.013-0.086-0.023l-0.023-0.019c-0.032,0.009-0.017,0.034,0.017,0.066
							c-0.05,0.009-0.085,0.014-0.099,0.037c-0.201-0.07-0.146,0.05-0.173,0.087c0.262,0.103,0.198,0.139,0.434,0.177
							c-0.021-0.001-0.027-0.02-0.027-0.052c-0.005-0.009-0.006-0.018-0.02-0.028l0.021,0.012c0.004-0.03,0.013-0.067,0.025-0.109
							c0.119,0.086,0.216,0.166,0.053,0.151c0.157,0.091,0.319,0.185,0.396,0.229c-0.387-0.092-0.628-0.065-0.857-0.143
							c0.094,0.185-0.026,0.332,0.427,0.615c0.048,0.062-0.156-0.018-0.238-0.037c-0.04-0.041-0.022-0.063-0.088-0.103
							c0.095,0.124-0.04,0.23,0.293,0.392c-0.191,0.024-0.292-0.183-0.288-0.037l-0.097-0.061c-0.643,0.007,0.699,0.767-0.108,0.734
							c0.05,0,0.074,0,0.132,0.021c-0.434,0.17,0.02,0.76-0.589,0.844c-0.133,0.041,0.077,0.148,0.218,0.276l-0.282-0.108
							l0.278,0.236c0.178,0.236-0.764-0.093-0.395,0.272l0.193,0.066c-0.06,0.042,0.031,0.235-0.177,0.125
							c0.031,0.022,0.184,0.109,0.078,0.087l-0.144-0.066l0.185,0.258c-0.149,0.061-0.559-0.287-0.653-0.141
							c0.03,0.085,0.343,0.369,0.447,0.393c0.018-0.021,0.115-0.019,0.259,0.048l0.051,0.091c0.415,0.212,0.825,0.464,1.177,0.467
							l-0.217-0.219l0.217,0.067l-0.021,0.086c0.211,0.046,0.054-0.064-0.05-0.152c0.112,0.044,0.193,0.067,0.242,0.067
							l-0.362-0.286c0.17,0.067,0.309,0.198,0.426,0.178c-0.168-0.133-0.386-0.133-0.479-0.264c0.211,0.045,0.361,0.132,0.221,0.001
							c0.111,0.044,0.176,0.088,0.214,0.132c-0.109-0.109-0.001-0.153-0.215-0.283c0.257,0.063,0.007-0.19,0.403,0.001
							c-0.089-0.06-0.277-0.23-0.275-0.282c0.444,0.303,0.097-0.151,0.602,0.107c-0.405-0.258-0.101-0.304-0.296-0.519
							c0.032,0.021,0.097,0.065,0.071,0.064c0.061-0.043,0.198-0.001,0.296-0.002c-0.354-0.169-0.396-0.298-0.596-0.447
							c0.375,0.083,0.4,0.233,0.741,0.36c-0.291-0.127-0.235-0.257-0.487-0.341c0.236,0.041,0.123-0.001,0.432,0.103
							c-0.443-0.21-0.054-0.086-0.309-0.254c0.254,0.018,0.428,0.166,0.329,0.017C579.687,217.636,579.813,217.786,579.813,217.786z
							 M579.918,215.351l0.005,0.002c-0.001,0.021-0.003,0.038-0.003,0.049C579.919,215.392,579.919,215.377,579.918,215.351z
							 M579.987,215.174c-0.019,0.018-0.032,0.043-0.042,0.072c-0.093-0.03-0.183-0.074-0.17-0.09
							C579.831,215.19,579.9,215.17,579.987,215.174z M578.027,214.811c-0.025-0.042,0.029-0.03,0.084-0.012
							c-0.001,0.015,0.002,0.033,0.012,0.06l0.03,0.016C578.105,214.851,578.061,214.828,578.027,214.811z"/>
						<path fill="#FCBA54" d="M578.348,214.999c0.004,0.006,0.015,0.013,0.015,0.019c0.025,0.003,0.047,0.005,0.065,0.007
							l-0.078-0.042L578.348,214.999z"/>
						<path fill="#FCBA54" d="M584.143,198.995l-0.007,0.001c0.012,0.001,0.022,0.003,0.04,0.005
							C584.162,198.999,584.154,198.997,584.143,198.995z"/>
						<polygon fill="#FCBA54" points="581.451,212.912 581.385,212.888 581.438,212.925 						"/>
						<path fill="#FCBA54" d="M585.383,198.314c0.023,0.006,0.049,0.01,0.072,0.01C585.438,198.319,585.411,198.316,585.383,198.314
							z"/>
						<path fill="#FCBA54" d="M585.582,197.91l0.114-0.028C585.634,197.89,585.602,197.9,585.582,197.91z"/>
						<path fill="#FCBA54" d="M585.82,197.629c-0.045-0.019-0.08-0.033-0.111-0.045l-0.002,0L585.82,197.629z"/>
						<path fill="#FCBA54" d="M584.454,202.918c0,0.005,0.002,0.01,0.008,0.017C584.505,202.981,584.491,202.955,584.454,202.918z"
							/>
						<path fill="#FCBA54" d="M584.313,201.169c0.044,0.032,0.086,0.063,0.111,0.089
							C584.453,201.237,584.465,201.217,584.313,201.169z"/>
						<polygon fill="#FCBA54" points="584.243,204.761 584.238,204.759 584.235,204.771 						"/>
						<path fill="#FCBA54" d="M584.396,201.329c0.062-0.011,0.058-0.038,0.028-0.07
							C584.398,201.275,584.361,201.293,584.396,201.329z"/>
						<path fill="#FCBA54" d="M586.405,196.26l0.016-0.012c-0.017-0.007-0.031-0.013-0.042-0.017L586.405,196.26z"/>
						<path fill="#FCBA54" d="M586.379,196.231l-0.025-0.028C586.352,196.211,586.351,196.219,586.379,196.231z"/>
						<path fill="#FCBA54" d="M586.299,196.143l0.055,0.061C586.358,196.19,586.372,196.178,586.299,196.143z"/>
						<path fill="#FCBA54" d="M586.141,196.648l0.095,0.039C586.216,196.679,586.186,196.666,586.141,196.648z"/>
						<path fill="#FCBA54" d="M586.126,196.789c0.032-0.023,0.23-0.006,0.185-0.071l-0.075-0.031
							C586.372,196.757,585.974,196.702,586.126,196.789z"/>
						<path fill="#FCBA54" d="M584.755,196.924l0.113-0.084c-0.108-0.016-0.255-0.039-0.264-0.098
							C584.253,196.777,584.844,196.793,584.755,196.924z"/>
						<path fill="#FCBA54" d="M584.493,197.217c-0.028-0.076-0.149-0.051-0.207-0.074
							C584.367,197.213,584.389,197.23,584.493,197.217z"/>
						<path fill="#FCBA54" d="M583.675,199.701l-0.241-0.084C583.453,199.673,583.527,199.647,583.675,199.701z"/>
						<polygon fill="#FCBA54" points="584.778,200.576 584.944,200.58 584.729,200.488 						"/>
						<polygon fill="#FCBA54" points="582.949,200.306 582.921,200.274 582.984,200.379 						"/>
						<path fill="#FCBA54" d="M581.737,204.513l0.305,0.08C581.998,204.544,581.661,204.433,581.737,204.513z"/>
						<path fill="#FCBA54" d="M581.49,206.412c-0.156-0.027-0.269-0.006-0.131,0.071
							C581.393,206.448,581.522,206.444,581.49,206.412z"/>
						<polygon fill="#FCBA54" points="579.232,211.584 579.146,211.514 579.206,211.61 						"/>
					</g>
				</g>
			</g>
		</g>
	</g>
</g>
<g>
	<path fill-rule="evenodd" clip-rule="evenodd" fill="none" stroke="#FBB03B" stroke-width="0.5" stroke-miterlimit="10" d="
		M341.466,443.197c0-7.377,0.127-14.754-0.059-22.124c-0.08-3.13,0.801-4.427,4.112-4.284c4.905,0.214,9.828,0.022,14.743,0
		c9.789-0.041,19.494,10.236,12.031,20.844c-1.458,2.066-1.159,2.912,0.611,4.346c5.55,4.507,7.313,10.376,4.763,17.026
		c-2.608,6.798-8.075,10.203-15.226,10.496c-6.541,0.27-14.731,2.473-19.206-0.572c-4.85-3.3-1.115-12.034-1.727-18.363
		C341.275,448.128,341.472,445.652,341.466,443.197z"/>
	<path fill-rule="evenodd" clip-rule="evenodd" fill="none" stroke="#FBB03B" stroke-width="0.5" stroke-miterlimit="10" d="
		M501.316,461.467c4.175-9.832,7.835-18.429,12.014-28.268c4.214,9.717,8.034,18.52,12.213,28.157
		c3.589-8.759,6.864-16.67,10.066-24.611c0.619-1.539,1.041-3.667,3.107-2.834c2.347,0.945,0.444,2.703-0.064,3.979
		c-4.17,10.406-8.413,20.783-13.146,32.433c-3.007-7.046-5.438-13.124-8.222-19.039c-0.933-1.994-1.213-5.375-4.03-5.264
		c-2.617,0.104-3.129,3.074-4.004,5.333c-2.279,5.888-4.791,11.688-7.773,18.884c-3.237-7.616-6.042-14.183-8.824-20.754
		c-1.589-3.76-3.316-7.473-4.644-11.326c-0.442-1.292-2.624-3.229-0.463-4.189c2.283-1.017,2.847,1.563,3.549,3.219
		c2.618,6.206,5.238,12.421,7.851,18.634C499.576,457.31,500.201,458.807,501.316,461.467z"/>
	<path fill-rule="evenodd" clip-rule="evenodd" fill="none" stroke="#FBB03B" stroke-width="0.5" stroke-miterlimit="10" d="
		M451.753,469.319c-2.215,0.155-1.838-1.77-1.838-3.098c-0.031-15.342-0.031-30.685-0.005-46.023c0-1.347-0.32-3.309,1.764-3.203
		c1.889,0.095,1.716,1.962,1.716,3.375c0.016,6.744,0.011,13.492,0.011,21.527c2.121-2.28,3.407-3.787,4.818-5.152
		c6.467-6.267,15.516-3.99,17.396,4.749c1.82,8.442,0.607,17.122,0.717,25.692c0.016,1.109-0.398,2.126-1.627,2.174"/>
	<path fill-rule="evenodd" clip-rule="evenodd" fill="none" stroke="#FBB03B" stroke-width="0.5" stroke-miterlimit="10" d="
		M572.103,463.336c-3.853,3.936-7.655,6.957-12.987,6.916c-5.829-0.042-10.074-3.035-10.912-7.863
		c-1-5.776,1.406-9.553,7.483-11.587c4.336-1.449,8.826-1.681,13.356-1.487c2.986,0.132,3.9-0.791,3.05-4.004
		c-2.24-8.435-9.936-11.44-17.1-6.449c-1.108,0.77-1.968,3.569-3.727,1.291c-1.302-1.692,0.688-2.894,1.864-3.905
		c6.791-5.862,17.464-3.408,20.993,4.965c3.638,8.634,1.285,17.818,2.032,26.731c0.031,0.404-0.573,1.246-0.852,1.229
		c-0.734-0.031-1.91-0.246-2.083-0.709C572.686,467.078,572.545,465.541,572.103,463.336z"/>
	<path fill-rule="evenodd" clip-rule="evenodd" fill="none" stroke="#FBB03B" stroke-width="0.5" stroke-miterlimit="10" d="
		M612.005,463.298c-4.09,4.699-8.292,7.355-13.899,6.924c-5.596-0.426-9.567-3.827-10.021-8.985
		c-0.459-5.262,2.532-8.524,7.097-10.225c4.247-1.586,8.8-2.017,13.323-1.703c3.994,0.284,4.53-1.626,3.594-4.854
		c-2.245-7.777-10.044-10.255-16.988-5.39c-1.051,0.735-1.984,2.817-3.442,1.286c-1.749-1.843,0.592-2.866,1.579-3.867
		c3.731-3.797,8.581-4.223,13.138-2.688c5.693,1.914,8.91,6.732,9.409,12.569c0.594,6.914,0.252,13.904,0.38,20.865
		c0.016,1.134,0.02,2.026-1.429,2.089c-1.063,0.047-1.354-0.62-1.556-1.476C612.912,466.666,612.582,465.503,612.005,463.298z"/>
	<path fill-rule="evenodd" clip-rule="evenodd" fill="none" stroke="#FBB03B" stroke-width="0.5" stroke-miterlimit="10" d="
		M436.161,461.103c1.563,1.787-1.034,3.152-2.23,4.342c-4.785,4.751-11.176,6.132-16.899,3.197
		c-6.799-3.486-10.066-9.564-10.263-17.015c-0.27-10.241,7.248-18.377,16.578-18.467c4.868-0.179,8.705,1.928,11.844,5.459
		c0.9,1.012,2.298,2.293,0.779,3.628"/>
	<path fill-rule="evenodd" clip-rule="evenodd" fill="none" stroke="#FBB03B" stroke-width="0.5" stroke-miterlimit="10" d="
		M390.726,436.373c0.001-1.197-0.032-2.666,1.712-2.625"/>
	<path fill-rule="evenodd" clip-rule="evenodd" fill="none" stroke="#FBB03B" stroke-width="0.5" stroke-miterlimit="10" d="
		M390.689,466.466"/>
	<path fill-rule="evenodd" clip-rule="evenodd" fill="none" stroke="#FBB03B" stroke-width="0.5" stroke-miterlimit="10" d="
		M392.438,433.748c1.609,0.043,1.831,1.387,1.835,2.655c0.021,5.123,0.01,10.241,0.018,15.357c0.008,4.914,0.023,9.825,0,14.739
		c-0.008,1.459-0.065,3.089-2.16,2.85c-1.695-0.199-1.442-1.721-1.442-2.884"/>
	<path fill-rule="evenodd" clip-rule="evenodd" fill="none" stroke="#FBB03B" stroke-width="0.5" stroke-miterlimit="10" d="
		M392.489,428.306c-1.598-0.253-2.567-1.256-2.824-2.783c-0.286-1.712,0.727-2.765,2.31-2.999c1.991-0.292,3.146,0.862,3.139,2.781
		C395.108,426.873,394.032,427.879,392.489,428.306z"/>
</g>
</svg>
