<?xml version="1.0" encoding="utf-8"?>
<!-- Generator: Adobe Illustrator 16.0.0, SVG Export Plug-In . SVG Version: 6.00 Build 0)  -->
<!DOCTYPE svg PUBLIC "-//W3C//DTD SVG 1.1//EN" "http://www.w3.org/Graphics/SVG/1.1/DTD/svg11.dtd">
<svg version="1.1" id="Layer_1" xmlns="http://www.w3.org/2000/svg" xmlns:xlink="http://www.w3.org/1999/xlink" x="0px" y="0px"
	 width="960px" height="560px" viewBox="0 0 960 560" enable-background="new 0 0 960 560" xml:space="preserve">
<path fill-rule="evenodd" clip-rule="evenodd" fill="#C69C6D" d="M273.03,93.719c0-0.466,0-0.935,0-1.401
	c1.805,0.207,3.607,0.411,5.413,0.62c12.964,1.503,24.935,4.243,32.815,12.102c0.157,0.156,0.556,0.2,1.118,0.39
	c0.544-1.428,1.018-2.774,1.566-4.104c1.849-4.487,4.154-8.776,10.587-11.29c3.773-1.473,8.284-1.255,11.506,0.666
	c3.327,1.982,5.383,4.503,5.614,7.493c0.118,1.569-0.041,3.364-1.069,4.704c-1.866,2.429-5.371,2.366-7.578,0.137
	c-1.605-1.625-3.746-1.317-5.762-0.637c-3.438,1.157-5.222,3.202-5.83,5.716c-0.43,1.773,0.469,3.125,3.247,3.479
	c3.256,0.416,6.604,0.532,9.819,1.048c2.207,0.354,4.254,1.163,6.373,1.768c-1.527,1.244-2.723,2.867-4.658,3.639
	c-2.622,1.044-5.808,1.436-8.914,2.146c0.328,0.335,0.529,0.756,0.95,0.936c6.653,2.869,12.883,6.505,20.104,8.379
	c13.368,3.467,30.308,1.367,35.154-11.404c2.733-7.204,4.456-14.445,4.102-21.869c-0.056-1.165-1.515-2.299-2.078-3.098
	c-3.539,2.032-6.431,3.837-9.579,5.405c-0.861,0.427-2.918,0.494-3.643,0.088c-0.745-0.419-0.933-1.689-0.66-2.471
	c0.979-2.792,2.519-5.505,3.28-8.315c0.289-1.057-0.45-2.85-1.619-3.361c-3.309-1.449-7.154-1.246-10.348,0.281
	c-1.487,0.711-2.322,2.122-3.188,3.305c-0.208,0.287,0.816,0.906,0.958,1.413c0.234,0.823,0.683,1.845,0.194,2.488
	c-1.45,1.913-4.008,2.421-7.014,1.797c-4.295-0.894-7.328-2.86-9.526-5.423c-3.964-4.62-1.905-8.888,5.276-11.129
	c6.195-1.935,12.551-1.184,18.901-0.497c1.135,0.124,2.282,0.194,3.697,0.31c-6.716-10.666-7.429-22.469-1.833-28.56
	c11.643,6.059,21.018,13.096,22.688,24.069c1.746-1.309,2.753-2.258,4.034-2.992c3.657-2.091,7.048-4.598,11.224-6.023
	c8.459-2.889,15.441-0.597,17.128,5.191c0.877,2.997,0.158,5.933-2.434,8.473c-0.915,0.895-2.445,1.671-3.944,2.082
	c-2.887,0.791-5.223-0.387-5.439-2.5c-0.222-2.154-2.508-2.876-5.017-2.619c-2.387,0.243-4.952,0.883-6.85,1.87
	c-4.338,2.255-4.151,4.262,0.174,6.525c2.904,1.52,5.988,2.89,8.798,4.483c0.917,0.52,1.866,1.65,1.622,2.296
	c-0.236,0.622-1.973,1.352-3.085,1.385c-3.772,0.109-7.561-0.072-12.033-0.154c0.103,0.879-0.482,2.625,0.537,3.591
	c6.654,6.318,14.358,11.968,24.739,15.575c8.196,2.848,16.135,2.442,23.672-1.181c5.842-2.808,10.054-6.557,13.464-10.766
	c7.647-9.446,11.685-19.711,14.595-30.198c0.416-1.483-0.63-3.153-0.913-4.359c-4.371,1.185-7.935,2.374-11.688,3.1
	c-3.078,0.596-4.641-0.869-3.348-2.854c0.551-0.844,1.392-1.606,2.162-2.376c1.8-1.804,3.702-3.563,5.44-5.394
	c1.688-1.775,0.992-3.233-1.574-4.352c-3.085-1.344-6.331-1.684-9.836-0.853c-2.72,0.644-3.669,1.774-3.157,3.772
	c0.211,0.826-0.495,2.133-1.45,2.649c-2.356,1.268-5.023,0.882-7.288-0.311c-3.615-1.903-5.499-4.491-6.216-7.538
	c-1.178-4.983,2.946-8.729,10.362-8.835c3.337-0.047,6.844,0.41,10.018,1.142c3.811,0.879,7.351,2.296,11.459,3.624
	c-0.284-1.34-0.52-2.307-0.688-3.28c-1.411-8.018,2.791-14.966,8.905-21.559c0.759-0.817,1.259-1.746,1.88-2.621
	c0.689,0,1.378,0,2.067,0c0.495,0.754,0.967,1.517,1.496,2.26c2.188,3.074,4.649,6.072,6.536,9.226
	c3.077,5.145,3.708,10.504,1.368,16.514c2.17-0.782,3.493-1.349,4.915-1.755c4.205-1.201,8.328-2.652,12.711-3.429
	c6.283-1.111,12.932,1.188,14.623,4.575c1.906,3.805-1.212,9.919-6.37,11.925c-1.467,0.57-3.587,0.853-5.207,0.627
	c-2.249-0.313-4.339-1.148-3.152-3.303c0.936-1.705-0.328-2.859-2.609-3.534c-3.304-0.976-6.514-0.653-9.569,0.507
	c-3.473,1.321-4.09,2.644-1.983,4.947c2.055,2.244,4.544,4.307,6.552,6.569c0.741,0.84,0.646,2.021,0.936,3.044
	c-1.597,0.192-3.386,0.792-4.748,0.494c-3.401-0.746-6.606-1.9-10.347-3.027c-0.311,1.066-1.264,2.386-0.938,3.538
	c2.59,9.177,6.289,18.153,12.253,26.608c4.812,6.821,10.868,13.004,20.954,16.862c5.977,2.285,11.783,2.457,17.891,0.08
	c10.573-4.113,17.817-10.427,24.784-16.917c0.83-0.771,0.355-2.188,0.424-2.763c-4.536,0.069-8.336,0.242-12.115,0.111
	c-1.111-0.039-2.638-0.794-3.073-1.484c-0.297-0.464,0.75-1.587,1.612-2.071c2.823-1.584,5.846-3.006,8.778-4.502
	c4.681-2.388,4.783-4.443,0.063-6.808c-1.603-0.799-3.64-1.338-5.599-1.639c-3.459-0.535-5.231,0.537-5.779,2.92
	c-0.148,0.652-0.854,1.434-1.654,1.792c-2.512,1.129-5.715,0.749-7.392-1.297c-1.62-1.977-3.176-4.317-3.182-6.5
	c-0.025-5.911,4.396-10.166,15.021-8.125c3.068,0.591,5.958,1.935,8.546,3.276c3.221,1.671,6.046,3.699,9.101,5.609
	c1.74-10.318,10.937-17.368,23.203-23.598c4.207,10.053,5.818,19.476-2.843,28.83c1.583-0.109,2.558-0.184,3.537-0.241
	c4.43-0.256,8.883-0.795,13.294-0.687c5.523,0.136,10.43,1.649,12.695,5.351c2.238,3.657-0.313,6.725-3.998,9.262
	c-1.785,1.23-4.237,2.055-6.527,2.892c-0.923,0.337-2.253,0.38-3.329,0.264c-3.756-0.404-4.931-2.504-3.511-4.852
	c0.572-0.948,0.104-2.657-0.876-3.471c-2.263-1.875-5.667-2.176-9.13-1.883c-3.872,0.329-5.274,1.542-4.352,4.111
	c0.971,2.711,2.387,5.354,3.3,8.073c0.288,0.867,0.059,2.246-0.771,2.722c-0.741,0.427-2.995,0.261-3.95-0.22
	c-3.053-1.541-5.815-3.35-8.967-5.218c-1.611,0.631-2.891,1.832-2.626,3.712c0.307,2.165,0.533,4.338,0.67,6.512
	c0.393,6.171,1.874,12.208,5.122,17.989c5.29,9.41,18.881,13.676,32.961,10.417c8.343-1.933,14.929-5.708,21.353-9.604
	c0.93-0.562,1.184-1.642,1.352-1.886c-4.309-1.417-8.242-2.404-11.652-3.934c-2.834-1.271-2.198-2.73,1.03-3.432
	c0.865-0.188,1.771-0.3,2.669-0.393c3.396-0.342,6.808-0.621,10.191-1.006c2.356-0.269,4.014-1.086,4.073-2.907
	c0.087-2.689-3.323-6.119-7.196-6.757c-1.269-0.209-3.642,0.126-4.11,0.722c-1.291,1.631-3.171,2.366-5.215,1.527
	c-1.711-0.699-3.386-2.151-3.789-3.455c-0.964-3.098,0.484-6.011,3.313-8.537c4.478-3.994,10.339-4.396,16.074-1.229
	c4.838,2.667,6.631,6.427,8.266,10.258c0.578,1.35,1.06,2.719,1.586,4.078c-0.197-0.292-0.393-0.584-0.588-0.877
	c3.206-1.75,6.311-3.601,9.648-5.227c9.022-4.398,19.361-6.208,30.253-6.854c0,0.467,0,0.935,0,1.401
	c-0.928,0.411-1.944,0.751-2.771,1.243c-4.744,2.82-9.297,5.801-14.188,8.499c-17.23,9.5-32.527,20.115-43.32,33.454
	c-5.191,6.417-10.692,12.756-12.422,20.095c-0.617,2.619-2.188,3.085-5.73,3.083c-85.846-0.11-171.693-0.14-257.539-0.185
	c-0.573,0-1.155-0.036-1.72,0.006c-2.067,0.157-3.017-0.278-3.289-1.854c-0.504-2.918-1.089-5.883-2.359-8.677
	c-4.618-10.162-13.376-18.853-23.604-26.589c-9.837-7.441-21.363-13.859-32.237-20.661C282.621,99.242,277.773,96.519,273.03,93.719
	z"/>
<circle fill="#3F0036" cx="480" cy="321.072" r="222.256"/>
<path fill-rule="evenodd" clip-rule="evenodd" fill="#C69C6D" d="M438.817,261.202c-0.421-1.832-1.29-3.697-1.164-5.489
	c0.21-2.919,0.77-5.895,1.717-8.659c2.427-7.063,4.333-14.19,4.913-21.68c0.507-6.58,1.694-13.047,4.475-19.142
	c2.525-5.535,0.919-11.509,1.58-17.25c0.597-5.17,0.633-10.451,1.746-15.5c0.683-3.093,2.935-5.84,4.475-8.745
	c1.034-1.947,2.425-3.797,3.013-5.874c1.569-5.502,2.555-11.175,4.22-16.643c1.413-4.631,3.326-9.127,5.269-13.573
	c1.137-2.594,3.299-3.967,6.33-3.974c10.039-0.022,18.32,4.011,18.108,16.643c-0.074,4.435-1.314,8.923-2.542,13.241
	c-1.251,4.402-3.771,8.077-8.88,9.73c1.014,0.668,1.646,1.257,2.395,1.551c4.774,1.869,7.937,5.313,9.567,10.071
	c2.462,7.192,4.718,14.458,7.13,21.668c0.2,0.594,0.833,1.134,1.399,1.479c0.48,0.29,1.165,0.398,1.74,0.352
	c10.067-0.781,20.294-1.197,28.438-8.34c2.759-2.416,5.45-1.996,8.661-0.802c-1.057,2.555-2.14,5.098-3.149,7.669
	c-0.175,0.445-0.101,1.013-0.056,1.515c0.34,3.907,0.705,7.814,1.074,11.875c1.148,0.095,2.139,0.178,3.463,0.286
	c0.543,4.13,1.122,8.331,1.646,12.539c1.53,12.311,2.965,24.637,4.619,36.933c0.377,2.836-0.309,4.212-2.939,5.69
	c-5.568,3.124-11.167,4.729-17.562,3.629c-3.179-0.542-6.462-0.473-9.83-0.689c0-0.933,0-1.747,0-1.96
	c-7.022-1.978-13.783-3.885-20.737-5.843c-0.974,3.944-1.844,7.937-2.978,11.851c-0.359,1.251-1.649,2.212-2.12,3.454
	c-0.753,1.969-1.299,4.043-1.704,6.118c-0.355,1.838-0.259,3.762-0.605,5.604c-2.552,13.568,0.207,26.59,4.456,39.316
	c2.728,8.172,6.182,16.121,9.675,24.005c1.019,2.303,3.357,4,4.964,6.068c0.944,1.216,2.416,2.771,2.208,3.913
	c-0.189,1.055-2.223,1.924-3.591,2.569c-1.049,0.493-2.314,0.588-3.5,0.727c-6.106,0.723-6.949,0.222-9.844-5.253
	c-1.427-2.696-2.994-5.313-4.5-7.971c-0.348,0.019-0.698,0.03-1.049,0.049c-0.561,2.934-1.121,5.868-1.829,9.558
	c-0.314-2.438-0.445-4.183-0.782-5.887c-0.644-3.267-1.491-6.493-2.096-9.767c-0.424-2.274,0.063-4.216,1.832-6.066
	c0.756-0.794,0.643-3.076,0.1-4.324c-2.085-4.777-4.635-9.347-6.759-14.109c-1.738-3.884-3.115-7.927-4.76-12.175
	c-1.273,1.361-2.755,2.85-4.131,4.427c-4.829,5.539-9.915,10.89-14.332,16.745c-2.847,3.772-4.763,8.27-6.929,12.529
	c-0.505,0.988-0.37,2.317-0.451,3.5c-0.184,2.723-0.189,5.467-0.525,8.17c-0.213,1.727-1.25,2.428-3.122,1.607
	c-2.931-1.281-5.338-3.06-6.723-6.016c-1.038-2.211-1.108-4.423-0.024-6.679c0.578-1.212,0.956-2.518,1.554-4.138
	c-3.337-0.154-6.317-0.205-9.277-0.479c-1.111-0.103-2.361-0.478-3.23-1.146c-4.759-3.639-9.392-7.438-14.12-11.12
	c-1.146-0.888-1.591-1.796-1.276-3.263c3.662-16.972,7.276-33.949,10.915-50.922c0.12-0.575,0.357-1.126,0.58-1.809
	c1.471,0.449,2.854,0.865,4.228,1.299c3.506,1.102,4.363,0.763,6.116-2.407c0.284-0.513,0.624-0.995,0.936-1.491
	c-1.33,4.567-1.33,4.569,2.706,6.757c0.125,0.065,0.317,0.007,0.476,0.005c1.063-2.465,1.957-11.38,1.308-13.626
	C439.679,261.349,439.135,261.308,438.817,261.202z M534.507,202.853c0.526,1.949,0.953,3.936,1.615,5.839
	c0.384,1.095,1.146,2.061,1.74,3.083c0.305-0.132,0.608-0.262,0.913-0.393c-0.423-4.415-0.84-8.829-1.258-13.223
	c-2.592,0.194-3.7,1.125-2.885,3.5c0.125,0.366-0.046,0.833-0.063,1.271c-0.523,2.595-1.051,5.19-1.641,8.099
	c1.302-0.119,2.02-0.185,2.958-0.27C535.408,207.999,534.96,205.426,534.507,202.853z M526.572,203.094
	c0.17-0.746,0.34-1.493,0.537-2.361c-0.586,0.075-0.855,0.059-1.089,0.146c-9.153,3.521-18.313,7.022-27.43,10.648
	c-0.518,0.207-0.963,1.491-0.861,2.19c0.356,2.445,1.373,4.844,1.41,7.275c0.11,7.417-0.129,14.84-0.209,22.262
	c-0.028,2.682-0.005,5.368-0.005,8.643c7.626-14.75,15.018-29.044,22.333-43.196c1.041-0.117,1.92-0.213,2.803-0.312
	c0.815,1.771,2.404,2.434,3.404,0.764c1.594-2.657,3.194-5.62,1.2-9.385C527.871,201.026,527.223,202.062,526.572,203.094z
	 M448.579,324.227c0.616-0.927,1.102-1.606,1.538-2.317c2.147-3.482,4.688-6.79,6.332-10.493c3.382-7.629,7.796-14.457,13.98-20.045
	c2.5-2.259,2.799-4.961,2.359-7.923c-0.213-1.421-0.945-2.763-1.182-4.184c-0.455-2.745-2.093-2.876-4.311-2.325
	c-1.717,0.425-3.491,0.887-5.235,0.878c-4.217-0.022-8.435-0.454-12.652-0.436c-2.203,0.013-2.951-0.603-2.529-2.794
	c0.999-5.202,1.69-10.473,2.88-15.631c2.96-12.82,6.042-25.615,9.264-38.373c0.827-3.263,2.324-6.361,3.597-9.504
	c0.454-1.11,1.169-2.113,1.921-3.438c-2.283,0.113-4.044,0.199-5.319,0.263c-1.776,4.963-3.458,9.611-5.097,14.274
	c-1.863,5.299-4.106,10.514-5.389,15.952c-0.885,3.747-0.465,7.813-0.535,11.735c-0.062,3.449-0.739,6.591-3.481,9.011
	c-0.405,0.358-0.533,1.208-0.525,1.825c0.071,5.646,0.137,11.294,0.382,16.929c0.041,0.896,0.783,2.167,1.55,2.544
	c2.239,1.089,2.529,2.707,2.506,4.987C448.515,297.904,448.579,310.642,448.579,324.227z M443.544,278.444c0-5.53,0-10.938,0-16.351
	c-0.308-0.038-0.623-0.078-0.931-0.12c-0.805,3.757-1.607,7.511-2.417,11.267C439.579,276.098,440.834,277.735,443.544,278.444z
	 M533.569,199.439c-3.281,2.775-4.447,7.896-2.744,11.878C532.849,211.076,534.027,206.109,533.569,199.439z"/>
<path fill="#C69C6D" d="M440.581,385.697l12.05,32.066c0.636,1.659,1.239,2.862,1.801,3.609c0.563,0.743,1.106,1.215,1.627,1.407
	c0.518,0.197,1.177,0.328,1.982,0.396v0.406h-13.142v-0.406c1.347,0,2.387-0.118,3.114-0.358c0.728-0.236,1.095-0.879,1.095-1.932
	c0-0.574-0.177-1.346-0.52-2.31c-0.076-0.137-0.111-0.237-0.111-0.306l-3.579-9.936h-13.933l-3.197,9.201
	c-0.438,1.25-0.655,2.261-0.655,3.021c0,1.053,0.28,1.75,0.848,2.096c0.561,0.351,1.364,0.523,2.401,0.523v0.406h-9.452v-0.406
	c1.347-0.118,2.427-0.6,3.237-1.435c0.81-0.84,1.517-2.114,2.119-3.823l11.364-32.222H440.581z M431.428,406.99h12.817l-6.56-17.759
	h-0.111L431.428,406.99z"/>
<path fill="#C69C6D" d="M465.801,386.69h-0.549v-0.533h13.936c2.239,0,4.139,0.321,5.695,0.964c1.559,0.644,2.771,1.462,3.633,2.45
	c0.866,0.992,1.485,2.04,1.857,3.139c0.374,1.105,0.561,2.188,0.561,3.252c0,1.356-0.305,2.656-0.914,3.9
	c-0.61,1.247-1.549,2.317-2.815,3.212c-1.267,0.901-2.846,1.512-4.736,1.831v0.104c2.398,1.083,4.621,3.234,6.662,6.451l3.632,5.721
	c1.645,2.556,2.959,4.173,3.952,4.853c0.99,0.675,1.973,1.057,2.936,1.143v0.406h-7.325c-0.306-0.372-0.598-0.734-0.871-1.08
	c-0.272-0.347-0.564-0.716-0.875-1.106c-0.179-0.252-0.451-0.639-0.806-1.156c-0.355-0.516-0.566-0.808-0.643-0.876l-4.806-7.393
	c-0.967-1.506-1.954-2.73-2.966-3.67c-1.012-0.942-1.955-1.615-2.828-2.022c-0.874-0.405-1.665-0.659-2.364-0.761
	c-0.699-0.104-1.526-0.15-2.472-0.15v13.692c0,2.658,1.455,4.03,4.372,4.116v0.406h-12.815v-0.406
	c0.801-0.034,1.512-0.173,2.131-0.418c0.622-0.247,1.135-0.67,1.547-1.272c0.408-0.601,0.615-1.411,0.615-2.426v-28.306
	c0-1.489-0.394-2.541-1.177-3.148C467.585,386.995,466.728,386.69,465.801,386.69z M473.695,404.375h2.292
	c2.407,0,4.377-0.323,5.917-0.966c1.54-0.646,2.656-1.564,3.349-2.76c0.688-1.193,1.035-2.652,1.035-4.382
	c0-1.438-0.306-2.848-0.927-4.228c-0.619-1.382-1.672-2.541-3.155-3.482s-3.482-1.41-5.999-1.41c-1.02,0-1.86,0.077-2.512,0.228
	V404.375z"/>
<path fill="#C69C6D" d="M506.62,386.587v-0.43h23.984v5.895h-0.382c0-3.15-2.257-4.728-6.773-4.728h-8.392v16.998h7.379
	c1.456,0,2.76-0.216,3.905-0.661c1.147-0.441,1.803-1.445,1.967-3.025h0.41v8.489h-0.41c-0.164-0.968-0.471-1.706-0.925-2.222
	c-0.46-0.519-0.911-0.86-1.354-1.029c-0.45-0.172-0.843-0.254-1.189-0.254c-0.656-0.102-1.343-0.154-2.049-0.154h-7.734v13.292
	c0,0.998,0.205,1.86,0.618,2.589c0.409,0.728,1.361,1.09,2.855,1.09h5.979c1.438,0,2.628-0.193,3.553-0.581
	c0.929-0.391,1.665-0.93,2.199-1.627c0.537-0.692,0.989-1.535,1.356-2.515H532l-1.396,5.869H506.62v-0.406h0.545
	c0.856,0,1.694-0.321,2.515-0.966c0.816-0.643,1.23-1.693,1.23-3.15v-28.202c0-1.151-0.282-2.153-0.838-3
	c-0.553-0.848-1.526-1.271-2.907-1.271H506.62z"/>
<path fill="#C69C6D" d="M539.761,386.587v-0.43h23.986v5.895h-0.384c0-3.15-2.259-4.728-6.773-4.728h-8.39v16.998h7.377
	c1.455,0,2.759-0.216,3.905-0.661c1.149-0.441,1.804-1.445,1.969-3.025h0.411v8.489h-0.411c-0.165-0.968-0.474-1.706-0.929-2.222
	c-0.456-0.519-0.906-0.86-1.354-1.029c-0.445-0.172-0.84-0.254-1.186-0.254c-0.656-0.102-1.338-0.154-2.051-0.154H548.2v13.292
	c0,0.998,0.208,1.86,0.617,2.589c0.41,0.728,1.361,1.09,2.854,1.09h5.985c1.438,0,2.623-0.193,3.55-0.581
	c0.925-0.391,1.66-0.93,2.2-1.627c0.533-0.692,0.983-1.535,1.351-2.515h0.384l-1.394,5.869h-23.986v-0.406h0.546
	c0.854,0,1.695-0.321,2.512-0.966c0.819-0.643,1.229-1.693,1.229-3.15v-28.202c0-1.151-0.276-2.153-0.832-3
	c-0.556-0.848-1.525-1.271-2.909-1.271H539.761z"/>
<path fill="#C69C6D" d="M614.619,386.157v0.43c-1.022,0.121-1.826,0.301-2.42,0.546c-0.591,0.247-1.052,0.729-1.375,1.45
	c-0.33,0.719-0.495,1.757-0.495,3.113v32.829h-0.272l-30.901-32.066v23.021c0,1.912,0.085,3.334,0.25,4.267
	c0.163,0.932,0.397,1.601,0.709,2.006c0.672,0.883,1.846,1.356,3.523,1.425v0.406h-10.083v-0.406
	c1.13-0.055,2.011-0.276,2.638-0.674c0.625-0.397,1.075-1.125,1.339-2.186c0.266-1.059,0.396-2.656,0.396-4.788V391.11l-1.335-1.399
	c-1.188-1.252-2.135-2.044-2.846-2.373c-0.711-0.332-1.594-0.579-2.647-0.751v-0.43h7.566l30.434,31.709v-24.163
	c0-1.814-0.077-3.168-0.232-4.064c-0.152-0.9-0.562-1.617-1.228-2.161c-0.665-0.541-1.708-0.838-3.128-0.891v-0.43H614.619z"/>
<path fill="#C69C6D" d="M409.508,402.245h-0.904c-0.673-3.559-2.469-6.578-5.398-9.052c-2.927-2.472-6.284-4.278-10.079-5.414
	c-3.792-1.14-7.338-1.708-10.632-1.708c-4.504,0-8.735,0.884-12.688,2.646c-3.956,1.764-7.367,4.255-10.24,7.468
	c-2.87,3.216-5.106,7.075-6.7,11.574c-1.599,4.503-2.394,9.39-2.394,14.667c0,5.114,0.77,9.854,2.314,14.218
	c1.54,4.373,3.791,8.163,6.752,11.376c2.961,3.217,6.392,5.651,10.293,7.297c3.898,1.648,8.226,2.473,12.977,2.473
	c3.97,0,8.33-0.746,13.085-2.25c4.749-1.498,9.039-3.999,12.871-7.493v2.819c-4.72,3.396-9.033,5.886-12.955,7.471
	c-3.913,1.583-8.801,2.371-14.649,2.371c-6.17,0-11.8-1.044-16.887-3.14c-5.088-2.093-9.387-4.921-12.898-8.479
	c-3.508-3.565-6.168-7.57-7.976-12.021c-1.808-4.452-2.712-9.034-2.712-13.753c0-7.086,1.876-13.676,5.633-19.755
	c3.763-6.086,8.851-10.903,15.266-14.449c6.418-3.54,13.384-5.313,20.907-5.313c4.643,0,9.584,0.64,14.834,1.928l5.53,1.434
	c1.062,0.197,1.966,0.299,2.712,0.299c1.385,0,2.305-0.191,2.764-0.571c0.462-0.379,0.817-1.065,1.066-2.051h0.851L409.508,402.245z
	"/>
<path fill="#C69C6D" d="M351.907,417.126h37.983c6.194,0,11.755,0.885,16.68,2.652c4.923,1.773,9.036,4.223,12.339,7.354
	c3.301,3.129,5.787,6.688,7.454,10.682c1.665,3.995,2.503,8.216,2.503,12.661c0,4.329-0.782,8.368-2.338,12.11
	c-1.558,3.748-3.908,7.068-7.054,9.962c-3.148,2.901-7.077,5.156-11.797,6.783c-4.716,1.622-10.034,2.434-15.949,2.434h-39.821
	v-1.271c3.645,0,5.997-0.753,7.051-2.26s1.58-3.534,1.58-6.081v-45.197c0-2.397-0.47-4.425-1.413-6.078
	c-0.946-1.653-3.178-2.478-6.702-2.478h-0.516V417.126z M375.968,421.469v47.352l0.057,9.267l10.703,0.077
	c0,0,5.189-0.167,7.362-0.504c2.168-0.334,4.214-1,6.131-1.998c2.832-1.517,5.167-3.612,7.011-6.272
	c1.836-2.663,3.183-5.586,4.03-8.777c0.852-3.189,1.273-6.479,1.273-9.872c0-3.515-0.501-7.008-1.506-10.488
	c-1.008-3.484-2.653-6.7-4.931-9.654c-2.283-2.955-5.362-5.338-9.25-7.155c-3.887-1.809-8.609-2.72-14.18-2.72
	C380.687,420.723,378.455,420.97,375.968,421.469z"/>
<path fill="#C69C6D" d="M432.48,442.019v-0.687h18.91v0.737c-2.098,0-3.45,0.442-4.059,1.334c-0.61,0.889-0.916,2.064-0.916,3.519
	v26.272c0,0.83,0.08,1.572,0.244,2.233c0.165,0.664,0.599,1.261,1.302,1.793c0.697,0.534,1.768,0.803,3.206,0.803h0.222v0.733
	h-18.91v-0.733c2.078,0,3.425-0.442,4.042-1.323c0.622-0.881,0.933-2.049,0.933-3.506v-26.272c0-1.728-0.405-2.976-1.215-3.745
	C435.43,442.402,434.177,442.019,432.48,442.019z"/>
<path fill="#C69C6D" d="M461.869,441.332h21.991c3.587,0,6.805,0.514,9.661,1.535c2.848,1.024,5.226,2.446,7.14,4.26
	c1.912,1.812,3.352,3.876,4.316,6.186c0.966,2.311,1.45,4.756,1.45,7.331c0,2.505-0.452,4.843-1.354,7.014
	c-0.902,2.166-2.264,4.089-4.086,5.765c-1.818,1.677-4.101,2.985-6.829,3.926c-2.731,0.94-5.812,1.409-9.235,1.409h-23.055v-0.733
	c2.109,0,3.471-0.438,4.082-1.309c0.607-0.874,0.914-2.046,0.914-3.521v-26.169c0-1.392-0.271-2.565-0.816-3.521
	c-0.549-0.956-1.844-1.435-3.883-1.435h-0.296V441.332z M475.797,443.847v27.417c0,1.32,0.16,2.371,0.478,3.15
	c0.317,0.779,0.918,1.351,1.792,1.714c0.876,0.364,2.194,0.546,3.961,0.546c1.585,0,3.006-0.099,4.26-0.292
	c1.26-0.193,2.441-0.577,3.553-1.152c1.641-0.884,2.993-2.095,4.063-3.639c1.062-1.54,1.841-3.234,2.334-5.079
	c0.49-1.847,0.737-3.75,0.737-5.718c0-2.032-0.295-4.056-0.875-6.072c-0.584-2.018-1.535-3.879-2.856-5.587
	c-1.321-1.712-3.105-3.093-5.352-4.144c-2.253-1.05-4.986-1.574-8.214-1.574C478.533,443.417,477.235,443.56,475.797,443.847z"/>
<path fill="#C69C6D" d="M538.515,440.977l13.523,32.368c0.729,1.659,1.587,2.802,2.569,3.421c0.984,0.616,2.193,1.034,3.635,1.258
	v0.733h-19.069v-0.733c2.605-0.137,3.905-0.902,3.905-2.288c0-0.219-0.041-0.531-0.123-0.929s-0.19-0.821-0.329-1.271
	c-0.137-0.445-0.222-0.725-0.258-0.824l-3.358-7.953h-12.021l-2.87,7.649c-0.365,0.911-0.544,1.743-0.544,2.486
	c0,1.156,0.36,1.928,1.09,2.327c0.729,0.397,1.591,0.666,2.597,0.803v0.733h-12.076v-0.733c1.256-0.12,2.431-0.666,3.523-1.642
	c1.092-0.975,2.147-2.766,3.172-5.373l11.421-30.032H538.515z M527.913,462.269h10.027l-5.19-12.604L527.913,462.269z"/>
<path fill="#C69C6D" d="M582.681,458.103h19.019v-11.131c0-1.354-0.273-2.512-0.822-3.468c-0.547-0.956-1.838-1.435-3.879-1.435
	h-0.273v-0.737h18.907v0.737c-2.114,0-3.473,0.447-4.076,1.348c-0.6,0.898-0.896,2.08-0.896,3.555v26.223
	c0,0.814,0.082,1.554,0.243,2.224c0.165,0.668,0.589,1.271,1.284,1.803c0.693,0.534,1.749,0.803,3.166,0.803h0.278v0.733h-18.907
	v-0.733c2.129,0,3.494-0.442,4.084-1.323c0.591-0.881,0.891-2.049,0.891-3.506v-12.601h-19.019v12.601
	c0,0.83,0.082,1.581,0.246,2.249c0.165,0.667,0.593,1.267,1.284,1.791c0.692,0.524,1.749,0.789,3.171,0.789h0.273v0.733h-18.907
	v-0.733c2.114,0,3.469-0.442,4.072-1.323c0.598-0.881,0.899-2.049,0.899-3.506v-26.223c0-1.371-0.278-2.532-0.834-3.48
	c-0.553-0.951-1.844-1.422-3.864-1.422h-0.273v-0.737h18.907v0.737c-2.079,0-3.426,0.442-4.042,1.334
	c-0.619,0.889-0.933,2.078-0.933,3.568V458.103z"/>
<path fill="#3F0036" d="M531.438,276.425h-0.19c-0.143-0.751-0.521-1.384-1.137-1.906c-0.614-0.521-1.323-0.9-2.121-1.139
	c-0.798-0.239-1.545-0.36-2.238-0.36c-0.947,0-1.838,0.187-2.67,0.557c-0.832,0.371-1.551,0.896-2.156,1.572
	c-0.604,0.677-1.072,1.489-1.409,2.437c-0.335,0.947-0.505,1.976-0.505,3.086c0,1.077,0.165,2.073,0.487,2.992
	c0.325,0.921,0.8,1.719,1.422,2.396c0.624,0.677,1.345,1.188,2.167,1.536c0.819,0.347,1.731,0.521,2.732,0.521
	c0.835,0,1.752-0.158,2.753-0.474c0.998-0.316,1.901-0.841,2.707-1.578v0.594c-0.99,0.715-1.899,1.239-2.724,1.572
	s-1.855,0.499-3.086,0.499c-1.296,0-2.481-0.219-3.553-0.66c-1.073-0.442-1.977-1.035-2.714-1.785
	c-0.74-0.749-1.301-1.594-1.679-2.529c-0.382-0.938-0.571-1.903-0.571-2.895c0-1.492,0.395-2.879,1.186-4.16
	c0.79-1.28,1.862-2.292,3.212-3.041c1.352-0.745,2.818-1.118,4.4-1.118c0.979,0,2.02,0.133,3.123,0.405l1.165,0.302
	c0.224,0.042,0.413,0.063,0.57,0.063c0.29,0,0.485-0.041,0.583-0.12c0.095-0.079,0.171-0.224,0.223-0.433h0.18L531.438,276.425z"/>
<path fill="#3F0036" d="M520.443,280.748h9.011c1.47,0,2.789,0.209,3.957,0.63c1.168,0.421,2.144,1.001,2.927,1.743
	c0.784,0.742,1.374,1.588,1.769,2.535c0.397,0.948,0.596,1.949,0.596,3.005c0,1.027-0.184,1.983-0.556,2.873
	c-0.368,0.89-0.927,1.675-1.673,2.364c-0.745,0.686-1.68,1.223-2.798,1.607c-1.12,0.385-2.381,0.577-3.784,0.577h-9.448v-0.302
	c0.865,0,1.424-0.179,1.672-0.536c0.252-0.356,0.376-0.838,0.376-1.441v-10.725c0-0.568-0.112-1.049-0.337-1.441
	c-0.222-0.392-0.753-0.587-1.588-0.587h-0.123V280.748z M526.152,281.777v11.236l0.012,2.197l2.539,0.019
	c0,0,1.232-0.04,1.748-0.119c0.515-0.079,1.002-0.237,1.455-0.474c0.671-0.361,1.225-0.856,1.663-1.49
	c0.436-0.63,0.754-1.325,0.957-2.083c0.2-0.754,0.302-1.536,0.302-2.341c0-0.833-0.12-1.662-0.357-2.489
	c-0.24-0.826-0.63-1.588-1.17-2.29c-0.542-0.699-1.274-1.266-2.196-1.697c-0.921-0.429-2.041-0.645-3.362-0.645
	C527.271,281.602,526.741,281.659,526.152,281.777z"/>
<path fill="#3F0036" d="M529.483,229.876h-0.229c-0.169-0.896-0.619-1.651-1.354-2.273c-0.732-0.622-1.578-1.074-2.528-1.358
	c-0.951-0.285-1.843-0.429-2.67-0.429c-1.128,0-2.19,0.222-3.182,0.665c-0.992,0.442-1.849,1.067-2.57,1.875
	c-0.719,0.807-1.279,1.774-1.68,2.905c-0.399,1.128-0.603,2.355-0.603,3.679c0,1.284,0.195,2.472,0.582,3.568
	c0.385,1.097,0.951,2.048,1.693,2.855c0.745,0.807,1.604,1.417,2.585,1.832c0.976,0.413,2.063,0.62,3.256,0.62
	c0.995,0,2.09-0.189,3.283-0.565c1.188-0.377,2.267-1.002,3.227-1.882v0.709c-1.181,0.851-2.265,1.477-3.247,1.874
	c-0.983,0.396-2.212,0.594-3.679,0.594c-1.546,0-2.958-0.26-4.237-0.786c-1.277-0.528-2.354-1.234-3.233-2.128
	c-0.883-0.894-1.55-1.9-2.002-3.016c-0.455-1.118-0.682-2.269-0.682-3.451c0-1.779,0.471-3.433,1.414-4.959
	c0.942-1.527,2.222-2.733,3.829-3.625c1.611-0.889,3.361-1.333,5.245-1.333c1.169,0,2.407,0.158,3.724,0.482l1.391,0.361
	c0.266,0.051,0.491,0.075,0.679,0.075c0.345,0,0.579-0.049,0.695-0.143c0.113-0.095,0.203-0.267,0.266-0.516h0.214L529.483,229.876z
	"/>
<path fill="#3F0036" d="M516.375,235.029h10.743c1.753,0,3.325,0.25,4.717,0.752c1.393,0.501,2.556,1.193,3.489,2.077
	c0.935,0.885,1.638,1.894,2.108,3.022c0.474,1.13,0.709,2.324,0.709,3.583c0,1.225-0.217,2.365-0.661,3.425
	c-0.439,1.06-1.105,1.996-1.994,2.818c-0.89,0.818-2.004,1.458-3.334,1.917c-1.337,0.458-2.84,0.688-4.513,0.688h-11.265v-0.361
	c1.031,0,1.698-0.213,1.993-0.638c0.3-0.426,0.449-1,0.449-1.719v-12.785c0-0.678-0.134-1.251-0.402-1.719
	c-0.264-0.466-0.897-0.7-1.892-0.7h-0.148V235.029z M523.182,236.256v13.396l0.014,2.62l3.027,0.022c0,0,1.47-0.048,2.083-0.143
	c0.614-0.094,1.196-0.284,1.735-0.564c0.801-0.432,1.461-1.021,1.982-1.776c0.521-0.751,0.9-1.58,1.143-2.483
	c0.238-0.9,0.358-1.832,0.358-2.791c0-0.994-0.144-1.981-0.426-2.968c-0.287-0.985-0.751-1.893-1.396-2.73
	c-0.646-0.834-1.52-1.51-2.618-2.024c-1.096-0.511-2.433-0.768-4.008-0.768C524.517,236.047,523.884,236.116,523.182,236.256z"/>
</svg>
