<svg xmlns="http://www.w3.org/2000/svg" xmlns:xlink="http://www.w3.org/1999/xlink" xmlns:fi="http://pattern.flaticon.com/" x="0" y="0" width="700" height="350" viewBox="0 0 272.22222222222223 136.11111111111111"><rect x="0px" y="0px" width="100%" height="100%" opacity="0" fill="#ffffff"/><defs><g transform="matrix(0.09803921729326248 0 0 0.09803921729326248 99 36)" id="L1_4"><path d="M612,306C612,137.004,474.995,0,306,0C137.004,0,0,137.004,0,306c0,168.995,137.004,306,306,306    C474.995,612,612,474.995,612,306z M27.818,306C27.818,152.36,152.36,27.818,306,27.818S584.182,152.36,584.182,306    S459.64,584.182,306,584.182S27.818,459.64,27.818,306z"/><path d="M317.739,482.617V306h58.279l9.208-58.529h-67.487v-29.348c0-15.272,5.007-29.849,26.928-29.849h43.813v-58.418h-62.201    c-52.298,0-66.569,34.438-66.569,82.175v35.413h-35.885V306h35.885v176.617H317.739L317.739,482.617z"/></g></defs><g fi:class="KUsePattern"><pattern id="pattern_L1_4" width="350" height="350" patternUnits="userSpaceOnUse"><use xlink:href="#L1_4" x="-350" y="-350"/><use xlink:href="#L1_4" x="0" y="-350"/><use xlink:href="#L1_4" x="350" y="-350"/><use xlink:href="#L1_4" x="-350" y="0"/><use xlink:href="#L1_4" x="0" y="0"/><use xlink:href="#L1_4" x="350" y="0"/><use xlink:href="#L1_4" x="-350" y="350"/><use xlink:href="#L1_4" x="0" y="350"/><use xlink:href="#L1_4" x="350" y="350"/></pattern><rect x="0" y="0" width="100%" height="100%" fill="url(#pattern_L1_4)"/></g></svg>