<?xml version="1.0" encoding="utf-8"?>
<!-- Generator: Adobe Illustrator 16.0.0, SVG Export Plug-In . SVG Version: 6.00 Build 0)  -->
<!DOCTYPE svg PUBLIC "-//W3C//DTD SVG 1.1//EN" "http://www.w3.org/Graphics/SVG/1.1/DTD/svg11.dtd">
<svg version="1.1" id="Layer_1" xmlns="http://www.w3.org/2000/svg" xmlns:xlink="http://www.w3.org/1999/xlink" x="0px" y="0px"
	 width="960px" height="560px" viewBox="0 0 960 560" enable-background="new 0 0 960 560" xml:space="preserve">
<rect width="960" height="560"/>
<g>
	<g>
		<g>
			<path fill="#D3992D" d="M349.272,55.382v81.315h82.527V55.382h22.285v194.335h-22.285v-91.117h-82.527v91.117h-22.025V55.382
				H349.272z"/>
		</g>
	</g>
	<g>
		<g>
			<path fill="#D3992D" d="M665.253,156.018h-90.959v73.777h90.959v19.923H447.87v-19.923h101.924v-73.777H447.87v-19.69h217.383
				V156.018z"/>
		</g>
	</g>
</g>
<g>
	<g>
		<path fill="#D3992D" d="M219.827,321.709v48.873H205v-93.961h14.827v40.82h61.379v-40.82h14.826v93.961h-14.826v-48.873H219.827z"
			/>
		<path fill="#D3992D" d="M443.638,276.621v4.337H385.64v35.106h49.494v3.854H385.64v46.535h65.63v4.128h-80.785v-93.961H443.638z"
			/>
		<path fill="#D3992D" d="M587.864,276.621v4.337h-57.999v35.106h49.497v3.854h-49.497v46.535h65.632v4.128h-80.784v-93.961H587.864
			z"/>
		<path fill="#D3992D" d="M730.239,276.621v4.199h-34.777v89.762h-15.591V280.82h-35.104v-4.199H730.239z"/>
	</g>
	<rect x="198.5" y="261.5" fill="none" stroke="#D3992D" stroke-miterlimit="10" width="535" height="227"/>
	<rect x="198.5" y="375.5" fill="#D3992D" stroke="#D3992D" stroke-miterlimit="10" width="535" height="113"/>
	<g>
		<rect x="413.409" y="412.413" fill="none" width="108.061" height="66.008"/>
		
			<text transform="matrix(1.1186 0 0 1 413.4092 458.4873)" font-family="'CityComD-Medi'" font-size="69.0776" letter-spacing="13.41">255</text>
	</g>
</g>
</svg>
