<?xml version="1.0" encoding="utf-8"?>
<!-- Generator: Adobe Illustrator 16.0.0, SVG Export Plug-In . SVG Version: 6.00 Build 0)  -->
<!DOCTYPE svg PUBLIC "-//W3C//DTD SVG 1.1//EN" "http://www.w3.org/Graphics/SVG/1.1/DTD/svg11.dtd">
<svg version="1.1" id="Layer_1" xmlns="http://www.w3.org/2000/svg" xmlns:xlink="http://www.w3.org/1999/xlink" x="0px" y="0px"
	 width="960px" height="560px" viewBox="0 0 960 560" enable-background="new 0 0 960 560" xml:space="preserve">
<circle fill="#55C2B9" cx="479.983" cy="280.176" r="219.413"/>
<g>
	<path fill="#333333" d="M369.562,190.665c-1.222-16.734,36.411-29.33,36.907-23.929l-26.078,13.096l-0.23-0.226h0.303
		c5.428-8.895,14.02-14.171,25.932-14.171c17.641,0,30.906,14.924,30.906,37.087c0,26.234-15.979,39.202-33.168,39.202
		c-9.65,0-18.094-4.222-22.465-11.459h-0.301v39.65l-11.984,0.574L369.562,190.665z M381.367,210.364
		c0,1.957,0.301,3.77,0.602,5.427c2.411,9.196,10.405,15.529,19.904,15.529c14.02,0,22.162-11.459,22.162-28.193
		c0-14.625-7.691-27.14-21.712-27.14c-9.045,0-17.487,6.485-20.052,16.435c-0.451,1.656-0.904,3.617-0.904,5.427V210.364z"/>
	<path fill="#333333" d="M530.926,258.688c3.054,1.995,8.441,4.104,13.604,4.104c7.504,0,11.018-3.75,11.018-8.439
		c0-4.924-2.932-7.622-10.552-10.437c-10.198-3.636-15.009-9.264-15.009-16.062c0-9.146,7.389-16.65,19.584-16.65
		c5.742,0,10.785,1.642,13.954,3.517l-2.583,7.503c-2.228-1.406-6.33-3.281-11.609-3.281c-6.096,0-9.494,3.518-9.494,7.737
		c0,4.692,3.398,6.802,10.789,9.617c9.844,3.748,14.889,8.674,14.889,17.117c0,9.965-7.736,17.002-21.221,17.002
		c-6.217,0-11.957-1.527-15.948-3.871L530.926,258.688z"/>
	<path fill="#333333" d="M584.512,242.744c0.232,13.951,9.145,19.697,19.459,19.697c7.391,0,11.844-1.289,15.713-2.931l1.76,7.387
		c-3.637,1.643-9.852,3.52-18.877,3.52c-17.47,0-27.904-11.491-27.904-28.611c0-17.117,10.082-30.602,26.615-30.602
		c18.521,0,23.449,16.297,23.449,26.733c0,2.108-0.235,3.751-0.352,4.807H584.512z M614.762,235.356
		c0.119-6.566-2.697-16.766-14.305-16.766c-10.437,0-15.01,9.613-15.827,16.766H614.762z"/>
	<g>
		<path fill-rule="evenodd" clip-rule="evenodd" fill="#333333" d="M471.067,332.158c-1.687-0.511-2.478-1.194-2.786-2.097
			c-3.303-9.602-6.696-19.197-10.061-28.795c-3.347-9.562-6.684-19.125-10.027-28.688c-1.302-3.707-2.602-7.412-4.285-11.14
			c-1.357,2.224-2.727,4.446-4.078,6.67c-0.563,0.924-1.114,1.849-1.646,2.776c-0.862,1.495-1.93,1.867-5.568,1.845
			c-16.435-0.098-32.875-0.194-49.314-0.307c-16.012-0.11-32.023-0.256-48.035-0.336c-2.602-0.014-4.43-0.371-5.582-1.358
			c0-0.297,0-0.59,0-0.885c1.385-1.003,3.487-1.247,6.09-1.229c30.915,0.228,61.836,0.423,92.754,0.654
			c1.784,0.015,2.527-0.197,2.967-0.95c3.057-5.242,6.229-10.469,9.364-15.703c0.065-0.106,0.172-0.208,0.22-0.316
			c0.451-0.988,1.794-1.591,4.16-1.644c2.059-0.043,3.66,0.671,4.08,1.804c0.777,2.109,1.449,4.219,2.19,6.33
			c3.708,10.62,7.427,21.239,11.141,31.86c2.633,7.526,5.261,15.059,7.891,22.587c0.125,0.348,0.292,0.696,0.864,1.031
			c0.568-3.089,1.145-6.179,1.711-9.267c1.48-8.073,2.966-16.142,4.443-24.213c1.266-6.934,2.521-13.872,3.789-20.804
			c1.475-8.072,2.965-16.142,4.436-24.215c1.273-6.934,2.539-13.867,3.788-20.801c0.427-2.384,0.843-4.771,1.192-7.159
			c0.133-0.93,1.179-1.569,2.931-2.049c0.854,0,1.716,0,2.569,0c2.034,0.517,2.731,1.315,2.929,2.293
			c2.104,10.264,4.234,20.528,6.397,30.79c2.313,10.959,4.676,21.915,7.01,32.871c0.42,1.965,0.811,3.932,1.691,5.961
			c1.316-1.047,2.637-2.09,3.938-3.138c1.572-1.264,3.176-2.521,4.656-3.807c1.061-0.917,2.533-1.353,5.033-1.353
			c35.031-0.001,70.064-0.035,105.1-0.063c2.117-0.002,4.18,0.192,4.648,1.168c0.262,0.547-0.186,1.357-1.05,1.745
			c-0.837,0.375-2.618,0.491-3.989,0.494c-11.305,0.036-22.61,0.021-33.918,0.021c-22.191,0-44.373,0.014-66.562-0.024
			c-2.03-0.002-3.042,0.278-3.935,1.031c-3.504,2.945-7.121,5.867-10.797,8.774c-0.879,0.694-1.928,1.415-3.313,1.905
			c-1.107,0.39-3.076,0.723-4.258,0.556c-1.201-0.173-2.391-0.936-2.718-1.529c-0.632-1.135-0.671-2.332-0.918-3.504
			c-2.124-10.115-4.237-20.233-6.372-30.347c-1.412-6.706-2.845-13.409-4.582-20.146c-0.148,0.208-0.391,0.411-0.427,0.621
			c-1.603,8.805-3.172,17.613-4.78,26.417c-1.625,8.919-3.313,17.831-4.941,26.748c-1.457,7.96-2.861,15.924-4.314,23.887
			c-1.277,7.008-2.6,14.014-3.895,21.02c-0.095,0.516-0.248,1.03-0.189,1.547c0.13,1.1-0.807,1.926-3.07,2.463
			C472.784,332.158,471.927,332.158,471.067,332.158z"/>
	</g>
	<g>
		<path fill="#333333" d="M320.801,372.817h1.443h2.701c1.852,0,3.29,0.403,4.311,1.215c1.019,0.811,1.529,1.955,1.529,3.432
			c0,1.662-0.49,2.914-1.473,3.762c-0.984,0.844-2.438,1.266-4.367,1.266h-1.258v5.934h-1.443h-1.443V372.817z M323.688,379.802
			h1.258c0.979,0,1.717-0.179,2.209-0.535c0.49-0.357,0.736-0.895,0.736-1.608c0-0.713-0.246-1.25-0.736-1.612
			c-0.492-0.358-1.23-0.541-2.209-0.541h-1.258V379.802z"/>
		<path fill="#333333" d="M332.747,376.722h1.485h1.491l2.87,8.076h-0.004l2.854-8.076h1.483h1.493l-4.727,11.703h-1.115h-1.112
			L332.747,376.722z"/>
		<path fill="#333333" d="M347.23,372.817h1.399h1.411v15.607h-1.399h-1.411V372.817z"/>
		<path fill="#333333" d="M358.582,379.886c-0.069-0.332-0.199-0.579-0.393-0.743c-0.191-0.163-0.441-0.247-0.744-0.247
			c-0.32,0-0.584,0.094-0.788,0.277c-0.202,0.186-0.302,0.427-0.302,0.723c0,0.282,0.125,0.507,0.379,0.681
			c0.255,0.17,0.742,0.365,1.465,0.586c1.229,0.378,2.109,0.848,2.637,1.411c0.521,0.564,0.78,1.313,0.78,2.246
			c0,1.175-0.388,2.136-1.161,2.88c-0.777,0.746-1.775,1.116-2.99,1.116c-1.23,0-2.246-0.376-3.045-1.126
			c-0.799-0.751-1.23-1.735-1.285-2.954h2.885c0.084,0.496,0.252,0.873,0.508,1.13c0.252,0.256,0.584,0.386,0.989,0.386
			c0.384,0,0.7-0.107,0.946-0.32c0.246-0.212,0.371-0.485,0.371-0.823c0-0.363-0.111-0.646-0.334-0.844
			c-0.229-0.2-0.663-0.399-1.311-0.598c-1.3-0.398-2.232-0.879-2.795-1.443c-0.556-0.556-0.834-1.289-0.834-2.204
			c0-1.084,0.372-1.972,1.114-2.658c0.741-0.687,1.692-1.03,2.854-1.03c1.018,0,1.89,0.342,2.62,1.021
			c0.727,0.68,1.121,1.525,1.184,2.535H358.582z"/>
		<path fill="#333333" d="M370.361,388.815c-1.69,0-3.133-0.604-4.322-1.817c-1.193-1.213-1.787-2.685-1.787-4.415
			c0-1.729,0.594-3.203,1.787-4.423c1.189-1.22,2.632-1.83,4.322-1.83c1.695,0,3.14,0.61,4.331,1.83
			c1.192,1.22,1.787,2.693,1.787,4.423c0,0.421-0.035,0.831-0.104,1.236h-9.127c0.157,0.509,0.423,0.968,0.794,1.382
			c0.64,0.699,1.436,1.05,2.39,1.05c0.591,0,1.133-0.137,1.622-0.412c0.492-0.275,0.853-0.641,1.086-1.104h2.967
			c-0.377,1.245-1.09,2.236-2.131,2.974C372.934,388.446,371.728,388.815,370.361,388.815z M373.545,381.575
			c-0.137-0.619-0.416-1.159-0.834-1.618c-0.633-0.707-1.418-1.062-2.35-1.062c-0.935,0-1.719,0.354-2.35,1.062
			c-0.406,0.467-0.686,1.008-0.844,1.618H373.545z"/>
		<path fill="#333333" d="M387.969,388.425v-9.229h-1.35v-2.475h1.35v-3.925h2.813v3.925h1.699v2.475h-1.699v9.229H387.969z"/>
		<path fill="#333333" d="M400.842,388.815c-1.688,0-3.129-0.604-4.32-1.817s-1.79-2.685-1.79-4.415c0-1.729,0.599-3.203,1.79-4.423
			s2.633-1.83,4.32-1.83c1.699,0,3.143,0.61,4.333,1.83c1.193,1.22,1.789,2.693,1.789,4.423c0,0.421-0.034,0.831-0.105,1.236h-9.128
			c0.16,0.509,0.422,0.968,0.794,1.382c0.638,0.699,1.437,1.05,2.391,1.05c0.589,0,1.134-0.137,1.624-0.412s0.851-0.641,1.086-1.104
			h2.967c-0.375,1.245-1.088,2.236-2.133,2.974S402.21,388.815,400.842,388.815z M404.025,381.575
			c-0.137-0.619-0.416-1.159-0.836-1.618c-0.629-0.707-1.412-1.062-2.348-1.062c-0.933,0-1.717,0.354-2.348,1.062
			c-0.407,0.467-0.688,1.008-0.844,1.618H404.025z"/>
		<path fill="#333333" d="M421.988,384.612c-0.39,1.279-1.117,2.299-2.179,3.062c-1.06,0.763-2.28,1.142-3.662,1.142
			c-1.716,0-3.177-0.604-4.384-1.817c-1.206-1.213-1.809-2.685-1.809-4.415c0-1.729,0.603-3.203,1.809-4.423
			c1.207-1.22,2.668-1.83,4.384-1.83c1.395,0,2.628,0.387,3.697,1.159c1.075,0.771,1.809,1.806,2.206,3.095h-3.132
			c-0.269-0.549-0.64-0.968-1.116-1.256c-0.479-0.289-1.039-0.433-1.686-0.433c-0.928,0-1.717,0.353-2.363,1.052
			c-0.652,0.699-0.976,1.552-0.976,2.555c0,1.064,0.335,1.955,0.999,2.674c0.666,0.716,1.49,1.075,2.475,1.075
			c0.541,0,1.05-0.147,1.52-0.442c0.47-0.297,0.832-0.694,1.086-1.196H421.988z"/>
		<path fill="#333333" d="M425.406,372.817h1.401h1.411v4.729c0.873-0.824,1.889-1.229,3.051-1.216c1.379,0,2.477,0.469,3.29,1.401
			c0.815,0.935,1.222,2.197,1.222,3.791v6.902h-1.402h-1.412v-6.283c0-1.066-0.195-1.874-0.592-2.428
			c-0.393-0.551-0.975-0.828-1.734-0.828c-0.812,0-1.417,0.28-1.818,0.845c-0.401,0.563-0.604,1.409-0.604,2.534v6.16h-1.399h-1.413
			V372.817z"/>
		<path fill="#333333" d="M439.648,376.722h1.311h1.309v1.01c0.906-0.933,1.991-1.401,3.254-1.401c1.387,0,2.488,0.47,3.303,1.406
			c0.814,0.938,1.221,2.202,1.221,3.798v6.891h-1.401h-1.411v-6.262c0-1.073-0.201-1.886-0.596-2.443
			c-0.398-0.556-0.981-0.834-1.744-0.834c-0.809,0-1.418,0.28-1.822,0.845c-0.404,0.563-0.608,1.409-0.608,2.534v6.16h-1.398h-1.415
			V376.722z"/>
		<path fill="#333333" d="M455.094,386.998c-1.213-1.213-1.818-2.685-1.818-4.415c0-1.729,0.605-3.203,1.818-4.423
			c1.212-1.22,2.68-1.83,4.406-1.83c1.731,0,3.199,0.61,4.414,1.83c1.211,1.22,1.815,2.693,1.815,4.423
			c0,1.73-0.604,3.202-1.815,4.415c-1.215,1.213-2.683,1.817-4.414,1.817C457.773,388.815,456.306,388.211,455.094,386.998z
			 M461.93,385.201c0.652-0.701,0.979-1.573,0.979-2.618c0-1.043-0.326-1.919-0.979-2.626c-0.653-0.707-1.463-1.062-2.43-1.062
			c-0.963,0-1.77,0.354-2.426,1.062c-0.648,0.707-0.976,1.583-0.976,2.626c0,1.045,0.327,1.917,0.976,2.618
			c0.656,0.699,1.463,1.05,2.426,1.05C460.467,386.251,461.276,385.9,461.93,385.201z"/>
		<path fill="#333333" d="M468.983,372.817h1.401h1.412v15.607h-1.404h-1.409V372.817z"/>
		<path fill="#333333" d="M476.834,386.998c-1.211-1.213-1.818-2.685-1.818-4.415c0-1.729,0.607-3.203,1.818-4.423
			c1.213-1.22,2.682-1.83,4.404-1.83c1.73,0,3.202,0.61,4.414,1.83c1.215,1.22,1.818,2.693,1.818,4.423
			c0,1.73-0.604,3.202-1.818,4.415c-1.212,1.213-2.684,1.817-4.414,1.817C479.516,388.815,478.047,388.211,476.834,386.998z
			 M483.67,385.201c0.652-0.701,0.978-1.573,0.978-2.618c0-1.043-0.325-1.919-0.978-2.626c-0.654-0.707-1.462-1.062-2.432-1.062
			c-0.963,0-1.768,0.354-2.422,1.062c-0.651,0.707-0.979,1.583-0.979,2.626c0,1.045,0.327,1.917,0.979,2.618
			c0.654,0.699,1.459,1.05,2.422,1.05C482.208,386.251,483.016,385.9,483.67,385.201z"/>
		<path fill="#333333" d="M496.409,390.629c1.106,0,2.007-0.374,2.698-1.121c0.605-0.652,0.947-1.48,1.021-2.482
			c-1.152,1.194-2.521,1.79-4.099,1.79c-1.597,0-2.955-0.604-4.081-1.817c-1.125-1.213-1.689-2.685-1.689-4.415
			c0-1.729,0.564-3.203,1.689-4.423c1.126-1.22,2.488-1.83,4.09-1.83c1.56-0.007,2.881,0.561,3.967,1.7v-1.309h2.719v9.509
			c0,2.103-0.586,3.788-1.756,5.06c-1.171,1.27-2.723,1.905-4.662,1.905c-1.4,0-2.629-0.354-3.682-1.057
			c-1.055-0.702-1.761-1.644-2.117-2.817h3.264c0.203,0.4,0.54,0.716,1.018,0.954C495.263,390.512,495.805,390.629,496.409,390.629z
			 M496.492,378.876c-0.969,0-1.78,0.355-2.431,1.064c-0.654,0.712-0.978,1.594-0.978,2.643c0,1.045,0.323,1.921,0.978,2.628
			c0.65,0.708,1.46,1.063,2.421,1.063c0.969,0,1.782-0.355,2.436-1.063c0.656-0.707,0.983-1.587,0.983-2.638
			s-0.325-1.929-0.978-2.638C498.27,379.228,497.459,378.876,496.492,378.876z"/>
		<path fill="#333333" d="M506.213,372.817h2.813v2.574h-2.813V372.817z M506.213,376.722h1.402h1.41v11.703h-1.398h-1.414V376.722z
			"/>
		<path fill="#333333" d="M518.502,388.815c-1.691,0-3.133-0.604-4.324-1.817c-1.189-1.213-1.787-2.685-1.787-4.415
			c0-1.729,0.598-3.203,1.787-4.423c1.191-1.22,2.633-1.83,4.324-1.83c1.695,0,3.141,0.61,4.328,1.83
			c1.195,1.22,1.791,2.693,1.791,4.423c0,0.421-0.035,0.831-0.104,1.236h-9.129c0.158,0.509,0.42,0.968,0.795,1.382
			c0.637,0.699,1.434,1.05,2.389,1.05c0.592,0,1.131-0.137,1.625-0.412c0.489-0.275,0.852-0.641,1.083-1.104h2.968
			c-0.377,1.245-1.089,2.236-2.132,2.974C521.072,388.446,519.867,388.815,518.502,388.815z M521.683,381.575
			c-0.138-0.619-0.414-1.159-0.835-1.618c-0.631-0.707-1.412-1.062-2.346-1.062c-0.936,0-1.721,0.354-2.35,1.062
			c-0.404,0.467-0.688,1.008-0.844,1.618H521.683z"/>
		<path fill="#333333" d="M532.676,379.886c-0.068-0.332-0.197-0.579-0.393-0.743c-0.192-0.163-0.439-0.247-0.743-0.247
			c-0.323,0-0.585,0.094-0.788,0.277c-0.203,0.186-0.305,0.427-0.305,0.723c0,0.282,0.127,0.507,0.382,0.681
			c0.254,0.17,0.741,0.365,1.462,0.586c1.231,0.378,2.111,0.848,2.64,1.411c0.521,0.564,0.78,1.313,0.78,2.246
			c0,1.175-0.389,2.136-1.164,2.88c-0.775,0.746-1.771,1.116-2.986,1.116c-1.233,0-2.246-0.376-3.049-1.126
			c-0.799-0.751-1.227-1.735-1.281-2.954h2.883c0.084,0.496,0.252,0.873,0.508,1.13c0.252,0.256,0.582,0.386,0.987,0.386
			c0.386,0,0.701-0.107,0.95-0.32c0.246-0.212,0.369-0.485,0.369-0.823c0-0.363-0.111-0.646-0.336-0.844
			c-0.226-0.2-0.663-0.399-1.307-0.598c-1.303-0.398-2.23-0.879-2.797-1.443c-0.554-0.556-0.832-1.289-0.832-2.204
			c0-1.084,0.368-1.972,1.111-2.658c0.744-0.687,1.695-1.03,2.855-1.03c1.019,0,1.889,0.342,2.619,1.021
			c0.727,0.68,1.122,1.525,1.186,2.535H532.676z"/>
		<path fill="#333333" d="M548.209,375.505h-2.903v-1.338v-1.35H554v1.337v1.351h-2.904v12.92h-1.443h-1.443V375.505z"/>
		<path fill="#333333" d="M562.001,388.815c-1.606,0-2.979-0.604-4.109-1.817c-1.135-1.213-1.702-2.685-1.702-4.415
			c0-1.729,0.567-3.203,1.702-4.423c1.131-1.22,2.506-1.83,4.12-1.83c1.558,0,2.881,0.561,3.965,1.68v-1.288h2.585v11.703h-1.284
			h-1.301v-1.276C564.879,388.255,563.555,388.811,562.001,388.815z M562.465,378.876c-0.98,0-1.804,0.355-2.463,1.064
			c-0.657,0.712-0.989,1.594-0.989,2.643c0,1.045,0.332,1.921,0.989,2.628c0.659,0.708,1.477,1.063,2.453,1.063
			c0.98,0,1.803-0.355,2.466-1.063c0.664-0.707,0.995-1.587,0.995-2.638s-0.331-1.929-0.988-2.638
			C564.269,379.228,563.447,378.876,562.465,378.876z"/>
		<path fill="#333333" d="M572.279,376.722h1.309h1.308v1.01c0.907-0.933,1.992-1.401,3.255-1.401c1.389,0,2.488,0.47,3.301,1.406
			c0.816,0.938,1.223,2.202,1.223,3.798v6.891h-1.401h-1.411v-6.262c0-1.073-0.199-1.886-0.598-2.443
			c-0.398-0.556-0.979-0.834-1.742-0.834c-0.807,0-1.416,0.28-1.822,0.845c-0.403,0.563-0.607,1.409-0.607,2.534v6.16h-1.4h-1.412
			V376.722z"/>
		<path fill="#333333" d="M585.801,385.892l5.314-6.596h-4.736v-1.286v-1.288h8.004v1.267v1.268l-5.345,6.595h5.666v1.286v1.288
			h-8.903v-1.267V385.892z"/>
		<path fill="#333333" d="M603.042,388.815c-1.604,0-2.976-0.604-4.108-1.817s-1.701-2.685-1.701-4.415
			c0-1.729,0.568-3.203,1.701-4.423s2.507-1.83,4.12-1.83c1.56,0,2.882,0.561,3.968,1.68v-1.288h2.584v11.703h-1.285h-1.299v-1.276
			C605.92,388.255,604.596,388.811,603.042,388.815z M603.508,378.876c-0.982,0-1.804,0.355-2.463,1.064
			c-0.658,0.712-0.99,1.594-0.99,2.643c0,1.045,0.332,1.921,0.99,2.628c0.659,0.708,1.479,1.063,2.453,1.063
			c0.98,0,1.802-0.355,2.466-1.063c0.664-0.707,0.994-1.587,0.994-2.638s-0.329-1.929-0.987-2.638
			C605.31,379.228,604.488,378.876,603.508,378.876z"/>
		<path fill="#333333" d="M613.322,376.722h1.308h1.308v1.01c0.908-0.933,1.992-1.401,3.256-1.401c1.391,0,2.488,0.47,3.304,1.406
			c0.813,0.938,1.22,2.202,1.22,3.798v6.891h-1.401h-1.411v-6.262c0-1.073-0.197-1.886-0.596-2.443
			c-0.4-0.556-0.98-0.834-1.742-0.834c-0.813,0-1.42,0.28-1.824,0.845c-0.404,0.563-0.609,1.409-0.609,2.534v6.16h-1.399h-1.411
			V376.722z"/>
		<path fill="#333333" d="M627.545,372.817h2.813v2.574h-2.813V372.817z M627.545,376.722h1.401h1.411v11.703h-1.401h-1.411V376.722
			z"/>
		<path fill="#333333" d="M639.449,388.815c-1.606,0-2.979-0.604-4.109-1.817c-1.133-1.213-1.698-2.685-1.698-4.415
			c0-1.729,0.565-3.203,1.698-4.423c1.131-1.22,2.506-1.83,4.121-1.83c1.557,0,2.882,0.561,3.969,1.68v-1.288h2.582v11.703h-1.288
			h-1.294v-1.276C642.328,388.255,641.003,388.811,639.449,388.815z M639.914,378.876c-0.983,0-1.803,0.355-2.462,1.064
			c-0.661,0.712-0.991,1.594-0.991,2.643c0,1.045,0.33,1.921,0.991,2.628c0.659,0.708,1.476,1.063,2.451,1.063
			c0.983,0,1.806-0.355,2.468-1.063c0.662-0.707,0.994-1.587,0.994-2.638s-0.33-1.929-0.99-2.638
			C641.717,379.228,640.896,378.876,639.914,378.876z"/>
	</g>
</g>
</svg>
